<svg width="331" height="357" viewBox="0 0 331 357" fill="none" xmlns="http://www.w3.org/2000/svg">
<g opacity="0.9">
<path d="M387.623 356.485C371.336 356.485 349.621 349.427 323.562 335.312C281.76 313.053 233.985 275.594 188.383 230.534C94.4627 136.614 41.8024 36.7228 70.5755 7.94967C84.6907 -6.16546 115.635 -1.27949 157.981 20.979C199.783 43.2374 247.558 80.6968 293.16 125.757C387.08 219.676 439.74 319.568 410.967 348.341C405.538 353.77 397.395 356.485 387.623 356.485ZM93.3769 1.97785C84.1478 1.97785 76.5473 4.69226 71.6613 9.57827C43.4311 37.8085 96.6342 136.071 189.468 228.906C234.528 273.965 282.302 311.425 324.105 333.683C365.365 355.942 395.766 360.285 408.796 347.256C437.026 319.025 383.823 220.762 290.989 127.928C245.929 82.8684 198.155 45.409 156.352 23.1505C130.836 9.03538 109.121 1.97785 93.3769 1.97785Z" fill="white" fill-opacity="0.2"/>
<path d="M393.052 334.226C378.394 334.226 358.85 329.34 336.049 320.111C293.703 302.739 243.757 272.337 195.983 233.249C96.6344 152.901 35.8308 62.7816 60.8037 31.8369C72.7473 16.636 103.149 18.2647 145.494 35.6372C187.84 53.0096 237.786 83.4114 285.56 122.499C384.909 202.847 445.712 292.967 420.739 323.911C415.311 330.969 405.539 334.226 393.052 334.226ZM87.9482 24.2365C76.0046 24.2365 66.7755 27.4937 61.8895 34.0084C38.0024 63.8673 98.2631 152.358 197.069 232.163C244.843 270.708 294.246 301.653 336.592 318.482C378.394 335.312 407.71 336.941 419.111 322.826C442.998 292.967 382.737 204.476 283.931 124.671C236.157 86.1259 186.754 55.1812 144.409 38.3516C121.607 28.5796 102.606 24.2365 87.9482 24.2365Z" fill="white" fill-opacity="0.2"/>
<path d="M395.766 313.053C382.737 313.053 366.45 310.339 347.992 305.453C305.104 293.509 253.529 269.079 203.041 236.506C98.263 169.731 29.3161 88.8401 49.9459 56.2667C60.2608 40.5229 89.5768 38.3513 132.465 50.2949C175.353 62.2385 226.928 86.6685 277.417 119.242C382.194 186.017 451.141 266.908 430.511 299.481C425.082 308.71 413.139 313.053 395.766 313.053ZM85.2337 44.866C68.947 44.866 57.5463 49.2092 52.1174 57.3525C32.0305 88.8401 100.435 168.102 204.669 234.334C255.158 266.365 306.733 290.795 349.078 302.738C391.423 314.682 419.654 313.053 429.426 297.852C449.513 266.365 381.108 187.103 276.874 120.871C226.385 88.84 174.81 64.41 132.465 52.4664C114.007 47.5804 97.7201 44.866 85.2337 44.866Z" fill="white" fill-opacity="0.2"/>
<path d="M394.138 293.51C384.366 293.51 372.965 292.424 360.479 290.795C317.047 283.738 263.844 265.822 210.641 239.764C99.8916 186.017 23.8871 114.899 40.1738 80.697C48.3171 63.8674 76.5474 58.4386 120.521 65.4961C163.953 72.5537 217.156 90.469 270.359 116.528C381.108 170.274 457.113 241.392 440.826 275.594C435.397 287.538 419.111 293.51 394.138 293.51ZM86.8623 64.9532C62.9751 64.9532 47.7742 70.925 42.3453 81.7828C26.6015 114.899 102.606 184.932 211.727 238.135C264.93 264.194 318.133 282.109 361.021 288.624C403.91 295.138 431.597 290.252 439.198 274.509C454.941 241.392 378.937 171.359 269.816 118.156C216.613 92.0976 163.41 74.1823 120.521 67.6677C107.492 66.039 96.6343 64.9532 86.8623 64.9532Z" fill="white" fill-opacity="0.2"/>
<path d="M383.823 275.594C380.566 275.594 376.765 275.594 372.965 275.594C328.991 273.965 274.159 262.022 218.242 243.021C102.063 202.847 17.9154 140.957 29.8589 105.127C35.8307 87.7542 63.5181 79.0679 108.035 80.6966C152.009 82.3253 206.841 94.2688 262.758 113.27C378.937 153.444 463.085 215.333 450.598 250.621C445.712 266.908 421.825 275.594 383.823 275.594ZM97.1772 82.8681C60.2607 82.8681 36.9165 91.0116 32.0305 106.212C20.0869 140.957 103.692 201.218 218.784 241.392C274.702 260.936 329.534 272.337 372.965 273.965C416.396 275.594 442.998 267.451 448.97 250.621C460.913 215.876 377.308 155.615 262.216 115.442C206.298 95.8975 151.466 84.4968 108.035 82.8681C104.235 82.8681 100.977 82.8681 97.1772 82.8681Z" fill="white" fill-opacity="0.2"/>
<path d="M357.221 261.479C318.133 261.479 272.53 256.05 225.842 245.735C104.235 219.134 11.9435 167.017 20.0868 129.557C23.8871 111.099 51.0316 99.1553 95.5485 95.898C140.065 92.6406 196.526 97.5267 255.158 110.556C376.765 137.158 469.056 189.818 460.913 226.734C457.113 245.193 429.968 257.136 385.452 260.394C376.765 261.479 366.993 261.479 357.221 261.479ZM123.779 96.9838C114.007 96.9838 104.778 97.5268 95.5485 98.0697C51.5744 101.327 25.5157 112.728 21.7155 130.1C13.5722 166.474 105.321 217.505 225.842 244.107C284.474 257.136 340.935 262.022 384.909 258.765C428.883 255.507 454.941 244.107 458.742 226.734C466.885 190.361 375.137 139.329 254.615 112.728C208.469 101.87 162.867 96.9838 123.779 96.9838Z" fill="white" fill-opacity="0.2"/>
<path d="M308.904 253.336C284.474 253.336 258.958 251.707 232.9 248.993C105.863 235.42 5.97176 193.075 9.77199 153.987C11.9435 134.986 38.0022 119.785 83.0621 111.099C128.122 102.412 186.211 101.327 247.558 107.841C374.594 121.414 474.485 163.759 470.685 202.847C468.514 221.848 442.455 237.049 397.395 245.735C371.879 250.621 342.02 253.336 308.904 253.336ZM172.096 105.127C139.523 105.127 109.121 107.841 83.605 112.727C39.088 121.414 14.1151 136.072 11.9436 153.987C8.14333 191.989 106.949 233.792 233.442 246.821C294.789 253.336 352.878 252.25 397.395 243.564C441.912 234.877 466.885 220.219 469.056 202.304C472.857 164.302 374.051 122.499 247.558 109.47C221.499 106.755 195.983 105.127 172.096 105.127Z" fill="white" fill-opacity="0.2"/>
<path d="M240.5 252.25C108.035 252.25 0 219.133 0 178.417C0 158.33 24.9729 139.872 71.1185 125.756C116.178 112.184 176.439 104.584 240.5 104.584C372.965 104.584 481 137.7 481 178.417C481 198.504 456.027 216.962 409.882 231.077C364.822 244.649 304.561 252.25 240.5 252.25ZM240.5 106.213C176.439 106.213 116.721 113.813 71.6614 127.385C27.1445 140.957 2.17157 158.873 2.17157 177.874C2.17157 217.505 109.121 249.535 240.5 249.535C304.561 249.535 364.279 241.935 409.339 228.363C453.856 214.79 478.828 196.875 478.828 177.874C478.828 138.786 371.879 106.213 240.5 106.213Z" fill="white" fill-opacity="0.2"/>
</g>
</svg>
