<svg width="339" height="496" viewBox="0 0 339 496" fill="none" xmlns="http://www.w3.org/2000/svg">
<g opacity="0.9">
<path d="M87.5 282.5C-36.1289 282.5 -164 269.984 -164 248.529C-164 227.073 -36.1289 214.557 87.5 214.557C211.129 214.557 339 227.073 339 248.529C339 269.984 211.129 282.5 87.5 282.5ZM87.5 215.749C-62.188 215.749 -162.182 232.437 -162.182 247.933C-162.182 263.428 -61.5819 280.116 87.5 280.116C236.582 280.116 337.182 263.428 337.182 247.933C337.182 232.437 236.582 215.749 87.5 215.749Z" fill="white" fill-opacity="0.22"/>
<path d="M-85.2168 296.208C-115.518 296.208 -148.243 293.824 -149.455 283.692C-152.486 263.428 -33.7048 233.629 82.6518 216.345C145.678 206.809 205.675 201.445 251.127 200.849C283.852 200.253 322.637 202.041 324.456 213.365C327.486 233.629 208.705 263.428 92.3483 280.712C29.3217 290.248 -30.6747 295.612 -76.1265 296.208C-79.1566 295.612 -82.1867 296.208 -85.2168 296.208ZM260.217 202.041C257.187 202.041 254.157 202.041 251.127 202.041C205.675 202.637 145.678 208.001 82.6518 217.537C-57.9458 238.397 -150.061 268.196 -148.243 282.5C-147.637 286.076 -139.759 294.42 -76.7325 293.824C-31.2807 293.228 28.7157 287.864 91.7422 278.328C232.34 257.468 324.455 227.669 322.637 213.365C322.031 209.789 314.759 202.041 260.217 202.041Z" fill="white" fill-opacity="0.22"/>
<path d="M-113.094 324.815C-124.608 324.815 -133.698 323.027 -134.911 318.26C-140.971 299.188 -31.8865 252.105 77.8039 218.133C137.194 199.657 193.555 184.757 237.188 177.605C268.701 172.242 306.275 168.07 309.911 178.797C315.971 197.869 206.887 244.953 97.1967 278.924C37.8064 297.4 -18.5539 312.3 -62.1876 319.452C-79.7623 322.432 -98.5491 324.815 -113.094 324.815ZM77.8039 219.325C-54.3093 261.044 -137.941 303.36 -133.698 317.663C-131.274 324.815 -105.215 324.815 -62.7937 317.663C-19.1599 309.916 37.2003 295.612 96.5907 277.136C228.704 235.417 312.335 193.101 308.093 178.797C305.669 171.646 279.61 171.646 237.188 178.797C193.555 186.545 137.194 200.849 77.8039 219.325Z" fill="white" fill-opacity="0.22"/>
<path d="M-108.852 356.999C-114.306 356.999 -118.548 355.807 -120.366 352.827C-129.457 334.948 -29.4626 271.176 72.3495 219.325C127.498 191.314 180.828 168.07 222.643 153.17C252.339 142.442 289.306 132.31 294.76 142.442C303.851 160.322 203.857 224.093 102.045 275.944C46.8964 303.956 -6.43364 327.2 -48.2493 342.1C-70.0662 349.847 -94.9132 356.999 -108.852 356.999ZM283.852 140.654C272.337 140.654 251.127 146.018 223.855 155.554C182.04 169.858 128.71 193.698 73.5615 221.709C-49.4614 284.288 -125.214 339.716 -118.548 352.827C-114.912 359.383 -88.853 355.211 -48.8554 340.908C-7.0397 326.604 46.2904 302.764 101.439 274.753C224.461 212.173 300.214 156.746 293.548 143.634C292.336 141.846 288.7 140.654 283.852 140.654Z" fill="white" fill-opacity="0.22"/>
<path d="M-97.9436 390.97C-101.58 390.97 -104.004 390.374 -105.216 388.586C-117.336 371.898 -27.0387 290.843 68.1071 222.304C119.619 184.757 169.919 152.573 209.917 131.118C238.4 115.622 274.155 99.5303 280.821 108.47C292.942 125.158 202.644 206.213 107.499 274.752C55.9866 312.299 5.68655 344.483 -34.311 365.938C-57.34 377.858 -84.611 390.97 -97.9436 390.97ZM272.943 107.278C265.065 107.278 248.096 112.046 210.523 132.31C170.525 153.766 120.225 185.949 69.3191 223.496C-45.2194 306.935 -112.488 375.474 -103.398 387.394C-100.974 390.374 -90.0652 393.95 -34.917 364.151C5.08057 342.695 55.3806 310.511 106.287 272.964C220.825 189.525 288.094 120.986 279.003 109.066C277.791 107.874 276.579 107.278 272.943 107.278Z" fill="white" fill-opacity="0.22"/>
<path d="M-85.2171 424.942C-87.6412 424.942 -89.4592 424.346 -90.6713 423.154C-105.822 408.254 -24.6147 309.916 62.6528 223.497C109.923 177.009 157.193 135.29 195.372 106.682C222.643 86.4186 256.58 63.771 265.671 72.1148C280.821 87.0146 199.614 185.353 112.347 271.772C65.0769 318.259 17.807 359.979 -20.3725 388.587C-44.0075 406.466 -71.8846 424.942 -85.2171 424.942ZM63.8649 225.285C-41.5833 329.583 -100.974 411.234 -89.4592 421.962C-83.399 427.922 -58.552 415.406 -21.5846 387.394C16.595 358.787 63.2588 317.663 110.529 271.176C215.977 166.877 275.367 85.2266 263.853 74.4988C257.793 68.5389 232.946 81.0546 195.978 109.066C157.799 137.674 111.135 178.797 63.8649 225.285Z" fill="white" fill-opacity="0.22"/>
<path d="M-51.2797 439.246C-52.4917 439.246 -54.3098 438.65 -54.9158 438.054C-71.8845 426.134 -8.85798 322.432 60.8348 228.861C99.0143 178.202 137.194 132.906 168.707 100.723C191.13 77.4789 220.219 51.8512 229.915 58.4072C246.884 70.327 183.858 174.03 114.165 267.6C75.9853 318.26 37.8059 363.555 6.29263 395.739C-14.3122 416.002 -39.1592 439.246 -51.2797 439.246ZM62.0468 230.053C-22.7965 342.695 -66.4303 427.922 -54.3098 436.862C-51.2797 439.246 -39.7652 439.246 4.47454 395.143C35.9878 362.959 74.1673 317.664 112.347 267.004C197.19 154.362 240.824 69.1351 228.703 60.1952C222.643 55.4273 200.22 71.5191 169.919 101.915C138.406 134.098 100.226 179.394 62.0468 230.053Z" fill="white" fill-opacity="0.22"/>
<path d="M-16.7361 452.954C-17.9481 452.954 -18.5542 452.954 -19.1602 452.358C-37.3409 443.418 6.29285 333.756 59.0169 233.629C87.5001 179.394 117.195 129.331 142.648 93.571C160.829 67.9434 184.464 38.7396 194.766 43.5076C212.947 52.4474 169.313 162.11 116.589 262.237C88.1061 316.472 58.4109 366.535 32.9579 402.295C15.9892 426.134 -5.82763 452.954 -16.7361 452.954ZM60.229 234.821C-3.40355 355.807 -31.8867 444.61 -18.5542 451.166C-11.8879 454.742 6.89884 436.266 31.1398 401.699C56.5928 365.939 86.288 316.472 114.771 262.237C178.404 141.25 206.887 52.4476 193.554 45.8917C186.888 42.3157 168.101 60.7914 143.86 95.3589C118.407 131.118 88.7121 180.586 60.229 234.821Z" fill="white" fill-opacity="0.22"/>
<path d="M17.8071 467.258C17.2011 467.258 16.595 467.258 15.989 467.258C-3.40378 461.298 21.4432 346.271 56.5926 238.993C75.3793 180.586 96.5903 126.946 115.377 87.611C128.71 59.5994 147.496 26.8198 158.405 29.7998C177.797 35.7597 152.95 150.786 117.801 258.065C99.0143 316.472 77.8035 370.111 59.0167 409.447C46.2902 436.266 28.7155 467.258 17.8071 467.258ZM57.8047 238.397C15.383 368.323 2.05044 460.106 15.989 464.874C23.2613 467.258 38.4119 445.802 56.5926 408.255C75.3793 368.919 96.5903 315.28 115.377 256.873C157.799 126.946 171.131 35.1637 157.193 30.3958C149.92 28.0118 134.77 49.4675 116.589 87.015C97.8023 126.35 76.5915 179.99 57.8047 238.397Z" fill="white" fill-opacity="0.22"/>
<path d="M52.3505 481.562H51.7445C31.1397 478.582 37.1999 358.191 54.7746 243.165C64.471 181.182 76.5915 123.371 89.318 79.8632C98.4084 48.8716 111.741 12.5161 123.255 14.3041C143.86 17.2841 137.8 137.674 120.225 252.701C110.529 314.684 98.4083 372.495 85.6818 416.003C76.5914 445.802 63.8649 481.562 52.3505 481.562ZM55.9867 243.165C34.7758 381.435 36.5939 476.794 51.7445 479.178C59.6228 480.37 71.7432 456.53 83.8637 414.811C96.5902 371.899 108.711 314.088 118.407 252.105C139.618 113.835 137.8 18.4761 122.649 16.0922C114.771 14.9002 102.651 38.7398 90.53 80.4592C77.8035 123.371 65.6831 181.182 55.9867 243.165Z" fill="white" fill-opacity="0.22"/>
<path d="M87.4999 495.865C65.683 495.865 52.9565 370.111 52.9565 247.933C52.9565 126.35 65.683 0 87.4999 0C109.317 0 122.043 125.754 122.043 247.933C122.043 370.111 109.317 495.865 87.4999 495.865ZM87.4999 2.38393C71.7433 2.38393 54.7746 101.319 54.7746 248.529C54.7746 395.739 71.7433 494.673 87.4999 494.673C103.257 494.673 120.225 395.739 120.225 248.529C120.225 100.723 103.257 2.38393 87.4999 2.38393Z" fill="white" fill-opacity="0.22"/>
<path d="M122.043 481.562C110.529 481.562 97.8021 446.398 88.7118 416.003C75.9853 373.091 63.8648 315.28 54.1684 252.701C36.5937 138.27 30.5335 17.88 51.1383 14.3041C62.6528 12.5161 75.9853 48.8716 85.0757 79.8632C97.8022 122.775 109.923 180.586 119.619 243.165C137.194 357.595 143.254 477.986 122.649 481.562C122.649 481.562 122.649 481.562 122.043 481.562ZM56.5925 252.701C66.2889 314.684 78.4094 372.495 91.1359 415.407C103.256 456.53 115.377 480.37 123.255 479.774C138.406 477.39 140.224 382.031 119.013 243.761C109.317 181.778 97.1961 123.967 84.4696 81.0552C72.3492 39.9318 60.2287 16.092 52.3503 16.688C37.1997 18.476 35.3816 114.431 56.5925 252.701Z" fill="white" fill-opacity="0.22"/>
<path d="M156.587 467.257C145.678 467.257 128.104 436.266 115.377 409.446C96.5903 370.111 75.3793 316.471 56.5926 258.064C21.4432 150.785 -3.40378 35.7591 15.989 29.7992C26.8974 26.2233 45.0782 59.0029 59.0167 87.6105C77.8035 126.946 99.0143 180.585 117.801 238.992C152.95 346.271 177.797 461.297 158.405 467.257C157.799 467.257 157.193 467.257 156.587 467.257ZM58.4107 257.468C77.1974 315.875 98.4083 369.515 117.195 408.85C135.376 446.397 150.526 467.853 157.799 465.469C171.737 461.297 158.405 368.919 115.983 238.992C97.1962 180.585 75.9854 126.946 57.1987 87.6105C39.0179 50.063 23.8673 28.6073 16.5951 30.9913C2.6565 35.1632 15.989 127.542 58.4107 257.468Z" fill="white" fill-opacity="0.22"/>
<path d="M191.736 452.954C180.828 452.954 159.011 426.134 142.042 402.294C116.589 366.535 86.894 317.067 58.4109 262.236C5.68681 162.11 -37.9469 52.447 -19.7662 43.5071C-9.46376 38.1432 14.1711 67.9429 32.3518 93.5706C57.8049 129.33 87.5001 178.797 115.983 233.629C168.707 333.755 212.341 443.418 194.16 452.358C193.554 452.954 192.342 452.954 191.736 452.954ZM60.229 261.64C88.7121 315.875 118.407 365.343 143.86 401.102C168.101 435.67 186.888 454.146 193.554 450.57C206.887 444.014 177.798 355.211 114.771 234.224C86.288 179.989 56.5928 130.522 31.1398 94.7624C6.89886 60.1949 -11.8879 41.7192 -18.5541 45.2952C-31.8867 51.8511 -3.40353 140.654 60.229 261.64Z" fill="white" fill-opacity="0.22"/>
<path d="M225.674 439.246C213.553 439.246 188.706 416.598 168.707 395.739C137.194 363.555 98.4086 318.26 60.8351 267.6C-9.4637 174.626 -71.8842 70.327 -54.9155 58.4072C-45.2192 51.8512 -16.736 77.4789 6.29293 100.723C37.8062 132.906 76.5916 178.202 114.165 228.861C184.464 321.836 246.884 426.134 229.916 438.054C228.704 438.65 227.492 439.246 225.674 439.246ZM62.0471 266.408C100.227 317.068 138.406 362.363 169.919 394.547C213.553 439.246 225.674 438.65 228.704 436.266C240.824 427.326 197.191 342.099 112.347 229.457C74.1676 178.798 35.9881 133.502 4.47484 101.319C-39.1589 56.6193 -51.2794 57.2152 -54.3095 59.5992C-66.43 68.5391 -22.1902 153.766 62.0471 266.408Z" fill="white" fill-opacity="0.22"/>
<path d="M259.611 424.942C246.278 424.942 218.401 405.871 194.766 388.587C156.587 359.979 109.923 318.856 62.047 271.773C-25.2205 185.354 -107.034 87.611 -91.2772 72.1153C-82.7928 63.7714 -48.2494 85.823 -20.9783 106.683C17.2012 135.29 63.865 176.414 111.741 223.497C199.008 309.916 280.822 407.659 265.065 423.154C263.853 424.346 262.035 424.942 259.611 424.942ZM63.8651 271.176C111.135 317.664 158.405 359.383 195.978 387.395C232.946 415.406 257.793 427.922 263.853 421.962C275.367 410.638 215.977 328.988 110.529 225.285C63.259 178.798 15.9891 137.078 -21.5844 109.067C-58.5518 81.055 -83.3988 68.5393 -89.4591 74.4992C-100.974 85.227 -41.5831 166.878 63.8651 271.176Z" fill="white" fill-opacity="0.22"/>
<path d="M272.944 390.971C259.611 390.971 232.34 377.859 209.311 365.939C169.313 344.483 119.013 311.704 67.5013 274.752C-27.0384 205.617 -117.942 124.562 -105.822 108.471C-99.1552 98.9347 -63.3998 115.622 -34.9167 131.118C5.08086 152.574 55.3808 185.353 106.893 222.305C201.433 291.44 292.336 372.495 280.216 388.587C278.398 390.375 275.974 390.971 272.944 390.971ZM68.7133 272.964C120.225 310.512 169.919 342.695 209.917 364.151C265.065 393.951 276.58 390.375 278.398 387.395C287.488 375.475 220.219 306.936 105.681 223.497C54.1688 185.949 4.47481 153.766 -35.5228 132.31C-90.671 102.511 -102.185 106.086 -104.004 109.066C-113.094 120.986 -45.8252 189.525 68.7133 272.964Z" fill="white" fill-opacity="0.22"/>
<path d="M283.246 356.999C268.701 356.999 243.854 349.847 222.643 342.1C180.828 327.2 127.498 303.956 72.3495 275.944C-29.4626 224.093 -129.457 160.322 -120.366 142.442C-114.912 132.31 -78.5505 143.038 -48.2493 153.17C-6.43364 168.07 46.8964 191.314 102.045 219.325C203.857 271.176 303.851 334.948 294.76 352.827C293.548 355.807 289.306 356.999 283.246 356.999ZM73.5615 274.753C128.71 302.764 182.04 326.008 223.855 340.908C263.853 355.211 289.912 359.383 293.548 352.827C300.214 339.716 224.461 284.288 101.439 221.709C46.2904 193.698 -7.0397 170.454 -48.8554 155.554C-88.853 141.25 -114.912 137.078 -118.548 143.634C-125.214 156.746 -50.0674 212.173 73.5615 274.753Z" fill="white" fill-opacity="0.22"/>
<path d="M287.488 324.815C272.944 324.815 254.157 322.432 236.582 319.452C192.948 311.704 135.982 297.4 77.1978 278.924C-31.8866 244.357 -141.577 197.273 -135.517 178.797C-131.881 168.07 -94.3071 172.242 -62.7938 177.605C-19.1601 185.353 37.8062 199.657 96.5905 218.133C205.675 252.701 315.365 299.784 309.305 318.26C308.093 323.027 299.609 324.815 287.488 324.815ZM77.8037 276.54C137.194 295.016 193.554 309.916 237.188 317.068C279.004 324.22 305.669 324.22 308.093 317.068C312.335 303.36 228.704 260.448 96.5905 218.729C37.2001 200.253 -19.1601 185.353 -62.7938 178.201C-104.61 171.05 -131.275 171.05 -133.699 178.201C-137.941 192.505 -53.7035 234.821 77.8037 276.54Z" fill="white" fill-opacity="0.22"/>
<path d="M260.217 296.208C257.187 296.208 254.157 296.208 251.127 296.208C205.675 295.612 145.678 290.248 82.6518 280.712C-33.7048 263.428 -152.486 233.629 -149.455 213.365C-147.637 202.041 -108.246 200.253 -76.1265 200.849C-30.6747 201.445 29.3217 206.809 92.3483 216.345C208.705 233.629 327.486 263.428 324.456 283.692C322.637 293.228 290.518 296.208 260.217 296.208ZM-85.8229 202.041C-140.365 202.041 -147.637 209.789 -148.243 213.365C-150.667 228.265 -58.5518 258.064 82.6518 278.328C145.678 287.864 205.675 293.228 251.127 293.824C314.153 295.016 322.031 286.076 322.637 282.5C325.062 267.6 232.946 237.801 91.7422 217.537C28.7157 208.001 -31.2807 202.637 -76.7325 202.041C-79.7627 202.041 -82.7928 202.041 -85.8229 202.041Z" fill="white" fill-opacity="0.22"/>
<path d="M87.5 282.5C-36.1289 282.5 -164 269.984 -164 248.529C-164 227.073 -36.1289 214.557 87.5 214.557C211.129 214.557 339 227.073 339 248.529C339 269.984 211.129 282.5 87.5 282.5ZM87.5 215.749C-62.188 215.749 -162.182 232.437 -162.182 247.933C-162.182 263.428 -61.5819 280.116 87.5 280.116C236.582 280.116 337.182 263.428 337.182 247.933C337.182 232.437 236.582 215.749 87.5 215.749Z" fill="white" fill-opacity="0.22"/>
</g>
</svg>
