<svg width="387" height="387" viewBox="0 0 387 387" fill="none" xmlns="http://www.w3.org/2000/svg">
<g opacity="0.9">
<path d="M193.5 387C86.9069 387 0 300.093 0 193.5C0 86.907 86.9069 0 193.5 0C300.093 0 387 86.907 387 193.5C387 300.093 300.093 387 193.5 387ZM193.5 0.480178C87.3871 0.480178 0.960283 86.907 0.960283 193.02C0.960283 299.133 87.3871 385.56 193.5 385.56C299.613 385.56 386.04 299.133 386.04 193.02C386.04 86.907 299.613 0.480178 193.5 0.480178Z" fill="white" fill-opacity="0.37"/>
<path d="M199.742 379.798C198.301 379.798 196.381 379.798 194.94 379.798C184.377 379.798 173.334 378.357 162.77 376.917C156.529 375.957 150.767 374.516 145.005 373.076C115.716 365.394 89.7879 351.469 69.6216 333.223C63.3797 327.462 56.6576 320.74 50.8958 313.537C43.6936 304.895 37.4516 296.252 31.6898 287.609C25.9281 278.487 21.1266 268.884 17.2854 258.8C13.9243 250.158 11.0435 241.515 9.12286 232.872C6.24197 219.428 4.80151 205.984 4.80151 191.58C4.80151 181.016 6.24195 169.973 8.16254 158.929C13.4442 128.68 24.4876 101.312 40.8127 78.7446C52.3363 62.8997 66.7407 48.4953 83.5459 36.9717C99.871 25.4481 117.636 16.8054 137.323 11.0436C156.048 5.28182 175.254 2.40095 194.94 1.9208C226.63 1.44066 257.84 9.12299 285.689 24.0076C313.057 38.8922 336.584 60.4989 353.39 86.427C372.115 115.716 382.679 151.247 383.159 188.699C383.159 199.262 382.679 208.385 381.718 217.028C378.837 239.595 371.635 262.162 360.112 281.848C353.39 293.851 344.747 305.855 334.664 317.859C324.581 329.382 314.017 339.465 302.494 347.628C288.089 358.191 272.244 365.874 255.439 371.155C243.916 374.997 231.912 377.397 219.428 378.358C212.706 379.798 206.464 379.798 199.742 379.798ZM196.861 2.88109C195.901 2.88109 194.94 2.88109 193.98 2.88109C174.294 3.36124 155.088 6.2421 136.842 12.0039C117.636 17.7657 99.3908 26.4084 83.5459 37.932C66.7407 49.4555 52.8164 63.3798 41.2928 79.7049C24.9678 102.272 13.9243 129.16 8.64268 159.41C6.72209 170.453 5.7618 181.496 5.28166 192.06C4.80151 205.984 6.24196 219.908 9.603 232.872C11.5236 241.515 14.4045 250.158 17.7655 258.8C21.6067 268.884 26.8883 278.487 32.17 287.129C37.4516 295.772 44.1737 304.415 50.8958 313.057C56.6576 320.26 62.8995 326.501 69.6216 332.743C89.7879 351.469 115.716 364.913 144.525 372.596C150.287 374.036 156.048 375.477 162.29 376.437C172.854 378.357 183.897 379.318 194.46 379.318C203.103 379.318 210.785 379.318 217.988 378.358C229.991 376.917 242.475 374.516 253.519 371.155C270.324 365.874 286.169 358.191 300.573 347.628C312.577 339.465 323.14 329.382 332.743 317.859C342.826 305.855 350.989 294.331 358.191 282.328C369.234 262.642 376.917 240.555 379.318 217.508C380.278 208.865 380.758 199.742 380.758 189.179C380.278 151.727 369.715 116.676 350.989 87.3873C334.184 61.4593 311.136 39.8526 283.768 24.968C257.84 10.5635 227.591 2.88109 196.861 2.88109Z" fill="white" fill-opacity="0.37"/>
<path d="M207.424 373.076C204.063 373.076 200.222 373.076 196.381 372.596C185.818 372.116 175.254 371.155 164.691 369.235C158.449 368.275 152.687 366.834 146.926 365.874C116.676 358.191 91.7084 345.227 72.9826 327.462C66.7406 321.7 60.9789 315.458 54.7369 308.256C47.5347 299.613 41.2928 290.971 36.0111 282.808C30.2493 274.165 25.4479 265.043 21.1265 255.44C17.2853 247.277 14.8846 238.634 12.4838 230.472C9.60294 217.988 8.16247 204.064 8.64262 190.139C9.12277 180.056 10.0831 169.493 12.4838 157.969C18.2456 126.28 28.3287 100.351 43.6935 79.2249C54.7369 63.38 69.1414 49.9358 85.4664 38.4122C101.311 27.849 119.077 19.2063 138.283 13.4445C156.528 8.16288 175.254 4.80187 194.46 4.32172C225.19 3.36142 254.959 10.0835 282.808 24.9681C309.696 39.3726 332.263 60.019 348.588 85.4669C366.354 113.315 375.957 146.926 377.397 184.858C377.877 193.02 377.877 202.623 376.917 212.706C374.996 235.273 367.794 257.36 356.751 277.046C348.588 290.971 338.985 303.454 331.783 312.577C322.18 324.581 312.097 334.184 301.053 342.827C286.649 353.39 271.284 361.072 254.479 366.354C242.955 369.715 231.432 371.636 218.948 372.596C215.587 373.076 211.746 373.076 207.424 373.076ZM200.702 5.28201C198.782 5.28201 196.861 5.28201 194.94 5.28201C175.734 5.76215 157.009 9.12317 138.763 14.4048C119.557 20.1666 101.792 28.3292 85.9466 38.8924C69.1414 50.416 55.2171 63.8602 44.1736 79.7051C29.289 100.832 19.2059 126.76 13.4441 158.449C11.5235 169.973 10.0831 180.056 9.60294 190.139C9.12279 204.064 10.0831 217.508 13.4441 229.992C15.3647 238.154 18.2456 246.797 21.6067 254.959C25.928 264.562 30.7295 273.685 36.4913 282.328C41.7729 290.49 48.0149 298.653 55.2171 307.296C61.459 314.498 67.2208 320.74 72.9826 326.502C91.7084 344.267 116.676 357.231 146.445 364.913C152.207 366.354 157.489 367.314 164.211 368.275C174.774 370.195 185.337 371.155 195.901 371.636C204.543 372.116 212.226 372.116 218.948 371.636C230.952 370.675 242.955 368.755 254.479 365.394C270.804 360.592 286.649 352.91 300.573 342.347C311.617 334.184 321.7 324.581 330.823 312.577C338.025 303.454 347.628 290.971 355.31 277.046C366.354 257.84 373.556 235.753 375.476 213.186C376.437 203.103 376.437 193.5 375.957 185.338C374.996 147.406 365.393 114.276 347.628 86.4271C331.303 60.9792 308.736 40.3329 282.327 25.9284C257.36 12.0041 229.511 5.28201 200.702 5.28201Z" fill="white" fill-opacity="0.37"/>
<path d="M215.107 366.354C208.865 366.354 203.103 365.873 197.821 365.873C187.738 365.393 177.655 363.953 167.092 362.512C160.37 361.552 154.608 360.112 149.806 359.151C119.077 351.949 94.5893 339.465 77.3039 322.18C72.0223 316.898 66.2605 310.656 60.0186 302.974C52.3362 293.371 46.0942 285.688 41.2928 278.486C35.531 270.324 30.7295 261.681 26.4082 252.078C22.567 243.915 19.6861 235.753 17.7655 227.59C14.8846 215.587 13.4441 202.143 14.4044 188.218C14.8846 178.615 16.325 168.532 18.2456 157.009C24.4875 123.398 33.6104 99.3907 47.5347 79.2244C58.098 63.8596 72.5024 50.4155 88.8275 39.3721C104.192 29.289 121.958 21.1264 141.164 15.8448C158.929 10.5631 177.655 7.68227 196.381 6.72197C226.15 5.28153 254.959 11.5234 282.327 25.4477C308.736 38.8919 330.823 59.5383 346.667 84.0259C362.993 109.954 372.596 142.604 374.036 180.536C374.516 189.659 374.996 198.781 374.516 207.904C373.076 230.471 366.354 252.558 355.31 271.764C348.108 283.768 340.426 294.811 332.743 304.894L331.303 306.815C322.18 319.299 313.057 328.902 302.494 337.064C288.569 348.108 273.205 355.79 256.399 360.592C245.356 363.953 233.352 365.393 221.349 365.873C218.948 366.353 217.027 366.354 215.107 366.354ZM204.543 7.68226C201.662 7.68226 199.262 7.68226 196.381 7.68226C177.655 8.64255 158.929 11.5234 141.164 16.8051C121.958 22.0867 104.672 30.2493 89.3076 40.3324C72.9826 51.3758 58.5781 64.82 48.0149 80.1848C34.0905 100.351 25.4479 123.878 19.2059 157.489C16.8052 169.012 15.8449 179.095 15.3647 188.698C14.4044 202.623 15.8449 215.587 18.7258 228.071C20.6464 236.233 23.5272 244.396 27.3684 252.078C31.6898 261.201 36.4913 269.844 42.253 278.006C47.0545 285.208 53.2965 292.891 60.9789 302.494C67.2208 310.176 72.9826 316.418 78.2642 321.7C95.5496 338.985 120.037 351.469 150.287 358.191C155.568 359.151 160.85 360.592 167.572 361.552C178.135 363.473 188.218 364.433 198.301 364.913C205.024 365.393 212.706 365.873 220.868 365.393C232.872 364.913 244.876 362.992 255.919 360.111C272.244 355.31 287.609 347.628 301.533 337.064C312.097 328.902 321.22 319.299 330.342 306.815L331.783 304.894C339.465 294.331 347.628 283.768 354.35 271.764C365.393 252.558 372.115 230.951 373.556 208.384C374.036 199.262 373.556 190.139 373.076 181.016C371.155 143.084 362.032 110.914 345.707 84.9862C330.342 60.4987 308.256 40.3324 281.847 26.8882C256.88 13.9242 230.952 7.68226 204.543 7.68226Z" fill="white" fill-opacity="0.37"/>
<path d="M220.868 360.112C213.666 360.112 206.944 359.632 199.262 358.672C189.659 357.711 179.576 356.751 169.012 354.83C163.731 353.87 157.969 352.91 152.207 351.949C120.517 345.227 97.4702 333.704 81.1451 316.898C74.9032 310.657 69.6216 303.935 64.3399 298.173C57.6178 290.49 51.3759 282.328 45.6141 274.645C39.8523 266.963 35.0508 258.8 30.2493 249.678C26.4081 241.995 23.0471 233.833 21.1265 226.15C18.2456 214.147 17.2853 201.183 18.2456 187.738C19.2059 176.215 21.1265 165.652 22.567 157.009C27.3684 132.521 33.6104 104.673 49.9355 80.1852C60.0186 65.3005 73.9429 51.8563 90.7481 41.2931C105.633 31.6901 122.918 24.0077 142.124 18.7261C159.89 13.9246 178.135 11.0437 196.381 9.60321C225.19 7.68262 253.038 13.4444 279.447 26.8886C305.375 39.8526 326.981 59.5387 341.866 83.5462C357.231 108.034 365.873 138.763 368.274 177.655C368.274 179.096 368.274 181.016 368.754 182.457C369.234 190.139 369.715 197.341 369.715 204.544C369.234 226.631 362.512 248.717 351.469 267.443C346.187 276.086 340.906 283.768 335.624 291.451C333.223 294.812 330.342 298.653 327.942 302.494C319.299 315.458 310.656 325.061 301.053 333.224C287.609 344.267 272.244 351.949 255.919 356.271C244.876 359.152 233.352 360.592 221.349 360.592C221.349 360.112 221.349 360.112 220.868 360.112ZM207.424 9.60321C204.063 9.60321 200.222 9.60324 196.861 10.0834C178.615 11.5238 160.37 14.4047 142.604 19.2062C123.398 24.4878 106.113 31.6901 91.2283 41.2931C74.9032 51.8563 60.4987 65.3005 50.4156 80.1852C34.0905 104.193 27.8486 132.041 23.5273 156.529C22.0868 164.691 20.1662 175.735 19.2059 187.258C18.2456 201.183 19.2059 213.666 22.0868 225.67C24.0074 233.353 26.8883 241.035 30.7295 248.717C35.0508 257.36 40.3325 265.523 46.0943 273.685C51.856 281.848 58.098 289.53 64.8201 297.212C70.1017 303.454 75.3833 309.696 81.6253 315.938C97.9503 332.743 120.997 344.267 152.207 350.989C157.969 352.43 163.731 353.39 169.012 353.87C179.576 355.791 189.659 356.751 199.262 357.711C206.944 358.191 214.146 359.152 221.349 359.152C233.352 359.152 244.876 357.711 255.919 354.83C272.244 350.509 287.609 342.827 301.053 331.783C310.656 323.621 319.299 314.498 327.942 301.534C330.342 297.693 332.743 294.332 335.624 290.49C340.906 282.808 346.667 274.645 351.469 266.483C362.512 247.757 368.754 225.67 369.715 204.064C369.715 196.861 369.234 189.659 368.754 181.977C368.754 180.536 368.754 178.616 368.274 177.175C365.873 138.283 357.231 108.034 341.866 83.5462C326.981 59.5387 305.375 40.3328 279.927 27.3688C256.88 15.3651 232.392 9.60321 207.424 9.60321Z" fill="white" fill-opacity="0.37"/>
<path d="M226.15 353.39C225.19 353.39 223.749 353.39 222.789 353.39C216.067 353.39 209.345 352.429 202.623 351.469H200.702C192.06 350.509 182.457 349.068 171.413 347.148H170.933C165.651 346.188 159.89 345.227 154.608 344.267C134.442 339.946 105.153 332.263 84.9863 310.656C79.7047 304.895 74.4231 298.653 69.1414 292.411L68.6612 291.931C67.2208 290.01 65.7804 288.57 64.3399 286.649C59.5384 280.887 54.7369 275.125 50.4156 269.364C44.6538 261.681 39.8523 253.999 35.0508 245.836C30.7295 238.154 27.8486 230.952 25.928 223.269C23.0471 211.746 22.0868 199.262 23.5273 185.338C24.4876 175.254 26.4082 165.171 28.3288 155.568C33.6104 128.68 38.4119 102.752 53.7766 80.185C63.3796 65.7805 77.3039 52.3363 94.1091 42.2532C108.994 33.1304 125.319 26.4083 145.005 21.1267C162.29 16.8053 180.056 13.4442 198.301 12.0038C226.15 9.60304 253.038 14.8847 278.966 27.3686C304.414 39.8525 325.061 58.5783 339.945 82.1056C358.191 111.395 362.993 145.965 365.393 173.334C365.393 176.215 365.873 178.616 366.354 181.016C366.834 187.258 367.794 193.5 367.794 199.262C367.794 220.869 361.552 242.955 350.509 261.681C346.667 268.403 342.346 274.165 338.505 280.407C334.664 286.169 331.303 290.97 327.942 296.732C322.18 306.335 314.497 317.379 302.974 327.462C290.01 338.505 274.645 346.668 258.32 350.509C247.277 352.429 236.713 353.39 226.15 353.39ZM210.785 11.5237C206.464 11.5237 202.143 11.5236 197.821 12.0038C179.576 13.4442 161.81 16.8053 144.525 21.1267C125.319 26.4083 108.514 33.1304 93.629 42.2532C76.8238 52.3363 63.3796 65.7805 53.7766 80.185C38.892 102.752 33.6104 128.2 28.3288 155.568C26.4082 165.171 24.4876 175.254 23.5273 185.338C22.0868 198.782 23.0471 211.266 25.928 222.789C27.8486 230.472 30.7295 237.674 35.0508 245.356C39.8523 253.999 44.6538 261.681 50.4156 268.883C54.7369 274.645 59.5384 280.407 64.3399 286.169C65.7804 288.089 67.2208 289.53 68.6612 291.451L69.1414 291.931C74.4231 298.173 79.2245 304.414 84.9863 310.176C105.153 331.783 133.962 339.465 154.128 343.787C159.409 344.747 164.691 345.707 170.453 346.668H170.933C182.457 348.588 191.579 349.548 200.222 350.989H202.143C208.865 351.949 215.587 352.429 222.309 352.909C233.832 353.39 245.356 351.949 256.399 349.549C272.244 345.707 287.609 337.545 300.573 326.501C312.097 316.418 319.779 305.375 325.541 295.772C328.902 290.49 332.263 285.209 336.104 279.447C339.945 273.685 344.267 267.443 348.108 260.721C359.151 242.475 365.393 220.388 365.393 198.782C365.393 192.54 364.913 186.778 363.953 180.536C363.473 178.135 363.473 175.254 362.993 172.854C360.592 145.965 355.79 110.914 337.545 82.1056C323.14 59.0584 302.014 40.3326 277.046 27.8487C256.4 17.2854 233.833 11.5237 210.785 11.5237Z" fill="white" fill-opacity="0.37"/>
<path d="M231.432 347.148C229.031 347.148 226.63 347.148 223.749 347.148C217.988 346.668 212.226 346.187 206.464 345.227C205.024 345.227 203.583 344.747 202.623 344.747C195.421 343.787 188.218 342.346 181.016 341.386L170.453 339.946C166.131 339.465 161.81 338.505 157.969 338.025C134.442 333.704 108.033 326.501 89.7878 305.855C85.4664 301.534 82.1054 296.732 77.7841 291.931C76.8238 290.49 75.3833 289.05 73.9429 287.609C71.062 284.248 68.1811 280.887 65.3002 277.526C61.9392 273.685 58.5781 269.364 55.2171 265.522C49.4553 258.32 44.1736 251.118 39.3722 242.955C35.0508 235.753 31.6898 228.551 29.7692 220.869C26.8883 209.825 25.928 197.341 27.8486 183.897C28.8089 174.774 30.7295 166.132 32.6501 157.489L33.1302 155.088C33.6104 152.207 34.0905 149.326 35.0508 146.445C39.8523 122.918 43.6935 100.831 56.6575 80.6651C65.7803 66.2606 79.7047 53.2966 96.5099 43.6937C110.914 35.051 127.239 28.809 146.926 24.0075C163.251 20.1663 181.496 16.8053 199.262 14.8847C225.67 12.0038 252.078 16.8053 277.046 28.3289C301.533 39.8525 322.18 58.0981 336.104 80.6651C350.989 105.153 356.751 133.962 360.112 169.013C360.592 172.374 361.072 175.735 361.072 178.616C362.032 183.897 362.512 189.179 362.512 194.46C363.473 216.067 357.711 237.674 346.187 256.4C342.826 261.681 339.465 266.483 336.584 271.284C332.263 278.006 327.942 284.248 324.1 290.97C317.378 302.974 311.136 313.057 300.573 322.18C288.089 333.704 272.725 341.386 256.399 345.227C249.197 346.187 240.074 347.148 231.432 347.148ZM214.146 13.9244C209.345 13.9244 204.063 14.4046 199.262 14.8847C181.496 16.8053 163.251 19.6862 146.926 24.0075C127.72 28.809 111.394 35.5311 96.99 43.6937C80.1848 53.7768 66.7407 66.2606 57.6178 80.6651C44.6538 100.831 40.3325 122.918 36.0111 145.965C35.531 148.846 35.0508 151.727 34.0905 154.608L33.6104 157.009C31.6898 165.652 30.2493 174.774 28.8089 183.417C27.3684 196.861 27.8486 208.865 30.7295 219.908C32.6501 227.111 36.0111 234.313 39.8523 241.515C44.6538 249.678 49.9354 256.88 55.6972 264.082C59.0583 267.923 61.9391 271.764 65.7803 276.086C68.6612 279.447 71.5421 282.808 74.423 286.169C75.8635 287.609 76.8238 289.05 78.2642 290.49C82.1054 295.292 85.9466 300.093 90.2679 304.414C108.514 324.581 134.922 331.783 157.969 336.104C162.29 337.065 166.612 337.545 170.453 338.025L181.016 339.465C188.218 340.426 195.421 341.866 202.623 342.826C204.063 342.826 205.504 343.307 206.464 343.307C212.226 344.267 217.988 345.227 223.749 345.227C235.273 345.707 246.316 345.227 257.36 342.346C273.205 338.505 288.569 330.823 301.053 319.779C311.136 310.656 317.378 301.054 324.1 289.05C327.942 282.328 332.263 276.086 336.584 269.364C339.945 264.562 343.306 259.761 346.187 254.479C357.231 236.233 362.993 214.627 362.032 193.02C362.032 187.738 361.072 182.457 360.592 177.175C360.112 174.294 359.632 170.933 359.632 167.572C355.79 132.521 350.509 103.712 335.624 79.7048C321.7 57.1378 301.533 39.3723 277.046 27.3686C256.399 18.7259 235.273 13.9244 214.146 13.9244Z" fill="white" fill-opacity="0.37"/>
<path d="M235.753 341.386C231.912 341.386 228.551 341.386 224.71 340.906C219.428 340.426 214.627 339.465 209.345 338.505C207.424 338.025 205.504 338.025 203.583 337.545H202.623C193.98 336.104 184.857 334.664 175.735 333.223C173.814 332.743 171.893 332.743 169.973 332.263C166.612 331.783 163.251 331.303 159.89 330.823C134.922 326.501 109.954 320.259 93.1489 300.093C89.7879 296.252 86.907 292.411 84.0261 288.57C82.1055 286.169 80.1849 283.768 78.2643 281.367C74.4231 277.046 70.5819 272.245 66.7408 268.403C64.34 265.523 61.9393 263.122 59.5385 260.241C53.7767 253.519 48.4951 246.317 43.6936 239.114C39.3723 232.392 36.0112 225.19 34.0906 217.988C31.2097 207.425 30.7296 194.941 32.6502 181.977C33.6105 174.774 35.0509 167.572 36.9715 160.37C37.4517 157.969 37.9318 155.568 38.412 153.648C39.3723 148.846 40.3326 143.565 41.2928 138.763C45.134 118.117 48.4951 98.4307 60.0187 80.1851C68.6613 66.2608 82.5857 53.7769 98.9107 44.1739C112.835 36.4915 129.16 30.2496 148.366 25.4481C164.211 21.6069 181.496 18.726 199.742 16.3253C225.19 12.9642 250.638 17.2856 275.125 28.329C299.133 39.3724 319.299 57.1379 332.743 78.7446C348.588 104.673 352.429 136.362 355.79 164.211C356.271 168.052 356.751 171.413 357.231 174.774C358.191 179.576 358.671 184.377 359.151 189.179C360.592 209.825 355.31 232.392 344.267 250.158C341.386 254.479 338.985 258.32 336.104 262.161C331.303 269.844 326.501 276.566 322.66 284.248C317.378 294.812 311.617 305.855 301.053 315.458C288.57 326.982 273.685 335.144 257.84 338.505C250.638 340.426 243.436 341.386 235.753 341.386ZM217.027 15.8451C211.266 15.8451 205.504 16.3252 200.222 16.8054C181.976 19.2061 164.691 22.0871 148.846 25.9282C129.64 30.7297 113.315 36.4915 99.3909 44.654C82.5856 54.257 69.1415 66.7409 60.4988 80.6652C48.9752 98.9108 45.6142 118.117 41.773 138.763C40.8127 143.565 39.8524 148.366 38.8921 153.648C38.412 156.049 37.9318 158.449 37.4516 160.37C36.0112 167.572 34.5708 174.774 33.1303 181.977C31.2097 194.941 31.6899 206.944 34.5708 217.508C36.4914 224.71 39.8524 231.432 44.1737 238.154C48.9752 245.836 54.2569 252.558 60.0187 259.281C62.4194 262.161 64.34 264.562 67.2209 267.443C71.0621 271.764 74.9033 276.086 78.7445 280.887C80.6651 283.288 82.5857 285.689 84.5062 288.09C87.3871 291.931 90.7482 295.772 93.6291 299.613C110.434 319.299 135.402 325.541 159.89 329.863C163.251 330.343 166.612 330.823 169.973 331.303C171.893 331.783 173.814 331.783 175.735 332.263C184.857 333.704 193.98 335.144 202.623 336.585H203.583C205.504 337.065 207.424 337.065 209.345 337.545C214.627 338.505 219.428 339.466 224.71 339.946C235.753 340.906 247.277 340.426 257.84 338.025C273.685 334.664 288.57 326.982 300.573 315.458C310.656 305.855 316.898 294.812 321.7 284.248C325.541 276.566 330.342 269.364 335.144 262.161C337.545 258.32 340.426 253.999 343.306 250.158C354.35 232.392 359.632 210.305 358.191 189.659C357.711 184.857 357.231 180.056 356.271 175.255C355.79 171.893 354.83 168.052 354.83 164.691C351.469 136.843 347.628 105.153 331.783 79.2247C318.819 57.618 298.653 39.8525 274.645 29.2893C255.919 20.1664 236.713 15.8451 217.027 15.8451Z" fill="white" fill-opacity="0.37"/>
<path d="M239.594 335.144C234.793 335.144 230.471 334.664 225.67 334.183C220.868 333.703 216.547 332.743 211.746 331.302C209.825 330.822 207.424 330.342 205.024 329.862C197.821 328.422 187.738 326.501 177.655 325.061C175.254 324.58 172.854 324.58 169.973 324.1C167.092 323.62 164.691 323.62 161.81 323.14C138.763 319.779 112.835 314.017 96.0297 294.331C93.629 291.45 91.2282 288.089 88.8275 285.208C86.4267 282.327 84.5061 279.446 82.1054 276.566C77.7841 271.284 72.9826 266.002 68.6612 261.201C67.2208 259.28 65.3002 257.84 63.8597 255.919C58.0979 249.197 52.3362 242.955 47.5347 235.753C42.7332 229.031 39.8523 222.309 37.4515 215.587C34.5706 205.023 34.0905 193.5 36.4913 180.056C37.4515 173.814 38.892 168.052 40.3325 162.29C41.2928 158.929 41.7729 155.568 42.7332 152.207C44.1736 145.485 45.1339 139.243 46.0942 133.001C49.4553 114.275 52.3362 96.5097 62.4193 80.1846C71.062 66.2603 84.026 54.2566 100.831 45.1338C114.275 37.9315 129.64 32.1697 149.806 27.8484C164.211 24.4873 181.016 21.6065 200.222 18.7256C224.71 14.8844 249.197 18.2454 273.205 28.8087C296.732 38.8918 316.418 56.1772 328.902 77.3037C342.346 99.8707 346.187 125.319 350.028 152.687C350.509 155.088 350.989 157.969 350.989 160.369C351.469 164.211 352.429 168.052 352.909 171.893C353.87 176.214 354.83 180.536 355.31 184.857C357.711 205.503 352.429 227.59 341.386 245.356C338.985 248.717 336.584 252.558 334.664 255.439C329.382 263.602 324.1 270.804 320.739 279.446C315.458 290.97 310.656 301.533 301.053 311.136C289.05 323.14 274.165 330.822 258.32 334.183C252.558 334.664 246.316 335.144 239.594 335.144ZM219.908 17.7653C213.666 17.7653 207.424 18.2454 201.182 19.2057C181.976 22.0866 165.651 24.9675 150.767 28.3285C131.081 32.6499 115.716 38.4116 102.272 45.6139C85.4664 54.7367 72.5024 66.7404 63.8597 80.6647C53.7766 96.9898 50.8957 114.755 47.5347 133.481C46.5744 139.723 45.6141 145.965 44.1736 152.687C43.6935 156.048 42.7332 159.409 41.7729 162.77C40.3324 168.532 38.892 174.774 37.9317 180.536C35.531 193.5 36.0111 205.023 38.892 215.587C40.8126 222.309 44.1736 229.031 48.495 235.753C53.2965 242.475 58.5781 249.197 64.3399 255.919C65.7803 257.84 67.2208 259.28 69.1414 261.201C73.4627 266.002 78.2642 271.284 82.5855 276.566C84.9863 279.446 87.387 282.327 89.3076 285.208C91.7084 288.089 94.1091 291.45 96.5099 294.331C112.835 314.017 138.283 319.299 161.33 323.14C164.211 323.62 166.612 324.1 169.492 324.1C171.893 324.58 174.294 324.58 177.175 325.061C187.258 326.501 196.861 328.422 204.543 329.862C206.944 330.342 208.865 330.822 211.265 331.302C216.067 332.263 220.388 333.223 225.19 333.703C236.233 335.144 247.277 334.664 257.84 332.743C273.685 329.862 288.089 321.7 300.093 310.176C309.696 300.573 314.497 290.49 319.779 278.966C323.62 270.324 328.422 263.121 334.184 254.959C336.584 251.598 338.505 248.237 340.906 244.876C351.949 227.11 357.231 205.503 354.83 184.857C354.35 180.536 353.39 176.214 352.429 171.893C351.469 168.052 350.989 164.211 350.028 160.369C349.548 157.969 349.068 155.088 349.068 152.687C345.227 125.799 341.386 99.8708 328.422 77.7839C315.938 57.1375 296.252 39.8521 273.205 29.769C255.919 21.6065 237.674 17.7653 219.908 17.7653Z" fill="white" fill-opacity="0.37"/>
<path d="M243.435 329.382C238.154 329.382 232.392 328.902 226.63 327.942C222.309 326.982 218.468 326.021 214.146 325.061C211.746 324.581 209.345 323.621 206.944 323.14C196.861 320.74 188.218 319.299 180.536 317.859C177.655 317.379 174.774 316.898 171.893 316.898C169.493 316.418 167.572 316.418 165.171 315.938C140.204 312.577 116.196 308.256 100.831 288.57C98.9107 286.169 96.9901 283.288 95.0695 280.887C92.6687 277.526 90.268 274.165 87.3871 270.804C82.5856 265.042 77.304 259.281 72.0224 253.999C71.0621 253.039 70.1018 252.078 69.1415 251.118C62.8995 244.876 57.6179 238.634 52.8164 232.392C48.0149 226.15 44.6539 219.908 42.7333 212.706C39.8524 202.623 39.3722 191.1 41.773 178.135C42.7333 173.334 44.1737 168.052 45.134 163.251C46.0943 159.41 47.0546 155.088 48.0149 151.247C49.4554 143.565 50.8958 136.363 51.8561 129.16C54.2568 111.875 56.6576 96.0301 66.2606 80.1851C76.3437 62.8998 92.6688 51.8563 104.192 45.6144C117.156 38.8923 132.041 33.6107 152.207 29.2893C167.572 25.9283 183.897 23.0474 199.742 20.6466L201.663 20.1665C225.19 15.8452 248.717 18.726 271.764 28.8092C294.331 38.4121 313.537 54.7373 326.021 75.3837C337.545 95.0698 340.906 117.157 344.747 140.684C345.707 145.485 346.187 150.287 347.148 155.568C347.628 159.89 349.068 163.731 350.029 167.572C350.989 171.894 351.949 175.735 352.909 179.576C355.79 199.742 350.989 221.829 339.945 239.595C338.025 242.956 335.624 245.836 333.703 248.717C327.942 256.88 323.14 264.562 319.299 273.685C314.978 284.728 311.136 295.292 301.533 305.375C290.01 317.379 275.605 325.541 259.28 327.942C253.999 328.902 248.717 329.382 243.435 329.382ZM222.789 19.6864C216.067 19.6864 208.865 20.1665 202.143 21.6069L200.222 22.0871C184.377 24.968 168.052 27.8489 152.687 30.7298C132.521 35.0511 117.636 39.8526 104.672 46.5747C93.1489 52.8167 77.304 63.3799 67.2209 80.6652C58.098 96.03 55.6973 112.355 53.2966 129.16C52.3363 136.363 51.3759 143.565 49.4553 151.247C48.4951 155.568 47.5348 159.41 46.5745 163.251C45.6142 168.052 44.1737 173.334 43.2134 178.135C40.8127 190.619 40.8127 202.143 43.6936 212.226C45.6142 218.948 48.9752 225.19 53.7767 231.432C58.5782 237.674 63.8598 243.916 70.1018 250.158C71.0621 251.118 72.0224 252.078 72.9826 253.039C78.2643 258.32 83.5459 263.602 88.3474 269.844C91.2283 273.205 93.6291 276.566 96.0298 279.927C97.9504 282.328 99.871 285.209 101.792 287.609C116.676 306.815 140.204 311.137 165.171 314.498C167.572 314.978 169.493 314.978 171.893 315.458C174.774 315.938 177.655 315.938 180.536 316.418C188.218 317.379 197.341 319.299 206.944 321.7C209.345 322.18 211.746 323.14 214.146 323.621C218.468 324.581 222.309 326.021 226.63 326.501C237.674 328.422 248.237 328.422 258.8 326.501C274.645 323.621 289.05 315.938 300.573 303.935C309.696 294.332 314.017 283.768 318.339 272.725C321.7 263.602 326.981 255.92 332.743 247.757C334.664 244.876 336.584 241.995 338.985 238.634C350.029 221.349 354.83 199.262 351.949 179.576C351.469 175.735 350.509 171.894 349.548 167.572C348.588 163.731 347.628 159.89 346.668 155.568C345.707 150.767 345.227 145.485 344.267 140.684C340.906 117.157 337.545 95.0698 325.541 75.3837C313.537 55.2174 294.331 38.8923 271.764 29.2893C255.439 23.0474 239.114 19.6864 222.789 19.6864Z" fill="white" fill-opacity="0.37"/>
<path d="M246.797 323.62C240.555 323.62 234.313 323.14 228.071 321.7C224.23 320.74 220.388 319.779 216.547 318.339C214.146 317.379 211.266 316.898 208.865 315.938C199.262 313.537 191.099 311.617 182.937 310.656C179.576 310.176 176.215 309.696 173.334 309.696C171.413 309.696 169.973 309.216 168.052 309.216C146.926 306.815 120.517 303.934 105.153 283.288C103.712 280.887 101.792 278.967 100.351 276.566C97.9504 272.725 95.0695 269.364 92.1886 265.522C86.907 258.8 81.1452 253.519 75.3834 247.757L73.943 246.797C67.2209 240.555 61.9393 234.793 57.1378 229.031C52.3363 222.789 48.9752 217.027 46.5745 210.305C43.6936 200.702 43.2135 189.179 46.0943 176.695C47.0546 172.374 48.0149 168.052 49.4554 164.211C50.4157 159.89 51.8561 155.088 52.8164 150.287C54.737 142.124 55.6973 133.962 56.6576 126.279C58.5782 110.434 60.4988 95.5497 69.1415 80.6651C78.7445 63.3797 95.0695 53.2966 106.593 47.0547C122.438 38.8922 139.723 35.051 154.128 32.1701C161.33 30.7297 168.532 29.2892 175.735 28.3289C184.377 26.8885 193.98 24.9678 202.623 23.0472C225.19 18.7259 248.237 20.6465 270.324 29.7694C292.411 38.8922 311.137 54.7371 322.66 73.9431C332.743 91.7086 336.104 110.914 339.465 132.041C340.426 138.283 341.386 145.005 342.826 151.727C343.787 156.048 344.747 159.89 346.187 163.731C347.148 167.572 348.588 170.933 349.068 174.774C352.91 194.46 348.588 216.547 337.065 233.833C335.144 236.714 333.223 239.114 331.783 241.995C326.021 250.158 320.74 258.32 317.378 267.443L316.898 268.883C313.537 279.447 310.176 290.01 301.534 299.613C290.49 311.617 276.086 319.779 260.241 322.18C255.439 323.14 251.118 323.62 246.797 323.62ZM225.19 21.6068C217.508 21.6068 210.305 22.5671 202.623 24.0075C193.98 25.9281 184.857 27.3686 175.735 29.2892C168.532 30.7296 161.33 32.1701 154.128 33.1304C139.723 36.0113 122.918 39.8524 107.073 48.015C95.5497 53.7768 79.7048 64.3401 70.1018 81.1453C61.9393 95.5498 60.0187 110.434 58.0981 126.279C57.1378 133.962 56.1775 142.124 54.2569 150.767C53.2966 155.568 51.8561 159.89 50.8958 164.691C49.9355 169.012 48.4951 173.334 47.5348 177.175C44.6539 189.659 44.6539 200.702 48.015 210.305C49.9355 216.547 53.2966 222.789 58.0981 228.551C62.8996 234.313 68.1812 240.075 74.4231 246.316L75.8636 247.277C81.6254 252.558 87.3871 258.32 92.6688 265.042C95.5497 268.884 98.4306 272.244 100.831 276.086C102.272 278.486 104.192 280.407 105.633 282.808C120.517 302.974 145.485 305.855 167.572 308.256C169.493 308.256 170.933 308.736 172.854 308.736C176.215 309.216 179.096 309.216 182.457 309.696C190.139 310.656 198.782 312.577 208.385 314.978C210.785 315.458 213.666 316.418 216.067 317.379C219.908 318.819 223.749 319.779 227.591 320.74C238.154 323.14 248.717 323.14 259.28 321.7C274.645 319.299 289.53 311.137 300.093 299.133C308.736 289.53 312.097 279.447 315.458 268.883L315.938 267.443C318.819 257.84 324.581 250.158 330.342 241.515C332.263 239.114 333.704 236.233 335.624 233.352C346.668 216.067 350.989 194.46 347.148 174.774C346.187 170.933 345.227 167.572 344.267 163.731C343.307 159.89 341.866 156.048 340.906 151.727C339.465 145.005 338.505 138.763 337.545 132.041C334.184 111.395 331.303 91.7085 321.22 74.4232C309.696 54.7371 291.45 39.3723 269.364 30.2495C255.439 24.4877 240.075 21.6068 225.19 21.6068Z" fill="white" fill-opacity="0.37"/>
<path d="M249.677 317.859C242.955 317.859 235.753 316.898 229.031 314.978C225.19 314.017 221.829 312.577 217.988 311.617C215.587 310.656 212.706 309.696 209.825 308.736C200.702 305.855 192.54 303.934 184.857 302.974C181.496 302.494 178.135 302.014 174.774 302.014C173.334 302.014 171.893 302.014 170.453 301.534H169.012C147.406 299.613 122.918 297.212 108.994 277.526C107.553 275.605 106.113 273.685 105.153 271.764C102.752 267.923 99.871 264.082 96.9901 260.241C91.7085 253.519 84.9864 247.277 79.2246 242.475C72.5025 236.233 67.2209 230.952 62.4194 226.15C57.1378 220.388 53.7767 214.627 51.8561 208.385C48.9752 198.782 48.9752 187.738 51.8561 175.735C52.8164 171.893 53.7767 168.532 54.737 164.691C56.1775 159.89 57.6179 155.088 58.5782 149.807C60.4988 141.164 61.4591 132.521 62.4194 123.878C63.8598 108.994 65.3003 95.0695 72.9827 81.1452C80.1849 68.1812 93.1489 56.6576 109.954 48.4951C125.319 41.2928 141.644 37.4516 156.529 35.0509L162.29 34.0906C176.215 31.6899 190.139 28.809 203.583 25.9281C225.19 21.1266 247.277 22.567 268.883 31.2097C290.49 39.3722 308.736 54.737 319.779 73.4628C328.902 89.3077 331.783 106.593 334.664 125.319C335.624 133.001 337.065 140.684 338.505 148.366C339.465 152.687 340.906 156.529 342.346 160.37C343.787 163.731 344.747 167.092 345.707 170.933C350.029 190.139 346.187 212.706 335.144 229.511C333.703 231.912 331.783 234.313 330.342 236.713C324.101 245.356 318.819 253.039 316.418 263.122L315.938 265.522C313.057 276.086 310.656 285.689 302.494 295.292C291.931 307.775 277.526 315.458 261.681 317.859C256.88 317.379 253.039 317.859 249.677 317.859ZM227.591 23.5273C219.428 23.5273 211.266 24.4876 203.583 26.4082C190.139 29.2891 175.735 32.17 162.29 34.5708L156.529 35.5311C141.164 38.412 125.319 41.773 109.954 48.9752C93.6291 56.6576 80.665 68.1812 73.4628 81.1452C65.7804 95.0695 64.34 108.994 62.8995 123.878C61.9392 132.041 61.4591 140.684 59.0583 149.807C58.098 155.088 56.6576 159.89 55.2172 164.691C54.2569 168.052 53.2966 171.893 52.3363 175.735C49.4554 187.738 48.9752 198.782 52.3363 207.905C54.2569 214.146 57.6179 219.908 62.8995 225.67C67.701 230.952 72.5025 235.753 79.7048 241.995C85.4665 247.277 92.1886 253.039 97.4702 260.241C100.351 264.082 103.232 267.923 105.633 271.764C107.073 273.685 108.514 275.605 109.474 277.526C122.918 296.732 147.406 299.133 169.012 301.053H170.453C171.893 301.053 173.334 301.534 174.774 301.534C178.135 302.014 181.496 302.014 185.338 302.494C193.02 303.454 201.182 305.375 210.305 308.256C213.186 309.216 215.587 310.176 218.468 311.137C222.309 312.577 225.67 313.537 229.511 314.498C240.074 317.378 250.638 317.859 260.721 316.418C276.086 314.498 290.49 306.335 301.053 294.331C308.736 285.209 311.617 275.606 314.498 265.042L314.978 262.642C317.859 252.558 323.14 244.876 329.382 236.233C330.823 233.833 332.743 231.432 334.184 229.031C345.227 212.226 349.548 190.139 344.747 170.933C343.787 167.572 342.826 164.211 341.386 160.37C339.945 156.529 338.505 152.207 337.545 147.886C336.104 140.203 334.664 132.521 333.703 124.839C330.823 106.593 327.942 88.8276 319.299 73.4628C308.256 54.737 290.49 39.8524 268.883 31.6899C254.959 25.9281 241.515 23.5273 227.591 23.5273Z" fill="white" fill-opacity="0.37"/>
<path d="M252.558 312.097C244.876 312.097 237.194 311.136 229.991 308.736C226.63 307.775 223.269 306.335 219.908 304.894C217.508 303.934 214.627 302.974 211.746 302.013C203.103 299.133 194.941 297.212 187.258 296.252C183.417 295.772 180.056 295.771 176.215 295.291C175.254 295.291 173.814 295.291 172.854 295.291H169.973C149.326 293.851 125.799 292.41 113.315 273.205C112.355 271.284 110.915 269.843 109.954 267.923C107.553 264.082 104.673 259.76 101.792 255.919C96.51 249.197 90.2681 243.915 84.0262 238.634C77.7842 233.352 72.0225 228.551 66.7408 223.269C61.4592 217.987 58.0981 212.226 55.6974 205.984C52.8165 196.861 52.8165 185.817 56.1775 173.814C57.1378 170.453 58.0981 167.572 59.0584 164.211C60.4989 158.929 62.4195 154.128 63.3798 148.366C65.3004 139.243 66.2607 130.12 66.7408 121.477C67.7011 107.553 68.6614 94.109 75.8636 80.6648C83.0659 67.7008 95.5497 56.6574 111.875 48.975C127.24 42.2529 143.565 38.8919 157.969 36.4911C173.334 34.0904 189.179 31.2095 204.063 27.3683C224.71 22.0867 245.836 23.047 266.483 30.7293C287.609 38.4117 304.895 52.8162 315.458 71.0618C323.62 85.4663 326.021 101.311 328.422 118.116C329.862 126.279 330.823 134.922 332.743 143.084C333.704 147.405 335.624 151.247 337.065 155.568C338.505 158.929 339.465 162.29 340.426 165.651C345.707 184.377 341.866 206.464 330.823 223.749C329.382 226.15 327.942 228.07 326.501 230.471C320.259 239.114 314.978 246.796 312.577 256.879C312.097 258.32 312.097 259.28 311.617 260.721C309.696 270.804 307.295 280.407 300.093 289.53C290.01 302.013 275.606 310.176 259.761 312.097C258.32 311.616 255.439 312.097 252.558 312.097ZM230.472 25.4477C221.829 25.4477 213.186 26.408 205.024 28.8087C190.139 32.6499 173.814 35.5308 158.929 37.9316C144.525 40.3323 128.2 43.6933 112.835 50.4154C96.51 57.6176 84.0262 68.6611 76.8239 81.6251C69.6217 94.5891 68.6614 108.033 67.7011 121.958C67.221 130.6 66.7408 139.723 64.3401 148.846C62.8996 154.128 61.4592 159.409 59.5386 164.691C58.5783 167.572 57.618 170.933 56.6577 174.294C53.2966 186.298 53.2966 196.861 56.1775 205.504C58.0981 211.745 61.9393 217.027 66.7408 222.309C72.0225 227.59 77.3041 232.392 83.546 237.673C89.788 242.955 96.0299 248.237 101.312 254.959C104.192 258.8 107.073 263.121 109.474 266.963C110.434 268.883 111.875 270.324 112.835 272.244C125.319 290.97 148.366 292.891 169.013 294.331H171.893C172.854 294.331 174.294 294.331 175.254 294.331C178.616 294.331 182.457 294.811 186.298 295.291C193.98 296.252 202.143 298.172 210.785 301.053C213.666 302.013 216.547 302.974 218.948 303.934C222.309 305.375 225.67 306.815 229.031 307.775C239.114 310.656 249.678 311.616 259.761 310.656C275.125 308.736 289.05 301.053 299.133 288.569C306.335 279.446 308.256 270.324 310.656 260.241C311.137 258.8 311.137 257.84 311.617 256.399C314.017 246.316 319.299 238.634 325.541 229.511C326.981 227.59 328.422 225.19 329.862 222.789C340.906 205.984 344.747 184.377 339.465 165.651C338.505 162.29 337.065 158.929 336.104 156.048C334.664 152.207 332.743 147.886 331.783 143.564C329.862 134.922 328.422 126.759 326.982 118.597C324.581 101.791 322.18 86.4266 314.017 72.0221C303.454 53.7764 286.169 39.8522 265.522 32.1698C254.479 27.3683 242.475 25.4477 230.472 25.4477Z" fill="white" fill-opacity="0.37"/>
<path d="M254.959 306.335C246.797 306.335 238.634 304.895 230.952 302.014C227.591 301.054 224.23 299.613 221.349 298.173C218.948 297.212 216.067 295.772 213.186 294.812C205.024 291.451 196.861 289.53 189.659 288.57C185.818 288.09 181.977 288.09 178.616 287.609C177.655 287.609 176.695 287.609 175.735 287.609C174.294 287.609 172.854 287.609 171.413 287.609C151.727 286.649 129.16 285.689 117.156 266.963C116.196 265.523 115.236 263.602 114.276 262.162C111.875 257.84 109.474 253.999 106.113 249.678C100.831 242.956 94.1093 237.674 88.3475 233.353C83.0659 229.031 76.8239 224.71 71.0622 219.428C65.7805 214.627 61.9394 208.865 60.0188 203.103C57.1379 193.98 57.1378 183.897 60.979 171.894C61.9393 169.013 62.8996 166.612 63.8599 163.731C65.7805 158.449 67.7011 153.168 68.6614 147.406C71.0622 137.803 71.0622 128.68 71.5423 119.557C72.0225 106.113 72.5026 93.6292 79.2247 80.6652C85.9468 67.7012 98.4307 57.1379 114.756 49.9357C129.16 43.6938 144.525 41.293 160.37 38.8923C174.294 36.9717 190.619 34.0908 205.504 29.7695C225.67 24.0077 245.356 24.4878 265.522 31.2099C285.689 37.9319 302.974 51.8563 313.057 69.6218C320.259 82.5858 322.66 96.9903 324.581 112.355C326.021 120.998 326.982 130.121 329.382 138.763C330.343 143.085 332.263 146.926 334.184 150.767C335.624 153.648 337.065 157.009 338.025 160.37C344.267 178.616 340.426 201.183 329.382 217.508C327.942 219.428 326.501 221.829 325.061 223.75C318.819 232.392 313.537 240.075 311.617 250.638C311.137 252.078 311.137 253.519 311.137 254.959C309.696 264.562 308.256 274.165 301.534 283.288C291.931 296.252 277.526 303.935 262.161 305.855C259.281 306.335 257.36 306.335 254.959 306.335ZM232.872 26.8886C223.75 26.8886 214.627 28.329 205.504 30.7298C190.619 35.0511 174.294 37.932 160.37 39.8526C144.525 42.2533 129.64 45.1342 115.236 50.896C98.9108 57.6181 86.4269 68.6615 80.185 81.1454C73.4629 93.6293 72.9828 106.113 72.5026 119.557C72.0225 128.68 72.0225 137.803 69.6217 147.406C68.1813 153.168 66.2607 158.449 64.3401 163.731C63.3798 166.612 62.4195 169.013 61.4592 171.894C57.618 183.417 57.618 193.98 60.4989 202.623C62.4195 208.385 66.2607 213.666 71.5423 218.468C77.3041 223.75 83.546 228.551 88.8277 232.392C94.5895 236.714 101.312 241.995 106.593 248.717C109.474 252.559 112.355 256.88 114.756 261.201C115.716 262.642 116.676 264.562 117.637 266.003C129.16 284.729 151.247 285.689 170.933 286.169C172.374 286.169 173.814 286.169 175.254 286.169C176.215 286.169 177.175 286.169 178.135 286.169C181.977 286.169 185.818 286.649 189.659 287.129C197.341 288.09 205.024 290.01 213.666 293.371C216.547 294.332 219.428 295.772 221.829 296.732C225.19 298.173 228.071 299.613 231.432 300.573C241.515 303.934 251.598 305.375 261.681 304.415C277.046 302.974 290.97 295.292 300.573 282.328C307.295 273.205 308.736 264.082 310.176 254.479C310.176 253.039 310.656 251.598 310.656 250.158C312.577 239.595 317.859 231.912 324.101 222.789C325.541 220.869 326.982 218.948 328.422 216.547C339.465 200.222 342.826 178.135 337.065 159.89C336.104 156.529 334.664 153.648 333.223 150.767C331.303 146.926 329.862 143.085 328.422 138.283C326.021 129.16 324.581 120.518 323.62 111.395C321.7 96.5102 319.299 82.1057 312.097 69.1417C302.494 51.8563 285.209 37.9319 265.042 31.2099C253.999 28.8091 243.436 26.8886 232.872 26.8886Z" fill="white" fill-opacity="0.37"/>
<path d="M256.88 300.573C248.237 300.573 240.074 299.133 231.912 295.772C228.551 294.331 225.67 292.891 222.789 291.451C220.388 290.01 217.507 288.57 214.627 287.609C206.464 284.248 198.782 282.328 191.579 281.367C187.738 280.887 183.897 280.887 180.056 280.887H178.135C176.215 280.887 174.294 280.887 172.854 280.887C153.648 280.407 132.041 280.407 120.998 261.681C120.037 260.241 119.077 258.8 118.597 257.36C116.196 253.039 113.795 248.717 110.914 244.876C106.113 238.634 99.3908 233.352 93.629 229.511L91.7084 228.071C86.4268 224.23 81.1452 220.869 75.8635 216.547C70.1017 211.746 66.7407 206.944 64.34 201.182C60.9789 192.54 61.4591 182.457 65.7804 170.933C66.7407 168.532 67.701 166.132 68.6613 163.731C70.5819 158.449 72.9827 153.168 73.9429 147.406C76.3437 137.803 76.3437 128.2 76.3437 119.077C76.3437 106.593 76.3437 94.1093 82.5856 82.1056C91.2283 64.8202 108.034 56.1776 117.636 52.3364C132.041 46.5746 147.406 44.1738 162.29 42.2532C174.774 40.3326 191.579 37.9319 206.464 33.1304C225.67 26.8885 244.396 26.8885 264.082 33.1304C283.768 39.3723 300.573 52.8165 309.696 69.6217C316.418 81.6254 318.339 94.5894 319.779 108.514C321.22 117.637 322.18 126.759 325.061 135.882C326.501 140.204 328.422 144.045 330.342 147.886C331.783 150.767 333.223 153.648 334.664 157.009C341.386 174.774 338.505 197.341 326.981 213.666C325.541 215.587 324.101 217.508 323.14 219.428C316.898 228.071 311.137 235.753 310.176 246.316C310.176 248.237 309.696 249.678 309.696 251.598C308.736 260.721 307.775 270.324 301.534 279.447C291.931 292.411 278.486 300.573 262.641 301.534C260.241 300.573 258.8 300.573 256.88 300.573ZM235.273 28.3289C225.67 28.3289 216.067 29.7694 206.944 33.1304C192.06 37.9319 175.254 40.8128 162.771 42.2532C147.886 44.1738 132.521 46.5746 118.117 52.3364C108.994 56.1776 92.1886 64.8202 83.5459 81.6254C77.304 93.6291 77.304 105.633 77.304 118.117C77.304 127.24 77.304 136.843 74.9032 146.445C73.4628 152.207 71.5422 157.489 69.1415 162.771C68.1812 165.171 67.2208 167.572 66.2605 169.973C62.4193 181.496 61.9392 191.099 64.8201 199.742C66.7407 205.504 70.5819 210.305 75.8635 215.107C80.665 219.428 85.9467 222.789 91.7084 226.63L93.629 228.071C99.3908 232.392 106.113 237.194 111.395 243.916C114.275 247.757 116.676 252.078 119.077 256.4C120.037 257.84 120.517 259.28 121.478 260.721C132.041 278.967 153.648 279.447 172.373 279.447C174.294 279.447 176.215 279.447 177.655 279.447H179.576C183.417 279.447 187.258 279.447 191.099 279.927C198.301 280.887 205.984 282.808 214.146 286.169C217.027 287.609 219.908 288.57 222.309 290.01C225.19 291.45 228.551 292.891 231.432 294.331C241.035 298.173 251.598 299.613 261.201 299.133C276.566 297.692 290.01 290.01 299.133 277.046C305.375 268.403 306.335 258.8 307.295 249.677C307.295 247.757 307.775 246.316 307.775 244.396C309.216 233.352 314.498 225.67 320.739 217.027C322.18 215.107 323.62 213.186 324.581 211.266C335.624 194.941 338.985 172.854 332.263 155.568C331.303 152.687 329.862 149.807 327.942 146.926C326.021 143.084 324.101 139.243 322.66 134.922C319.779 125.799 318.819 116.196 317.378 107.073C315.458 93.149 314.017 80.185 307.295 68.6614C298.172 51.8562 281.847 38.8922 262.161 32.6502C253.999 30.2495 244.396 28.3289 235.273 28.3289Z" fill="white" fill-opacity="0.37"/>
<path d="M259.28 295.292C250.638 295.292 241.515 293.371 232.872 289.53C229.991 288.089 227.11 286.649 224.229 284.728C221.829 283.288 218.948 281.847 216.067 280.407C208.385 277.046 200.702 274.645 193.98 273.685C190.139 273.205 185.818 273.205 181.976 273.205H180.536C178.615 273.205 176.215 273.205 174.294 273.205C156.048 273.685 134.922 273.685 124.839 255.439C123.878 253.999 123.398 252.558 122.438 251.118C120.037 246.797 118.117 242.475 114.755 238.634C109.954 232.392 103.232 227.591 97.4701 223.749C96.0296 222.789 95.0694 222.309 93.6289 221.349C88.8274 218.468 84.0259 215.587 79.7046 211.746C73.9428 207.424 70.1016 202.623 68.181 196.861C64.82 188.699 65.7803 178.615 70.1016 167.572C71.0619 165.651 72.0222 163.251 72.5024 161.33C74.9031 156.048 76.8237 150.287 78.2641 144.525C80.6649 134.922 80.1847 125.319 80.1847 116.196C79.7046 104.192 79.2244 92.6688 84.9862 80.665C90.748 68.1812 103.712 57.6179 119.557 51.8561C133.001 46.5745 146.925 45.134 161.81 43.2134H163.251C174.774 41.773 191.579 39.3723 206.464 34.0906C224.71 27.3685 242.475 26.8884 261.201 32.17C280.407 37.9318 296.252 50.4157 305.375 66.2606C311.617 77.304 313.057 89.3077 314.497 102.272C315.458 111.395 316.898 120.998 319.779 130.12C321.22 134.442 323.62 138.283 325.541 142.124C326.981 145.005 328.902 147.886 329.862 150.767C337.545 168.052 334.664 190.619 323.14 206.944C321.7 208.865 320.739 210.785 319.299 212.226C312.577 221.349 307.295 228.551 306.815 239.114C306.815 241.035 306.815 242.955 306.335 244.876C305.855 253.999 305.855 263.122 299.613 272.244C290.49 285.209 276.566 293.371 261.201 294.331C261.681 295.292 260.241 295.292 259.28 295.292ZM184.377 272.725C187.738 272.725 190.619 272.725 193.98 273.205C201.182 274.165 208.865 276.086 216.547 279.927C219.428 281.367 222.309 282.808 224.71 284.248C227.59 285.689 230.471 287.609 233.352 288.57C242.955 292.891 253.038 294.812 262.641 294.331C277.526 293.371 291.45 285.689 300.093 272.725C305.855 264.082 306.335 254.959 306.815 245.836C306.815 243.916 306.815 241.995 307.295 240.074C307.775 229.031 313.537 221.349 319.779 212.706C321.22 210.785 322.18 209.345 323.62 207.424C334.664 191.579 337.545 169.493 329.862 152.207C328.422 149.326 326.981 146.445 325.541 143.565C323.14 139.723 321.22 135.882 319.779 131.561C316.898 122.438 315.458 112.835 314.497 103.232C313.057 90.7482 311.617 78.7445 305.375 67.701C296.732 51.8561 280.887 39.3723 262.161 34.0906C243.435 28.809 225.67 29.2891 207.904 36.0112C193.02 41.2928 176.215 43.6936 164.691 45.1341H163.251C148.366 47.0546 134.442 48.4951 120.997 53.7767C105.152 59.5385 92.6686 70.1018 86.9068 82.1055C81.145 93.6291 81.6252 105.153 82.1053 117.156C82.5855 126.279 82.5855 135.882 80.1847 145.965C78.7443 151.727 76.3436 157.489 73.9428 162.771C72.9825 164.691 72.0222 167.092 71.5421 169.012C67.2207 180.056 66.7406 189.659 69.6215 197.821C71.5421 203.103 75.3833 207.905 81.1451 212.226C85.4664 215.587 90.2679 218.468 95.0693 221.349C96.0296 222.309 97.4701 222.789 98.9105 223.749C104.672 227.591 111.394 231.912 116.676 238.634C119.557 242.475 121.958 247.277 124.358 251.118C125.319 252.558 125.799 253.999 126.759 255.439C136.362 273.205 157.009 273.205 175.254 272.725C177.175 272.725 179.576 272.725 181.496 272.725H182.937C182.937 272.725 183.417 272.725 184.377 272.725Z" fill="white" fill-opacity="0.37"/>
<path d="M261.201 289.53C252.078 289.53 242.955 287.129 234.313 282.808C231.432 281.367 228.551 279.447 225.67 278.006C223.269 276.566 220.388 274.645 217.507 273.205C210.305 269.364 203.103 266.963 195.901 266.483C192.059 266.003 187.738 266.003 183.897 266.483H182.937C180.536 266.483 178.615 266.483 176.215 266.963C158.449 267.923 137.803 268.884 128.68 250.638C128.2 249.197 127.239 247.757 126.759 246.797C124.839 242.475 122.438 238.154 119.557 234.313C114.755 228.071 108.033 223.269 102.272 220.389C100.831 219.428 98.9106 218.468 97.4701 217.508C93.1488 215.107 88.8274 212.706 84.5061 209.825C78.7443 205.984 74.9031 201.183 72.5024 195.901C69.1413 187.738 70.1016 178.135 74.9031 167.092C75.8634 165.171 76.8237 163.251 77.3039 161.33C79.7046 156.049 82.1054 150.767 83.5458 144.525C85.9466 134.922 85.4664 125.319 84.5061 116.196C83.5458 104.673 83.0657 93.6292 88.3473 81.6254C94.1091 69.6217 106.593 59.0585 122.438 53.7769C134.922 49.4555 147.886 48.0151 161.81 46.5746L165.651 46.0944C176.695 45.1341 193.5 42.7334 207.904 36.9716C225.19 29.7694 242.475 28.8091 260.241 33.6105C278.966 38.412 294.331 50.4158 302.494 65.7806C307.775 76.3439 309.216 86.9071 310.176 98.9108C311.136 108.034 312.097 117.637 315.458 126.759C316.898 131.081 319.299 134.922 321.7 138.283C323.14 140.684 325.061 143.565 326.501 146.446C334.664 163.251 332.743 185.818 321.22 201.663C319.779 203.583 318.819 205.024 317.378 206.464C310.656 215.587 305.375 222.309 305.375 233.833C305.375 235.753 305.375 238.154 305.375 240.075C305.375 249.197 305.855 258.32 300.093 267.443C291.45 280.887 278.006 289.05 262.641 289.53C262.641 289.53 261.681 289.53 261.201 289.53ZM189.659 265.522C192.059 265.522 193.98 265.522 196.381 266.003C203.103 266.963 210.785 268.884 217.988 273.205C220.868 274.645 223.269 276.566 226.15 278.006C229.031 279.447 231.432 281.367 234.313 282.808C243.435 287.609 253.518 289.53 263.121 289.05C278.006 288.57 291.45 280.407 300.093 267.443C305.375 258.8 305.375 249.678 304.894 241.035C304.894 239.114 304.894 236.714 304.894 234.793C304.894 223.269 310.176 216.067 317.378 206.944C318.339 205.504 319.779 203.583 321.22 202.143C332.743 186.298 334.664 164.211 326.501 147.886C325.061 145.005 323.62 142.604 321.7 139.723C319.299 135.882 316.898 132.041 315.458 127.72C312.097 118.597 311.136 108.994 310.176 99.391C308.736 87.8674 307.775 76.824 302.494 66.7409C294.331 51.3761 278.966 39.8525 260.721 35.051C242.955 30.2495 226.15 31.6899 208.865 38.412C194.46 44.1738 177.655 46.5746 166.612 47.5349L162.77 48.015C148.846 49.4555 136.362 50.8959 123.398 55.2172C107.553 60.4989 95.5495 70.5821 89.7877 82.5858C84.5061 94.1094 85.4664 105.153 85.9466 116.676C86.4267 125.799 87.387 135.402 84.5061 145.485C83.0657 151.247 80.6649 157.009 78.2641 162.29C77.3039 164.211 76.3436 166.132 75.8634 168.052C71.5421 178.616 70.5818 188.218 73.4627 195.901C75.3833 201.183 79.2245 205.504 84.9862 209.345C89.3076 212.226 93.6289 214.627 97.9503 217.027C99.3907 217.988 101.311 218.948 102.752 219.908C108.514 223.269 115.236 227.591 120.037 233.833C122.918 237.674 125.319 242.475 127.239 246.317C127.72 247.757 128.68 249.197 129.16 250.158C138.283 267.923 157.969 266.963 175.734 266.003C178.135 266.003 180.536 266.003 182.456 265.522H183.417C185.818 265.522 187.738 265.522 189.659 265.522Z" fill="white" fill-opacity="0.37"/>
<path d="M262.642 284.248C253.039 284.248 243.436 281.847 234.793 276.566C231.912 275.125 229.511 273.205 226.63 271.284C224.23 269.364 221.349 267.923 218.948 266.003C211.746 262.161 205.024 259.761 198.302 258.8C194.46 258.32 190.139 258.8 186.298 258.8H185.818C183.417 258.8 181.016 259.28 178.615 259.28C161.33 260.721 141.644 262.161 133.001 244.396C132.521 242.955 132.041 241.995 131.081 240.555C129.16 236.233 127.24 231.912 124.359 228.071C119.557 221.349 112.355 217.508 107.073 215.107C105.153 214.146 103.232 213.186 101.311 212.226C96.9901 210.305 93.149 208.385 88.8276 205.984C82.5857 202.143 78.7445 197.821 76.8239 193.02C73.4628 185.338 74.4231 175.735 79.7048 165.171C80.6651 163.251 81.1452 161.81 82.1055 159.89C84.5063 154.608 87.3872 149.326 88.8276 143.565C91.2284 133.962 90.2681 124.359 89.3078 115.236C87.8673 104.673 86.907 93.149 91.7085 82.1055C96.9901 70.1018 108.994 60.0187 124.839 55.2172C136.843 51.376 148.846 50.4157 161.81 49.4554C163.731 49.4554 165.651 48.9753 167.572 48.9753C184.857 47.5349 197.821 44.6539 208.385 39.8524C224.71 32.17 241.035 30.7296 258.32 34.5708C276.086 38.8922 291.45 49.9355 299.133 64.8202C303.934 74.4231 304.895 84.9864 305.855 95.0696C306.815 104.192 307.295 113.795 311.137 122.918C313.057 127.24 315.458 130.601 317.859 134.442C319.779 136.842 321.22 139.723 323.14 142.124C332.263 158.449 330.343 181.016 318.819 196.861C317.379 198.782 316.418 200.222 314.978 201.663C308.256 210.305 302.974 217.508 303.454 229.031C303.454 231.432 303.934 233.352 303.934 235.753C304.895 244.876 305.375 253.999 300.093 262.642C291.931 276.086 278.486 284.248 263.122 284.728C263.602 284.248 263.122 284.248 262.642 284.248ZM193.5 257.84C194.941 257.84 196.861 257.84 198.302 258.32C205.024 258.8 212.226 261.681 219.428 265.522C222.309 266.963 224.71 268.883 227.591 270.804C229.991 272.725 232.872 274.165 235.753 276.086C244.876 280.887 254.479 283.768 264.082 283.288C278.967 282.808 292.411 275.125 300.093 261.681C305.375 253.039 304.415 243.916 303.454 235.273C303.454 232.872 302.974 230.952 302.974 228.551C302.494 217.027 307.775 209.825 314.498 200.702C315.458 199.262 316.898 197.341 318.339 195.901C329.862 180.056 331.303 157.969 322.66 142.124C321.22 139.243 319.299 136.842 317.859 134.442C315.458 131.081 312.577 127.24 311.137 122.918C307.295 113.795 306.335 104.192 305.855 95.0696C304.895 84.5063 303.934 74.4231 299.133 64.8202C291.45 50.4157 276.566 39.3723 259.28 35.0509C242.475 31.2097 226.63 32.6502 210.305 40.3326C199.742 45.1341 186.298 48.015 169.012 49.4554C167.092 49.4554 165.171 49.9356 163.251 49.9356C150.287 50.8959 138.283 51.8562 126.759 55.6974C111.395 60.4988 99.3909 70.1018 94.1092 82.1055C89.3078 93.149 90.2681 103.712 91.7085 114.756C92.6688 123.879 93.6291 133.481 91.2284 143.565C89.7879 149.326 86.907 155.088 84.5063 160.37C83.546 162.29 82.5857 163.731 82.1055 165.651C77.304 175.735 76.3437 185.338 79.2246 192.54C81.1452 197.341 84.9864 201.663 91.2284 205.504C95.0696 207.905 99.3909 209.825 103.712 211.746C105.633 212.706 107.553 213.666 109.474 214.627C114.756 217.027 121.958 221.349 126.759 228.071C129.64 231.912 131.561 236.233 133.481 240.555C133.962 241.995 134.442 242.955 135.402 244.396C143.565 262.161 162.771 260.241 180.056 258.8C182.457 258.8 184.857 258.32 187.258 258.32H187.738C188.699 258.32 191.099 257.84 193.5 257.84Z" fill="white" fill-opacity="0.37"/>
<path d="M264.562 278.486C254.959 278.486 244.876 275.605 236.233 270.324C233.352 268.403 230.952 266.483 228.551 265.042C226.15 263.122 223.749 261.201 220.868 259.76C214.146 255.439 207.424 253.038 200.702 252.558C196.381 252.078 192.54 252.558 188.698 253.038C186.298 253.038 183.897 253.519 181.016 253.999C164.211 255.919 145.005 258.32 137.323 240.074C136.842 238.634 136.362 237.674 135.882 236.233C133.961 231.912 132.521 227.59 129.64 223.749C125.799 218.948 120.517 215.107 112.835 211.265C110.434 210.305 108.514 209.345 106.113 208.385C102.272 206.944 97.9503 205.023 94.1091 203.103C87.8672 199.742 84.026 195.901 81.6253 190.619C78.2642 183.417 79.2245 173.814 84.9863 163.731C85.9466 162.29 86.4268 160.85 87.3871 158.929C90.2679 153.648 93.1488 148.366 94.5893 142.604C97.4702 133.001 96.0297 123.398 94.5893 114.275C93.1488 103.712 91.2283 93.1488 96.0297 82.1054C100.831 70.1016 113.315 60.4987 128.68 56.1773C139.723 52.8163 151.247 52.3361 163.251 51.856C165.651 51.856 168.052 51.3759 170.933 51.3759C188.218 50.4156 200.702 47.5346 210.785 42.253C226.63 34.0905 241.995 31.6897 257.84 35.0507C275.125 38.4118 289.53 48.9751 296.732 63.3796C301.053 72.5024 302.014 82.1054 302.494 91.7083C302.974 100.831 303.934 110.434 307.775 119.077C309.696 123.398 312.577 126.759 314.978 130.12C316.898 132.521 318.819 134.922 320.259 137.803C329.862 153.648 328.422 176.215 316.898 192.059C315.458 193.5 314.497 195.42 313.537 196.861C306.815 205.504 301.533 212.226 302.494 223.749C302.494 226.15 302.974 228.551 303.454 230.952C304.895 239.594 305.855 248.717 301.053 257.84C292.891 270.804 279.927 278.486 264.562 278.486ZM196.861 250.638C198.301 250.638 199.742 250.638 200.702 250.638C207.424 251.118 214.146 253.999 220.868 258.32C223.749 260.241 226.15 262.161 228.551 263.602C230.952 265.522 233.352 267.443 236.233 268.883C244.876 274.165 254.479 277.046 264.082 277.046C278.966 277.046 291.93 269.363 299.613 255.439C304.414 246.796 302.974 237.674 302.014 229.031C301.533 226.63 301.533 224.229 301.053 221.829C300.093 209.825 305.375 203.103 312.097 193.98C313.057 192.54 314.498 191.099 315.458 189.179C326.981 173.814 328.422 151.727 318.819 135.882C317.378 133.481 315.458 130.6 313.537 128.68C310.656 125.319 307.775 121.478 305.855 117.156C302.014 108.033 301.053 98.4304 300.573 89.3076C300.093 79.7046 299.133 70.1016 294.811 61.4589C287.609 47.5346 273.685 37.4515 256.399 33.6103C240.555 30.2492 225.19 32.65 209.825 40.8125C199.742 46.0942 186.778 48.9751 169.493 49.9354C167.092 49.9354 164.691 50.4155 161.81 50.4155C149.806 50.8956 138.763 51.856 127.72 54.7369C112.355 59.0582 100.351 68.6612 95.5496 80.1848C90.7481 91.2282 92.6687 101.311 94.1091 111.875C95.5496 120.997 96.99 130.6 94.1091 140.684C92.6687 146.445 89.7878 151.727 86.9069 157.009C85.9466 158.449 85.4665 159.89 84.5062 161.81C79.2245 171.893 78.2642 181.016 81.6253 188.218C83.5459 193.02 87.8672 196.861 93.629 200.222C97.4702 202.143 101.311 204.063 105.633 205.504C107.553 206.464 109.954 207.424 112.355 208.385C120.517 211.746 125.799 216.067 129.64 220.868C132.521 224.71 134.442 229.031 135.882 233.352C136.362 234.793 136.842 235.753 137.323 237.193C144.525 254.479 163.731 252.558 180.056 250.638C182.937 250.158 185.337 250.157 187.738 249.677C191.099 251.118 193.98 250.638 196.861 250.638Z" fill="white" fill-opacity="0.37"/>
<path d="M266.003 273.204C265.522 273.204 265.522 273.204 265.042 273.204C255.439 273.204 245.836 269.843 237.194 264.082C234.793 262.161 231.912 260.24 229.511 258.32C227.111 256.399 224.71 254.479 221.829 252.558C215.107 248.237 208.865 245.356 202.623 244.876C198.302 244.396 193.98 244.876 190.619 245.356C188.218 245.836 185.338 245.836 182.457 246.316C166.612 248.717 147.406 252.078 140.204 233.832C139.723 232.872 139.243 231.432 138.763 229.991C137.323 225.67 135.882 221.348 133.001 217.507C129.64 212.706 123.878 208.865 116.196 205.984C113.795 205.023 111.395 204.543 108.994 203.583C105.153 202.142 101.311 201.182 97.4703 199.262C91.2284 196.381 86.907 192.539 84.5063 187.738C81.1453 180.536 82.5857 171.413 87.8673 161.33C88.8276 159.889 89.3078 158.449 90.2681 157.008C93.149 151.727 96.51 146.925 97.9505 141.164C100.831 131.561 98.9108 121.958 96.9902 112.835C95.0696 102.752 92.6688 92.1883 97.4703 81.625C102.272 70.1015 114.276 60.4985 129.64 56.6573C140.204 53.7764 151.247 53.7764 162.29 53.2963C165.171 53.2963 168.052 53.2963 170.933 52.8161C187.738 51.8558 200.222 48.9749 209.825 43.6933C225.19 35.0506 239.114 32.1697 254.479 35.0506C271.284 37.9315 285.209 47.5345 291.931 60.9787C295.772 69.1412 296.252 78.264 296.732 86.9067C297.212 96.0295 297.692 105.152 302.014 113.795C303.934 118.116 306.815 121.477 309.696 124.838C311.617 127.239 313.537 129.64 315.458 132.041C326.021 147.405 325.061 169.972 313.057 185.337C311.617 186.778 310.656 188.698 309.696 190.139C302.974 198.781 297.692 205.504 299.613 217.027C300.093 219.428 300.573 221.829 301.053 224.229C302.974 232.872 304.895 241.995 300.093 251.118C293.371 265.042 280.407 273.204 266.003 273.204ZM199.742 243.435C200.702 243.435 201.663 243.435 203.103 243.435C209.345 243.915 216.067 246.796 222.789 251.118C225.67 253.038 228.071 254.959 230.472 256.879C232.872 258.8 235.273 260.721 238.154 262.641C243.916 266.482 253.519 271.764 265.522 271.764C280.407 272.244 293.371 264.082 300.093 250.637C304.414 241.995 302.494 232.872 301.053 224.229C300.573 221.829 300.093 219.428 299.613 217.027C297.692 205.023 303.454 198.301 310.176 189.659C311.137 188.218 312.577 186.778 313.537 184.857C325.061 169.492 326.021 147.405 315.938 132.521C314.498 130.12 312.097 127.719 310.176 125.319C307.295 121.958 304.414 118.597 302.014 114.275C297.692 105.632 297.212 96.0296 296.732 87.3869C296.252 78.2641 295.772 69.6214 291.931 61.939C285.209 48.4948 271.764 38.8918 255.439 36.4911C240.555 34.0903 226.15 36.4911 211.266 45.1338C201.182 50.8956 188.699 53.7764 171.893 54.7367C169.012 54.7367 166.132 54.7367 163.251 55.2168C152.687 55.697 141.644 55.6971 131.081 58.5779C115.716 62.4191 104.192 71.5419 99.3909 83.0655C95.0696 93.6288 96.9902 103.232 99.3909 113.795C101.311 122.918 103.232 132.521 100.351 142.124C98.9108 147.886 95.5497 153.167 92.6688 158.449C91.7085 159.889 91.2284 161.33 90.2681 162.77C86.4269 169.492 82.5857 179.575 86.907 188.218C88.8276 193.02 93.149 196.381 99.3909 199.262C103.232 201.182 107.073 202.142 110.914 203.583C113.315 204.543 115.716 205.023 118.117 205.984C126.279 208.865 131.561 212.706 135.402 217.987C138.283 221.829 139.723 226.15 141.164 230.471C141.644 231.912 142.124 232.872 142.604 233.832C149.326 251.118 167.572 248.237 183.897 245.836C186.778 245.356 189.179 244.876 192.06 244.876C193.5 243.915 196.381 243.435 199.742 243.435Z" fill="white" fill-opacity="0.37"/>
<path d="M266.963 267.923C266.483 267.923 266.002 267.923 265.522 267.923C253.519 267.443 243.916 262.161 238.154 257.84C235.753 255.92 233.352 253.519 230.952 251.598C228.551 249.678 226.15 247.277 223.749 245.356C217.507 240.555 211.265 238.154 205.024 237.674C201.182 237.194 197.341 237.674 193.5 238.634C191.099 239.114 188.218 239.594 185.337 240.075C169.973 242.955 150.767 246.797 144.525 229.031C144.045 228.071 143.565 226.63 143.565 225.67C142.124 221.349 140.684 217.027 138.283 213.666C134.922 208.865 129.64 205.504 121.478 203.103C119.077 202.143 116.676 201.663 114.275 201.183C110.434 200.222 106.593 199.262 102.752 197.822C96.5099 195.421 92.1885 191.58 89.7878 187.258C86.4268 180.536 87.8672 171.413 93.629 161.81C94.5893 160.37 95.0695 159.41 96.0298 157.969C99.3908 153.168 102.272 147.886 104.192 142.124C107.073 132.521 104.672 123.398 102.752 114.276C100.351 104.673 97.9503 94.5894 101.792 84.0262C106.113 72.5026 118.117 63.3798 133.481 60.0187C143.564 57.618 154.128 57.618 164.211 57.618C167.572 57.618 170.933 57.618 174.294 57.618C191.099 57.1378 203.103 54.257 212.226 48.4952C226.63 39.3723 240.074 36.0113 254.479 37.9319C270.324 39.8525 283.768 49.4555 290.01 61.9394C293.851 69.6217 293.851 77.7843 293.851 85.9468C293.851 94.5895 294.331 103.712 298.653 111.875C301.053 115.716 303.934 119.077 306.815 122.438C308.736 124.839 311.136 126.759 313.057 129.16C324.1 144.045 323.62 166.612 312.097 181.977C310.656 183.417 309.696 184.857 308.736 186.298C302.014 194.941 296.732 201.183 299.133 213.186C299.613 215.587 300.093 217.988 301.053 220.869C303.454 229.511 305.855 238.634 301.533 247.757C293.851 259.761 281.847 267.923 266.963 267.923ZM202.623 236.233C203.583 236.233 204.543 236.233 205.024 236.233C211.265 236.714 217.507 239.594 223.749 244.396C226.15 246.317 228.551 248.717 230.952 250.638C233.352 252.558 235.753 254.959 238.154 256.88C243.916 261.201 253.519 266.483 265.042 266.963C279.927 267.443 292.411 259.761 299.133 245.836C303.454 237.194 301.053 228.071 298.653 219.908C298.172 217.508 297.212 214.627 296.732 212.226C294.331 200.222 299.613 193.5 306.815 184.857C307.775 183.417 309.216 181.977 310.176 180.536C321.7 165.652 322.18 143.084 311.136 128.68C309.216 126.279 307.295 123.879 305.375 121.958C302.494 118.597 299.133 115.236 296.732 110.915C291.93 102.272 291.93 93.6292 291.93 84.5063C291.93 76.3438 291.45 68.1813 288.089 60.9791C282.327 48.4952 268.883 39.3723 253.038 37.4517C239.114 35.5311 225.67 38.8922 211.746 48.015C202.143 53.7768 190.139 57.1378 173.334 57.618C169.973 57.618 166.612 57.618 163.251 57.618C153.167 57.618 142.604 57.618 132.521 60.0187C117.636 63.3798 105.633 72.5026 101.311 83.5461C97.4702 94.1093 99.8709 103.712 102.272 113.315C104.672 122.438 106.593 131.561 103.712 141.644C102.272 147.406 98.9107 152.687 95.5496 157.489C94.5893 158.929 94.1092 159.89 93.1489 161.33C87.3871 170.453 85.9466 179.576 89.3077 185.818C91.2283 190.139 95.5496 193.5 101.792 196.381C105.633 197.821 109.474 198.782 113.315 199.742C115.716 200.222 118.117 201.182 120.517 201.663C128.68 204.063 133.962 207.905 137.803 212.706C140.684 216.547 141.644 220.869 143.084 225.19C143.564 226.15 144.045 227.591 144.045 228.551C149.806 245.836 168.052 242.475 183.897 239.114C186.778 238.634 189.659 238.154 192.06 237.674C196.381 236.714 199.262 236.233 202.623 236.233Z" fill="white" fill-opacity="0.37"/>
<path d="M268.403 262.161C267.443 262.161 266.963 262.161 266.003 262.161C256.4 261.681 246.797 257.84 238.634 251.118C236.233 249.197 233.833 246.797 231.432 244.396C229.031 241.995 227.11 240.075 224.23 237.674C218.468 232.872 212.226 229.991 206.464 229.511C202.623 229.031 198.782 229.991 195.421 230.472C193.02 230.952 190.139 231.432 187.258 232.392C172.374 236.233 153.648 240.555 147.886 222.309C147.406 221.349 147.406 219.908 146.926 218.948C145.965 214.627 144.525 210.305 142.124 206.944C138.763 202.143 133.481 199.262 125.799 196.861C123.398 196.381 120.517 195.901 118.117 195.421C114.275 194.46 110.434 193.98 106.593 192.54C99.871 190.139 95.5497 186.778 93.149 182.457C89.7879 175.735 91.2283 167.092 97.4703 157.969C98.4306 157.009 98.9107 155.568 99.871 154.608C103.232 149.807 106.593 145.005 108.034 139.243C110.914 129.64 108.034 120.517 105.633 111.875C102.752 102.272 99.871 92.6689 103.712 82.1056C108.514 68.6614 122.918 60.979 134.922 59.0584C144.525 57.1378 154.608 57.1378 164.211 57.618C167.572 57.618 171.413 57.618 174.774 57.618C184.857 57.618 200.222 56.6577 211.746 48.4952C225.67 38.8922 237.674 35.051 251.118 36.0113C266.483 37.4517 279.447 46.0944 285.208 58.0981C288.57 65.3004 288.57 72.9828 288.57 80.185C288.57 88.3475 288.569 96.9902 292.891 105.153C295.292 108.994 298.653 112.355 301.534 115.236C303.934 117.156 305.855 119.557 307.775 121.958C319.299 136.362 319.299 158.929 307.775 174.294C306.335 175.735 305.375 177.175 304.414 178.616C297.692 187.258 292.411 193.5 295.292 205.024C295.772 207.424 296.732 210.305 297.692 212.706C300.573 221.349 303.454 230.472 299.613 239.594C294.331 254.479 282.808 262.161 268.403 262.161ZM205.024 229.031C205.504 229.031 206.464 229.031 206.944 229.031C213.186 229.511 218.948 232.392 225.19 237.194C227.591 239.114 229.991 241.515 232.392 243.916C234.793 246.316 236.713 248.237 239.594 250.638C247.757 257.36 256.88 261.201 266.003 261.681C280.887 262.642 293.371 254.479 299.613 240.555C303.454 231.912 300.573 222.789 297.692 214.627C296.732 211.746 295.772 209.345 295.292 206.944C292.411 194.46 297.692 188.219 304.414 179.576C305.375 178.135 306.815 176.695 307.775 175.254C319.299 160.37 319.299 138.283 307.775 124.359C305.855 121.958 303.454 120.037 301.534 117.637C298.172 114.276 294.811 111.395 292.411 107.073C287.609 98.9108 287.609 90.2681 287.609 81.6254C287.609 74.4232 287.609 66.7408 284.728 59.5386C279.447 47.5349 266.483 39.3723 251.598 37.9319C238.154 36.4915 226.15 40.3326 212.706 49.9356C201.182 58.0982 185.818 59.5386 175.254 59.5386C171.893 59.5386 168.052 59.5386 164.691 59.5386C155.088 59.0585 145.005 59.0585 135.882 60.9791C124.359 63.3798 110.434 70.582 105.633 83.546C101.792 93.6292 104.673 103.232 107.553 112.835C109.954 121.958 112.835 131.081 109.954 140.684C108.034 146.446 104.673 151.247 101.311 156.048C100.351 157.009 99.871 158.449 98.9107 159.41C92.6688 168.532 91.2283 176.695 94.5894 182.937C96.51 187.258 100.831 190.139 107.553 192.54C111.395 193.98 115.236 194.46 119.077 195.421C121.478 195.901 124.359 196.381 126.759 196.861C134.922 198.782 140.684 202.143 144.045 206.944C146.445 210.785 147.886 215.107 148.846 219.428C149.326 220.389 149.326 221.829 149.806 222.789C155.088 240.075 172.373 235.753 187.738 232.392C190.619 231.912 193.5 230.952 195.901 230.472C198.782 229.511 202.143 229.031 205.024 229.031Z" fill="white" fill-opacity="0.37"/>
<path d="M269.844 256.879C268.883 256.879 267.923 256.879 266.963 256.879C257.36 255.919 248.237 251.598 240.075 244.876C237.674 242.475 235.273 240.074 233.352 237.674C231.432 235.273 229.031 232.872 226.63 230.951C220.869 225.67 215.107 222.789 209.825 222.789C205.984 222.309 202.143 223.269 198.782 224.229C196.381 224.71 193.5 225.67 190.619 226.15C180.056 229.031 168.052 232.392 159.89 228.071C156.529 226.15 153.648 222.309 152.687 217.507C152.207 216.547 152.207 215.107 151.727 214.146C150.767 209.825 149.807 205.984 147.406 202.623C144.045 198.301 138.763 194.94 131.081 193.5C128.68 193.02 125.799 192.54 123.398 192.54C119.557 192.059 115.716 191.579 111.875 190.619C105.153 188.698 100.831 185.817 98.4306 181.496C95.0696 175.254 96.51 166.612 103.232 157.969C104.192 157.009 104.673 155.568 105.633 154.608C108.994 149.806 112.835 145.005 114.276 139.723C117.156 130.6 114.276 121.958 110.915 112.835C107.553 103.712 104.192 94.109 108.034 84.0259C112.355 70.5817 126.759 63.8597 138.763 61.4589C147.886 60.0185 157.489 60.4987 166.612 60.9788C170.453 60.9788 174.294 61.4589 178.135 61.4589C188.218 61.4589 203.103 60.9788 214.147 52.3361C223.269 45.1339 235.273 37.4515 251.118 38.4118C265.522 39.3721 278.486 47.0545 283.288 58.5781C286.169 65.3002 285.689 72.5023 285.689 79.2244C285.209 87.3869 285.209 95.5495 290.01 103.232C292.411 107.073 295.772 109.954 299.133 113.315C301.534 115.236 303.934 117.636 305.855 120.037C318.339 133.961 318.819 156.528 306.815 171.413C305.375 172.854 304.415 174.294 303.454 175.734C296.732 183.897 291.45 190.139 294.812 202.143C295.772 204.543 296.732 207.424 297.692 210.305C301.053 218.948 304.414 228.071 300.573 237.193C294.812 248.717 283.288 256.879 269.844 256.879ZM207.905 221.349C208.385 221.349 208.865 221.349 209.345 221.349C215.107 221.829 221.349 224.71 227.111 229.991C229.511 231.912 231.912 234.313 233.833 236.713C236.233 239.114 238.154 241.515 240.555 243.435C248.237 250.157 257.36 254.479 266.963 255.439C281.367 256.399 293.851 248.717 299.613 234.313C302.974 225.67 299.613 216.547 296.732 208.385C295.772 205.504 294.812 203.103 293.851 200.222C290.01 187.738 295.292 181.496 302.494 172.853C303.454 171.413 304.895 169.973 305.855 168.532C317.379 153.648 316.898 131.561 304.895 118.117C302.974 115.716 300.573 113.795 298.173 111.875C294.812 108.994 291.45 105.633 288.57 101.791C283.288 94.1091 283.768 85.4664 284.248 77.3038C284.728 70.5818 284.728 63.3795 281.848 57.1376C277.046 46.0942 264.562 38.4118 250.158 37.4515C234.313 36.4912 222.789 44.1736 213.666 51.3758C202.623 60.0185 187.738 60.9788 177.175 60.9788C173.334 60.9788 169.493 60.4986 165.651 60.4986C156.529 60.0185 146.926 59.5384 138.283 60.9788C126.759 62.8994 112.835 69.6215 108.514 82.5855C105.153 92.6686 108.514 101.791 111.395 110.914C114.276 119.557 117.637 128.68 114.756 138.283C112.835 144.045 109.474 148.846 105.633 153.167C104.673 154.128 104.192 155.568 103.232 156.528C96.9902 165.171 95.0696 173.334 98.4306 179.095C100.831 182.937 105.153 186.298 111.395 187.738C115.236 188.698 119.077 189.179 122.918 189.659C125.319 190.139 128.2 190.139 131.081 190.619C139.243 192.059 145.005 195.42 147.886 200.222C150.287 203.583 151.247 207.904 152.207 212.226C152.687 213.186 152.687 214.626 153.168 215.587C154.608 220.388 156.529 223.749 159.89 225.67C167.572 229.991 179.096 226.63 189.659 223.749C192.54 222.789 195.421 222.309 197.821 221.829C201.182 222.309 204.544 221.349 207.905 221.349Z" fill="white" fill-opacity="0.37"/>
</g>
</svg>
