<svg width="344" height="596" viewBox="0 0 344 596" fill="none" xmlns="http://www.w3.org/2000/svg">
<g opacity="0.9">
<path d="M443.374 244.129C445.171 258.75 446.769 271.747 446.941 286.568C453.738 435.806 404.753 560.565 335.721 562.452C301.404 565.02 268.368 537.747 242.284 486.53C216.399 436.939 199.89 369.703 195.979 297.621C189.182 148.384 238.167 23.6246 307.2 21.7373C341.516 19.1691 374.552 46.4432 400.636 97.6595C422.074 137.903 436.586 188.892 443.374 244.129ZM202.995 341.286C209.783 396.523 224.295 447.512 245.533 486.131C271.418 535.723 302.63 561.572 335.322 559.203C402.53 555.891 451.714 432.756 443.492 285.343C439.581 213.261 423.272 147.65 397.388 98.0588C371.503 48.4671 340.291 22.6181 307.599 24.9867C240.391 28.2989 191.207 151.433 199.428 298.846C201.225 313.468 201.397 328.289 202.995 341.286Z" fill="white" fill-opacity="0.1"/>
<path d="M439.87 269.296C440.469 274.17 441.268 280.668 441.867 285.542C454.762 430.732 412.077 553.068 345.268 559.629C312.576 561.998 279.939 537.973 251.005 490.405C223.695 442.638 204.337 379.051 199.001 308.793C186.105 163.604 228.79 41.268 295.599 34.7065C328.291 32.3379 360.928 56.3624 389.863 103.93C414.948 147.023 432.083 205.936 439.87 269.296ZM202.622 324.84C210.409 388.199 227.344 445.488 252.43 488.581C279.54 534.724 312.177 558.748 343.244 556.579C408.428 550.218 451.314 429.506 438.618 285.941C431.657 215.883 413.923 152.097 386.613 104.329C359.503 58.1867 326.866 34.1623 295.799 36.3312C230.615 42.693 187.729 163.404 200.426 306.969C201.224 313.467 202.023 319.966 202.622 324.84Z" fill="white" fill-opacity="0.1"/>
<path d="M437.991 294.265C445.977 359.249 441.992 420.758 428.287 470.267C413.157 521.601 387.308 552.814 354.816 556.807C290.031 566.418 220.618 457.859 199.998 316.917C189.988 248.883 193.374 182.501 208.504 131.167C223.634 79.8328 249.483 48.6203 281.975 44.6271C346.76 35.0161 416.173 143.575 436.793 284.517C437.192 287.767 437.591 291.015 437.991 294.265ZM202.249 308.394C202.649 311.644 203.048 314.893 203.447 318.142C222.243 457.659 289.632 563.169 354.616 555.182C385.484 551.389 409.708 520.376 425.038 470.667C440.168 419.333 443.753 354.575 433.743 286.541C414.948 147.024 347.559 41.5144 282.574 49.5008C251.707 53.2943 227.483 84.307 212.153 134.016C196.623 182.101 194.263 243.41 202.249 308.394Z" fill="white" fill-opacity="0.1"/>
<path d="M436.113 319.233C442.702 372.845 440.768 424.207 429.514 466.819C416.008 517.953 391.784 548.966 361.316 556.009C298.555 568.669 224.867 465.583 199.773 328.489C186.713 262.479 187.049 198.121 200.555 146.986C214.06 95.8522 238.285 64.8396 268.753 57.7968C331.514 45.1362 405.202 148.222 430.296 285.316C433.118 294.864 434.715 307.861 436.113 319.233ZM198.63 292.348C200.027 303.72 201.425 315.093 204.447 326.265C229.342 461.735 301.005 561.771 362.341 550.935C391.385 545.716 415.609 514.704 427.69 465.394C439.571 414.459 440.106 351.726 428.671 285.516C403.777 150.047 332.113 50.0097 270.777 60.8461C241.734 66.0646 217.509 97.0774 205.429 146.387C193.975 187.375 192.041 238.736 198.63 292.348Z" fill="white" fill-opacity="0.1"/>
<path d="M437.283 342.177C442.674 386.041 440.968 425.83 435.413 461.145C425.157 511.88 402.757 544.318 372.288 551.36C311.352 565.446 235.213 469.258 202.395 336.411C186.286 272.425 183.373 208.466 193.829 159.355C204.085 108.62 226.485 76.1829 256.953 69.1401C317.89 55.0546 394.028 151.243 426.846 284.09C430.867 303.385 434.888 322.681 437.283 342.177ZM195.208 277.925C197.603 297.42 201.624 316.716 205.645 336.012C236.638 467.433 310.952 562.197 371.889 548.111C400.733 541.268 421.707 510.655 431.964 459.92C442.22 409.185 439.507 346.851 423.397 282.864C392.404 151.443 318.09 56.6793 257.153 70.7648C228.309 77.6079 207.334 108.221 197.078 158.956C189.899 194.471 189.817 234.061 195.208 277.925Z" fill="white" fill-opacity="0.1"/>
<path d="M438.254 363.498C442.447 397.615 442.991 428.882 438.262 457.499C431.255 507.835 410.479 540.072 381.835 548.54C321.298 565.875 242.51 474.96 205.217 345.962C187.683 283.8 180.096 222.064 188.727 171.529C195.735 121.193 216.51 88.9551 245.154 80.4874C305.691 63.1526 384.48 154.068 421.772 283.066C428.216 308.661 434.86 335.88 438.254 363.498ZM190.36 265.33C193.555 291.324 198.574 318.742 206.842 345.762C243.935 473.135 322.524 562.426 379.812 545.491C408.456 537.023 427.607 504.985 434.813 456.274C441.82 405.938 436.057 345.627 418.523 283.465C381.43 156.092 302.841 66.8013 245.553 83.7368C216.909 92.2045 197.759 124.243 190.552 172.954C185.623 199.946 186.167 231.213 190.36 265.33Z" fill="white" fill-opacity="0.1"/>
<path d="M438.825 381.568C441.82 405.937 442.991 428.881 440.712 450.6C435.33 500.736 418.003 534.2 389.559 544.292C331.045 564.677 247.982 479.234 204.591 354.284C184.007 294.146 174.995 234.235 178.753 184.299C184.135 134.163 201.462 100.699 229.906 90.6067C288.419 70.2223 371.482 155.665 414.874 280.615C427.39 315.358 434.832 349.076 438.825 381.568ZM184.089 254.556C188.082 287.048 195.524 320.766 207.84 353.885C251.032 477.21 332.271 561.228 389.16 541.043C415.979 531.15 433.505 499.311 437.463 451C441.421 402.688 432.209 341.152 411.825 282.639C368.633 159.313 287.394 75.2962 230.505 95.4808C203.685 105.373 186.159 137.212 182.201 185.523C181.548 207.043 181.094 230.187 184.089 254.556Z" fill="white" fill-opacity="0.1"/>
<path d="M442.647 399.238C444.644 415.485 445.015 431.93 445.188 446.751C443.054 496.488 427.353 529.752 399.108 541.469C342.618 564.902 256.905 484.733 207.414 363.83C183.781 305.716 171.52 246.205 172.028 196.668C174.162 146.931 189.863 113.668 218.108 101.951C274.598 78.5167 360.311 158.686 409.802 279.589C426.365 320.431 437.855 360.248 442.647 399.238ZM178.018 245.406C182.61 282.772 194.1 322.589 210.663 363.431C259.954 482.709 343.844 561.453 398.709 538.219C425.329 526.702 439.606 495.263 441.939 447.151C444.272 399.039 432.01 339.527 406.752 281.612C357.461 162.334 273.572 83.59 218.707 106.824C192.087 118.341 177.81 149.781 175.477 197.893C174.025 212.914 176.022 229.16 178.018 245.406Z" fill="white" fill-opacity="0.1"/>
<path d="M446.068 413.66C447.265 423.408 448.463 433.155 448.037 443.103C449.153 492.44 435.075 525.504 408.655 538.646C354.189 565.129 264.201 490.433 208.811 375.203C182.128 319.113 166.817 261.625 165.701 212.287C164.585 162.95 178.662 129.886 205.082 116.744C259.548 90.2608 349.537 164.958 404.927 280.188C426.963 325.305 440.876 371.42 446.068 413.66ZM170.719 239.706C175.911 281.946 189.824 328.062 211.86 373.179C267.25 488.409 355.415 561.681 408.256 535.397C433.251 524.079 447.129 489.39 446.212 441.678C445.296 393.965 429.985 336.477 403.302 280.387C347.912 165.157 259.748 91.8855 206.907 118.169C181.911 129.487 168.034 164.175 168.95 211.888C168.324 220.211 169.521 229.959 170.719 239.706Z" fill="white" fill-opacity="0.1"/>
<path d="M450.715 424.634C451.314 429.507 451.713 432.757 452.312 437.631C456.678 486.569 444.425 521.058 418.004 534.2C365.563 563.733 272.924 494.309 209.81 383.327C180.078 329.261 161.518 272.172 157.352 224.859C152.987 175.921 165.24 141.432 191.66 128.29C244.102 98.7567 336.74 168.18 399.854 279.163C427.363 328.555 445.125 379.144 450.715 424.634ZM161.999 235.832C167.589 281.321 185.35 331.911 212.86 381.303C274.349 492.485 365.163 560.483 415.98 531.15C440.776 518.208 451.405 483.919 448.864 436.405C444.698 389.092 426.138 332.004 396.406 277.937C334.916 166.755 244.102 98.7567 193.285 128.09C168.489 141.032 157.86 175.322 160.401 222.835C161 227.709 161.599 232.583 161.999 235.832Z" fill="white" fill-opacity="0.1"/>
<path d="M455.162 433.982C460.953 481.096 450.324 515.385 425.928 531.577C375.31 562.535 278.597 500.209 211.008 393.074C178.226 341.032 156.616 285.968 150.627 237.229C144.637 188.491 153.64 154.401 179.662 138.01C230.279 107.052 326.993 169.378 394.581 276.512C427.363 328.554 448.973 383.619 454.963 432.357C455.162 433.982 455.162 433.982 455.162 433.982ZM153.676 235.205L153.875 236.83C159.666 283.944 181.275 339.008 214.057 391.05C281.646 498.185 376.735 560.71 425.728 529.952C448.7 515.585 459.328 481.295 451.913 434.381C446.123 387.267 424.513 332.203 391.731 280.161C324.143 173.027 229.054 110.501 180.061 141.259C157.089 155.627 147.886 188.091 153.676 235.205Z" fill="white" fill-opacity="0.1"/>
<path d="M461.233 443.131C466.224 483.746 458.446 514.387 437.099 528.554C388.505 562.562 289.142 505.509 213.829 402.623C177.998 352.604 153.139 297.939 144.099 251.224C134.86 202.885 143.664 167.171 166.436 151.179C215.03 117.172 314.393 174.225 389.706 277.111C425.537 327.13 450.396 381.795 459.436 428.509C458.41 433.583 460.634 438.257 461.233 443.131ZM143.727 234.779C144.326 239.652 144.925 244.526 145.524 249.4C154.564 296.114 179.222 349.155 215.054 399.174C288.742 502.26 386.482 559.512 433.45 525.704C456.222 509.712 463.601 475.823 454.562 429.108C445.523 382.394 420.863 329.353 385.032 279.335C311.344 176.249 213.605 118.996 166.636 152.804C146.914 166.772 138.936 195.788 143.727 234.779Z" fill="white" fill-opacity="0.1"/>
<path d="M466.905 449.03C471.298 484.772 464.545 510.339 445.022 525.931C398.453 562.989 294.814 511.408 215.027 412.37C176.146 364.376 148.237 311.735 135.749 263.795C123.261 215.855 130.44 180.341 153.012 162.724C199.582 125.667 303.221 177.247 383.008 276.285C421.889 324.28 449.798 376.921 462.286 424.861C463.085 431.359 465.907 440.907 466.905 449.03ZM134.179 237.601C135.178 245.724 136.176 253.848 138.799 261.771C151.088 308.086 177.371 360.927 216.252 408.921C296.039 507.96 397.854 558.115 442.999 522.882C463.946 505.465 471.125 469.951 458.837 423.635C446.548 377.32 420.264 324.479 381.383 276.485C301.596 177.446 199.782 127.292 154.637 162.525C136.739 177.918 129.986 203.485 134.179 237.601Z" fill="white" fill-opacity="0.1"/>
<path d="M472.379 453.304C476.172 484.172 469.219 508.114 452.746 521.683C408.201 561.79 301.912 515.482 214.401 420.691C172.47 374.721 141.313 322.479 127.399 276.364C113.287 228.624 117.217 193.509 137.765 172.843C182.311 132.736 288.6 179.043 376.11 273.834C418.041 319.804 449.199 372.046 463.112 418.161C467.959 430.759 470.981 441.932 472.379 453.304ZM123.207 242.247C124.405 251.994 127.427 263.167 130.649 275.964C144.562 322.08 175.52 372.697 217.451 418.668C303.337 513.658 407.802 558.54 450.922 520.258C471.67 501.216 475.601 466.101 461.687 419.986C447.774 373.87 416.816 323.253 374.885 277.282C288.999 182.292 184.534 137.41 141.414 175.692C126.565 189.061 119.413 211.379 123.207 242.247Z" fill="white" fill-opacity="0.1"/>
<path d="M479.276 455.756C482.67 483.374 476.943 503.868 462.294 518.862C419.773 562.018 309.209 521.184 217.224 430.241C172.243 386.294 138.036 336.077 120.873 290.361C103.711 244.644 105.617 206.479 126.166 185.813C168.687 142.657 279.251 183.491 371.236 274.434C416.217 318.38 450.424 368.598 467.586 414.314C474.257 428.337 477.679 442.759 479.276 455.756ZM113.858 246.695C115.455 259.692 118.677 272.49 123.923 288.336C141.086 334.053 175.093 382.646 218.648 428.417C310.633 519.359 417.749 558.968 460.47 517.437C481.018 496.771 481.699 462.055 464.537 416.338C447.374 370.622 413.367 322.029 369.811 276.258C277.826 185.316 170.711 145.707 127.99 187.238C114.766 200.408 110.663 220.702 113.858 246.695Z" fill="white" fill-opacity="0.1"/>
<path d="M486.175 458.205C489.169 482.574 484.867 501.244 471.843 516.038C431.346 562.243 318.131 526.683 218.423 439.987C170.393 398.065 132.936 348.246 114.149 302.729C93.7372 257.413 94.0192 219.448 114.368 197.157C154.865 150.951 268.08 186.512 367.788 273.207C415.818 315.13 453.275 364.949 472.062 410.465C479.132 427.737 484.378 443.584 486.175 458.205ZM103.086 252.965C104.883 267.587 110.129 283.434 117.199 300.705C137.61 346.022 173.242 394.416 221.272 436.339C319.356 523.234 430.746 557.369 469.819 512.988C488.543 490.897 489.025 454.557 468.813 410.864C448.401 365.548 412.769 317.154 364.739 275.231C266.654 188.336 155.264 154.201 116.192 198.582C104.592 211.552 100.29 230.221 103.086 252.965Z" fill="white" fill-opacity="0.1"/>
<path d="M492.874 459.032C495.47 480.152 491.167 498.821 481.193 511.591C442.719 560.846 325.229 530.759 221.046 447.912C169.967 408.013 129.461 360.218 107.424 315.101C85.3881 269.984 82.2208 230.793 100.745 207.078C139.219 157.822 256.708 187.91 360.892 270.757C411.971 310.656 452.477 358.451 474.513 403.568C485.432 425.314 490.877 442.786 492.874 459.032ZM90.6885 259.438C92.6851 275.684 98.1308 293.155 108.849 313.277C130.886 358.394 171.192 404.564 222.272 444.462C326.455 527.309 440.495 556.172 479.169 508.542C497.893 486.451 494.925 448.885 472.889 403.768C450.852 358.651 410.546 312.48 359.466 272.582C255.283 189.735 141.243 160.872 102.57 208.503C92.7945 222.897 88.2926 239.942 90.6885 259.438Z" fill="white" fill-opacity="0.1"/>
<path d="M499.57 459.857C501.966 479.353 499.089 496.198 489.114 508.968C452.464 559.648 330.9 536.658 220.618 457.859C166.489 419.984 122.933 374.213 97.6476 329.495C72.3621 284.777 67.5699 245.787 85.8946 220.447C122.544 169.766 244.109 192.756 354.391 271.555C408.52 309.43 452.076 355.201 477.361 399.919C489.904 421.466 497.374 441.987 499.57 459.857ZM80.1131 267.333C82.3093 285.204 89.579 304.1 102.122 325.647C127.407 370.365 170.963 416.135 223.467 454.21C333.75 533.009 452.065 556.399 487.09 505.918C503.99 482.402 501.022 444.837 475.737 400.119C450.451 355.401 406.896 309.63 354.391 271.555C244.109 192.756 125.794 169.367 90.7687 219.848C80.7941 232.617 77.9168 249.462 80.1131 267.333Z" fill="white" fill-opacity="0.1"/>
<path d="M507.894 460.484C510.09 478.355 507.013 493.576 498.663 506.146C464.038 559.876 339.823 542.158 223.441 467.407C166.262 431.556 121.082 385.985 92.5475 341.667C64.0128 297.348 57.5966 258.557 75.7217 231.592C110.347 177.862 234.562 195.58 350.943 270.331C408.122 306.182 453.302 351.753 481.837 396.071C496.204 419.043 505.498 440.989 507.894 460.484ZM69.5404 275.23C71.9363 294.725 81.0304 315.046 95.5973 339.643C124.132 383.961 169.113 427.908 226.291 463.759C341.048 538.709 463.638 556.626 498.464 504.521C515.164 479.381 508.747 440.59 482.037 397.696C453.502 353.377 408.521 309.431 351.343 273.58C236.586 198.629 113.995 180.712 79.1703 232.817C68.9959 243.963 67.5438 258.983 69.5404 275.23Z" fill="white" fill-opacity="0.1"/>
<path d="M516.216 461.11C518.213 477.356 514.936 490.952 508.211 503.323C475.609 560.102 347.12 547.857 224.639 477.154C166.035 443.128 116.181 399.78 84.3974 355.861C52.6135 311.942 45.9973 271.526 60.8731 244.961C93.4747 188.181 221.964 200.426 344.445 271.129C403.049 305.156 452.903 348.503 484.687 392.422C502.503 416.619 513.621 439.99 516.216 461.11ZM57.3422 283.325C59.9378 304.445 69.2313 326.391 87.2471 352.213C117.406 396.331 167.061 438.054 225.864 473.706C346.721 544.609 471.961 557.252 504.762 502.097C519.638 475.532 511.597 436.941 481.637 394.447C451.478 350.328 401.823 308.604 343.02 272.953C222.164 202.05 96.9233 189.406 64.122 244.561C57.1969 255.307 55.5453 268.703 57.3422 283.325Z" fill="white" fill-opacity="0.1"/>
<path d="M522.715 460.312C524.512 474.933 522.86 488.329 515.934 499.075C485.357 558.904 354.217 551.933 225.637 485.277C163.984 453.275 110.881 410.327 77.4723 366.607C44.0637 322.888 34.198 282.871 48.6745 253.057C79.2522 193.227 210.392 200.199 338.972 266.854C400.625 298.857 453.729 341.806 487.137 385.525C508.602 412.572 519.92 437.567 522.715 460.312ZM45.3433 293.045C47.9389 314.165 59.2565 339.161 78.8969 364.783C112.305 408.502 165.209 449.826 226.863 481.829C353.818 548.684 483.333 555.855 514.111 497.651C528.787 469.461 519.121 431.069 485.712 387.349C452.304 343.629 399.4 302.306 337.747 270.303C210.792 203.448 81.2762 196.277 50.4989 254.482C45.3981 266.652 43.5463 278.424 45.3433 293.045Z" fill="white" fill-opacity="0.1"/>
<path d="M530.837 459.313C532.435 472.31 530.783 485.706 525.482 496.253C495.304 559.331 361.514 557.632 226.835 495.025C162.132 465.046 105.979 424.122 69.3213 380.801C32.6635 337.481 20.9738 296.04 35.4503 266.225C65.6286 203.147 199.419 204.845 334.098 267.453C398.8 297.432 454.954 338.356 491.612 381.676C514.701 408.523 527.843 434.944 530.837 459.313ZM33.1448 301.141C35.9401 323.886 49.0817 350.306 72.171 377.153C108.829 420.473 163.158 459.973 227.861 489.951C360.915 552.759 493.081 554.657 521.834 493.403C536.31 463.588 523.196 423.971 488.362 382.076C451.704 338.755 397.375 299.256 332.672 269.277C199.618 206.47 67.4531 204.572 38.6997 265.826C33.5989 277.997 31.7472 289.769 33.1448 301.141Z" fill="white" fill-opacity="0.1"/>
</g>
</svg>
