<svg width="327" height="432" viewBox="0 0 327 432" fill="none" xmlns="http://www.w3.org/2000/svg">
<g opacity="0.9">
<path d="M46.3056 165.564C30.183 184.934 1.56005 187.552 -17.8097 171.43C-37.1794 155.307 -39.7979 126.684 -23.6752 107.314C-7.55255 87.9448 21.0703 85.3262 40.44 101.449C59.8097 117.572 62.4283 146.194 46.3056 165.564ZM-23.0505 107.835C-38.9131 126.892 -36.3469 154.942 -17.2896 170.805C1.76771 186.668 29.8181 184.101 45.6808 165.044C61.5434 145.987 58.9772 117.936 39.9199 102.074C20.8626 86.211 -7.44786 89.0897 -23.0505 107.835Z" fill="white" fill-opacity="0.33"/>
<path d="M54.116 172.065C53.0759 173.315 52.0357 174.564 50.6831 175.554C31.9058 194.301 0.991269 193.954 -17.7554 175.177C-26.9726 165.918 -31.8196 153.951 -31.5668 140.94C-31.314 127.928 -26.6368 115.955 -17.0658 106.998C1.7115 88.2516 32.626 88.5983 51.3727 107.376C60.5899 116.634 65.4368 128.602 65.184 141.613C65.3466 152.854 61.1372 163.63 54.116 172.065ZM-19.6138 110.695C-26.635 119.13 -30.5843 129.593 -30.4218 140.835C-30.4145 153.534 -25.5676 165.501 -16.6629 174.5C1.77139 193.017 31.801 193.156 50.6307 174.982C59.6293 166.077 64.6189 154.364 64.6116 141.665C64.6044 128.966 59.7574 116.999 50.8526 108C32.4184 89.4831 2.38874 89.3442 -16.4409 107.518C-17.7935 108.508 -18.8337 109.758 -19.6138 110.695Z" fill="white" fill-opacity="0.33"/>
<path d="M62.2386 178.826C60.1583 181.325 57.7655 183.565 55.3728 185.804C33.3684 203.98 1.0471 200.876 -17.129 178.871C-25.8784 168.416 -29.9976 154.938 -28.6523 141.25C-27.3069 127.562 -20.6524 115.119 -10.1965 106.37C11.8079 88.1936 44.1292 91.2978 62.3052 113.302C71.0546 123.758 75.1739 137.235 73.8286 150.924C72.7415 161.125 68.7397 171.016 62.2386 178.826ZM-16.75 113.608C-23.251 121.418 -27.3051 130.736 -28.0798 141.198C-29.1651 154.574 -25.3583 167.791 -16.6089 178.247C1.25476 199.991 33.2637 202.835 54.4355 185.024C64.8915 176.274 71.2859 164.144 72.3712 150.768C73.4565 137.392 69.6498 124.175 60.9003 113.719C43.0367 91.975 11.0278 89.1309 -10.1441 106.942C-12.2768 108.869 -14.6696 111.108 -16.75 113.608Z" fill="white" fill-opacity="0.33"/>
<path d="M70.6742 185.848C67.5537 189.597 64.0684 192.513 60.0107 195.482C35.3517 213.035 0.738778 206.966 -16.8143 182.307C-25.4084 170.393 -28.4874 155.667 -26.0496 141.301C-23.6117 126.935 -15.5521 114.076 -3.6389 105.482C21.0201 87.9286 55.6331 93.998 73.1861 118.657C81.7802 130.57 84.8592 145.297 82.4213 159.663C80.7094 169.344 76.6552 178.662 70.6742 185.848ZM-13.3653 115.896C-19.3463 123.082 -23.4527 131.827 -24.9046 141.196C-27.3425 155.562 -24.0035 169.976 -15.7218 181.629C1.51884 206.028 35.247 211.89 59.6459 194.649C71.2991 186.368 79.0985 173.821 81.8488 159.715C84.2867 145.349 80.9477 130.935 72.666 119.282C55.4254 94.8829 21.6972 89.0211 -2.7017 106.262C-7.07188 108.971 -10.5048 112.459 -13.3653 115.896Z" fill="white" fill-opacity="0.33"/>
<path d="M79.109 192.868C74.9483 197.867 70.1105 201.773 64.3877 205.471C36.5017 222.454 0.481848 213.627 -16.7606 186.053C-25.1994 172.683 -27.4983 157.019 -23.7078 141.663C-19.9174 126.308 -10.7129 113.344 2.70999 105.477C30.5961 88.495 66.6159 97.322 83.8583 124.896C92.2971 138.266 94.596 153.93 90.8055 169.286C88.9889 177.822 84.83 185.995 79.109 192.868ZM-10.8664 117.976C-16.5873 124.849 -20.4861 132.71 -22.5629 141.559C-26.0933 156.602 -23.7944 172.265 -15.668 185.376C0.949589 212.43 36.9693 221.257 64.0229 204.639C77.1334 196.513 86.6502 183.808 90.1807 168.765C93.7111 153.723 91.4122 138.059 83.2858 124.948C66.6682 97.8945 30.6485 89.0675 3.59492 105.685C-2.12784 109.384 -6.96571 113.29 -10.8664 117.976Z" fill="white" fill-opacity="0.33"/>
<path d="M87.8568 200.15C82.6559 206.398 76.4655 211.294 69.3378 215.409C38.7971 231.769 0.798138 220.236 -15.5612 189.696C-23.2723 174.815 -25.1035 157.954 -20.2205 141.922C-15.3375 125.889 -4.41566 112.768 10.1522 104.797C40.6929 88.4374 78.6919 99.9695 95.0512 130.51C102.762 145.39 104.593 162.252 99.7105 178.284C97.2689 186.3 93.0577 193.901 87.8568 200.15ZM-8.36689 120.056C-13.5678 126.305 -17.5189 133.593 -19.9604 141.609C-24.5834 157.329 -23.3247 174.243 -15.3536 188.811C0.69337 219.092 38.3799 230.364 68.6605 214.317C83.2284 206.345 93.8901 193.536 98.7732 177.504C103.396 161.784 102.137 144.87 94.1663 130.302C78.1193 100.022 40.4328 88.7498 10.1522 104.797C2.76443 109.225 -3.42607 114.12 -8.36689 120.056Z" fill="white" fill-opacity="0.33"/>
<path d="M96.6043 207.431C90.3632 214.929 82.8202 220.814 73.4026 225.139C40.2073 240.875 -0.0832556 226.378 -15.8196 193.183C-23.3754 176.845 -24.1664 158.734 -18.1908 142.025C-12.2153 125.315 0.111442 111.776 16.1366 103.961C49.3319 88.2242 89.6225 102.721 105.359 135.917C112.915 152.254 113.706 170.365 107.73 187.075C105.549 194.779 101.545 201.495 96.6043 207.431ZM-5.86778 122.137C-10.8086 128.072 -14.8122 134.788 -17.3061 142.232C-23.2816 158.942 -22.2305 176.74 -14.9871 192.818C0.43684 225.753 39.8425 240.043 73.0378 224.306C88.803 216.803 101.13 203.265 106.845 186.867C112.821 170.158 111.77 152.359 104.526 136.282C89.1024 103.346 49.6967 89.0566 16.5014 104.793C7.91633 108.753 0.113215 114.951 -5.86778 122.137Z" fill="white" fill-opacity="0.33"/>
<path d="M105.664 214.972C98.3831 223.72 88.915 230.647 78.3526 235.077C41.9302 250.243 0.232786 232.988 -14.9329 196.565C-22.3334 178.77 -22.3442 159.722 -15.0161 142.023C-7.68793 124.324 5.78368 110.68 23.5786 103.28C60.001 88.1141 101.698 105.369 116.864 141.791C124.265 159.586 124.275 178.635 116.947 196.334C113.829 203.257 110.085 209.661 105.664 214.972ZM-3.68077 123.957C-8.10151 129.268 -11.8451 135.672 -14.7037 142.283C-21.7718 159.67 -21.7609 178.718 -14.6729 196.253C0.440473 232.103 41.8255 249.098 77.4153 234.297C94.6378 226.949 108.422 213.565 115.49 196.178C122.558 178.792 122.547 159.743 115.459 142.208C100.346 106.359 58.9608 89.3638 23.371 104.165C12.8085 108.594 3.34039 115.522 -3.68077 123.957Z" fill="white" fill-opacity="0.33"/>
<path d="M114.464 222.826C106.143 232.823 95.3223 240.74 82.73 245.067C43.653 259.61 -0.335998 239.389 -14.8787 200.312C-21.8115 181.32 -21.0945 160.762 -12.6738 142.386C-4.25316 124.009 10.6234 109.949 29.8757 102.704C68.9527 88.1611 112.942 108.381 127.484 147.458C134.417 166.45 133.7 187.008 125.28 205.385C122.421 211.996 118.885 217.515 114.464 222.826ZM-1.49382 125.777C-5.65451 130.776 -9.45045 136.607 -12.0491 142.906C-20.4697 161.282 -20.9266 181.528 -14.3063 200.26C-0.0759551 239.077 43.2883 258.777 82.1052 244.547C101.097 237.614 115.714 223.866 124.135 205.49C132.555 187.113 133.012 166.868 126.392 148.135C112.162 109.318 68.7974 89.6184 29.9805 103.849C17.7006 108.436 6.82756 115.78 -1.49382 125.777Z" fill="white" fill-opacity="0.33"/>
<path d="M123.524 230.367C114.163 241.614 101.677 250.26 87.1074 255.057C44.8033 269.029 -0.592424 246.051 -14.8245 204.06C-21.602 183.61 -19.8449 161.803 -10.3317 142.749C-0.818488 123.695 16.0356 109.165 36.2251 102.7C78.5292 88.7281 123.925 111.706 138.157 153.697C144.934 174.147 143.177 195.954 133.664 215.008C130.961 220.162 127.425 225.681 123.524 230.367ZM0.692987 127.598C-3.20766 132.284 -6.48348 137.49 -9.44688 142.956C-18.9601 162.01 -20.4571 183.505 -13.992 203.695C-0.0723277 245.426 45.0111 268.144 86.7427 254.224C106.932 247.759 123.214 233.282 132.727 214.228C142.24 195.174 143.737 173.679 137.272 153.49C123.352 111.758 78.269 89.0404 36.5374 102.96C22.5402 107.704 10.0545 116.351 0.692987 127.598Z" fill="white" fill-opacity="0.33"/>
<path d="M132.897 238.168C122.235 250.977 108.084 260.353 92.0572 264.994C47.0986 278.344 -0.276442 252.661 -13.6255 207.702C-20.2476 185.795 -17.7105 163.05 -6.84467 143.007C4.02114 122.964 22.0202 108.329 43.667 102.019C88.6257 88.6702 136.001 114.353 149.35 159.312C155.972 181.219 153.435 203.963 142.569 224.007C139.553 228.901 136.537 233.795 132.897 238.168ZM2.87991 129.418C-0.760697 133.792 -4.08892 138.426 -6.53224 143.267C-17.138 162.998 -19.6752 185.743 -13.3655 207.39C-0.0687999 251.776 46.9939 277.199 91.3801 263.902C113.027 257.592 130.766 243.27 141.632 223.227C152.237 203.496 154.775 180.751 148.465 159.104C135.168 114.718 88.1056 89.2951 43.7194 102.592C27.1199 107.285 13.5417 116.609 2.87991 129.418Z" fill="white" fill-opacity="0.33"/>
<path d="M141.957 245.71C130.255 259.768 114.439 269.874 96.1224 274.725C48.2491 287.763 -1.1576 258.802 -13.8836 211.189C-20.0381 188.085 -16.7731 163.83 -4.81478 143.11C7.14358 122.39 26.5475 107.338 49.6517 101.183C97.5251 88.1448 146.932 117.105 159.658 164.718C165.812 187.823 162.547 212.077 150.589 232.798C148.406 237.327 145.337 241.648 141.957 245.71ZM4.75453 130.978C1.63401 134.727 -1.43418 139.049 -4.18992 143.63C-16.1483 164.351 -19.1531 188.293 -12.9987 211.397C-0.272673 259.01 48.7692 287.138 96.0701 274.152C119.174 267.998 138.318 253.258 150.016 232.85C161.975 212.13 164.98 188.187 158.825 165.083C146.099 117.47 97.0574 89.3421 49.7565 102.328C32.2722 106.814 16.4565 116.92 4.75453 130.978Z" fill="white" fill-opacity="0.33"/>
<path d="M151.329 253.511C138.327 269.132 120.846 279.967 100.812 284.974C49.9717 297.13 -1.10172 265.724 -13.5172 215.196C-19.5163 190.635 -15.4712 165.443 -2.16031 143.733C11.1506 122.023 31.6995 106.866 56.5734 101.127C107.414 88.9716 158.487 120.377 170.903 170.905C176.902 195.467 172.857 220.658 159.546 242.369C156.998 246.065 154.45 249.762 151.329 253.511ZM6.62877 132.538C3.7683 135.975 0.960247 139.984 -1.58781 143.68C-14.6387 165.078 -18.6838 190.27 -12.6846 214.832C-0.581628 265.099 50.1794 296.245 100.447 284.142C124.749 278.455 145.298 263.299 158.349 241.901C171.399 220.503 175.444 195.311 169.445 170.75C157.342 120.482 106.581 89.3364 56.3133 101.439C36.8516 106.395 19.3709 117.23 6.62877 132.538Z" fill="white" fill-opacity="0.33"/>
<path d="M160.702 261.312C146.659 278.183 127.254 290.06 105.45 294.652C51.9547 306.185 -1.09791 272.074 -12.9427 218.319C-18.7865 192.3 -13.7013 165.859 0.702172 143.471C15.1057 121.084 37.3719 105.77 63.3907 99.9264C116.886 88.3941 169.938 122.505 181.783 176.26C187.627 202.279 182.542 228.72 168.138 251.107C165.85 254.492 163.302 258.188 160.702 261.312ZM8.50346 134.099C5.90303 137.223 3.61505 140.607 1.32704 143.991C-12.8164 166.066 -17.9017 192.508 -12.0579 218.527C-0.265443 271.709 52.1624 305.3 105.397 294.08C131.156 288.548 153.11 272.975 167.566 251.16C181.709 229.085 186.795 202.644 180.951 176.625C169.158 123.442 116.73 89.8515 63.4955 101.071C41.6915 105.664 22.5458 117.229 8.50346 134.099Z" fill="white" fill-opacity="0.33"/>
<path d="M170.074 269.114C154.732 287.546 133.921 299.84 109.827 304.642C53.4174 315.864 -1.92685 278.788 -12.8886 222.066C-18.2647 194.85 -12.4518 166.899 3.04427 143.834C18.5403 120.77 42.2115 105.039 69.4276 99.6626C125.837 88.4408 181.182 125.517 192.143 182.239C197.519 209.455 191.706 237.406 176.21 260.471C174.755 263.49 172.415 266.302 170.074 269.114ZM10.3779 135.659C8.03747 138.471 5.69711 141.282 3.66914 144.354C-11.8269 167.419 -17.3799 195.057 -11.7437 221.961C-0.834371 278.111 53.8851 314.667 110.035 303.757C137.251 298.381 160.662 282.963 176.158 259.898C191.654 236.834 197.207 209.195 191.571 182.291C180.662 126.142 125.942 89.5858 69.7924 100.495C46.5312 104.932 25.7204 117.227 10.3779 135.659Z" fill="white" fill-opacity="0.33"/>
<path d="M179.446 276.915C163.064 296.597 140.328 309.933 114.464 314.319C55.0877 324.658 -1.92342 285.137 -12.2621 225.76C-17.483 197.087 -11.2022 167.939 5.64638 143.884C22.495 119.83 47.3112 103.995 76.297 99.034C135.674 88.6952 192.685 128.216 203.024 187.593C208.244 216.266 201.964 245.415 185.115 269.469C183.607 271.916 181.527 274.415 179.446 276.915ZM12.2522 137.219C10.1719 139.718 8.35161 141.905 6.58368 144.665C-10.0049 168.406 -16.338 196.982 -11.1171 225.656C-0.830799 284.46 55.6079 324.033 114.672 313.435C143.086 308.526 168.162 292.378 184.75 268.636C201.339 244.895 207.672 216.319 202.451 187.645C192.165 128.841 135.726 89.2677 76.6618 99.8664C51.1106 104.513 28.635 117.537 12.2522 137.219Z" fill="white" fill-opacity="0.33"/>
<path d="M188.819 284.716C171.136 305.96 146.735 320.026 118.842 324.31C56.5507 334.338 -2.17963 291.799 -12.2078 229.508C-17.2733 199.377 -9.95241 168.979 7.98875 144.248C25.9299 119.516 52.1509 103.263 82.5941 98.458C144.885 88.4298 203.616 130.969 213.644 193.26C218.709 223.391 211.389 253.789 193.447 278.52C192.2 280.655 190.639 282.529 188.819 284.716ZM14.1269 138.779C12.5667 140.654 10.7463 142.841 9.49845 144.975C-8.18266 169.394 -15.2435 199.48 -10.4904 229.351C-0.514659 291.069 57.6433 333.661 119.362 323.685C149.233 318.932 175.454 302.679 193.135 278.26C210.816 253.841 217.877 223.755 213.124 193.885C203.148 132.166 144.99 89.5748 83.2714 99.5505C55.9505 103.782 31.8098 117.535 14.1269 138.779Z" fill="white" fill-opacity="0.33"/>
<path d="M198.504 292.777C179.521 315.583 153.143 330.119 123.792 334.247C58.5336 343.392 -2.17599 298.148 -11.321 232.89C-15.6588 201.25 -7.87025 169.654 11.1635 144.246C30.1972 118.837 58.3956 102.115 89.7237 97.517C154.982 88.372 215.692 133.616 224.837 198.874C229.174 230.515 221.386 262.11 202.352 287.519C201.364 289.341 199.804 291.215 198.504 292.777ZM15.689 140.08C14.3888 141.642 13.0885 143.204 11.7883 144.766C-7.24538 170.174 -15.0864 201.197 -10.4886 232.525C-1.39595 297.211 59.0012 342.195 123.687 333.102C155.015 328.505 182.694 312.407 201.727 286.998C220.761 261.59 228.602 230.567 224.004 199.239C214.911 134.553 154.514 89.5693 89.8285 98.662C60.7902 103.05 34.4121 117.586 15.689 140.08Z" fill="white" fill-opacity="0.33"/>
<path d="M207.877 300.579C187.853 324.635 159.55 340.212 128.17 344.238C59.9967 353.072 -2.43217 304.811 -11.2666 236.638C-15.4491 203.54 -6.88033 171.007 13.506 144.609C33.8923 118.211 63.2357 101.384 96.3335 97.2014C164.507 88.367 226.935 136.628 235.77 204.801C239.952 237.899 231.383 270.432 210.997 296.83C209.957 298.08 208.917 299.329 207.877 300.579ZM17.5637 141.64C16.5235 142.89 15.4833 144.14 14.7032 145.077C-5.42306 171.163 -14.3041 203.435 -9.86162 236.22C-1.07954 303.821 61.0368 351.822 128.637 343.04C161.163 338.91 190.506 322.083 210.632 295.998C230.759 269.912 239.64 237.639 235.197 204.854C226.415 137.253 164.299 89.2518 96.6982 98.0339C65.6302 102.319 37.587 117.584 17.5637 141.64Z" fill="white" fill-opacity="0.33"/>
<path d="M217.821 308.328C196.498 333.946 166.53 350.253 133.119 354.175C62.2918 362.387 -2.1162 311.42 -10.6401 240.333C-14.6672 205.777 -5.0583 171.995 16.4205 144.92C37.8994 117.845 68.6477 100.6 102.943 96.8855C173.77 88.674 238.178 139.641 246.702 210.728C250.729 245.284 241.121 279.066 219.642 306.141C219.122 306.766 218.341 307.703 217.821 308.328ZM19.1257 142.941C18.3455 143.878 17.8254 144.503 17.0453 145.44C-4.17349 172.203 -13.7823 205.985 -9.80751 239.968C-1.64843 310.223 62.187 361.242 132.702 352.77C166.685 348.796 197.173 331.864 218.652 304.789C239.871 278.026 249.48 244.243 245.505 210.261C237.346 140.006 173.51 88.9865 102.995 97.4579C70.1574 101.328 40.4492 117.323 19.1257 142.941Z" fill="white" fill-opacity="0.33"/>
<path d="M227.194 316.129C204.57 343.309 172.937 360.346 137.757 363.853C63.7023 371.494 -2.4248 317.51 -9.75319 243.715C-13.3126 207.962 -2.97597 172.67 19.5954 144.918C42.4268 116.853 74.6325 99.764 110.073 95.9445C184.127 88.3037 250.254 142.288 257.583 216.083C261.142 251.835 250.806 287.127 228.234 314.879C227.714 315.504 227.454 315.817 227.194 316.129ZM21.0003 144.501C20.7403 144.813 20.2202 145.438 19.9602 145.75C-2.61122 173.503 -13.0003 208.222 -9.18079 243.662C-1.59236 317.145 64.17 370.296 137.392 363.02C172.572 359.513 203.945 342.789 226.569 315.609C226.829 315.297 227.349 314.672 227.609 314.359C250.181 286.607 260.57 251.887 256.75 216.447C249.162 142.965 183.399 89.8133 110.177 97.0893C74.9972 100.596 43.364 117.633 21.0003 144.501Z" fill="white" fill-opacity="0.33"/>
<path d="M236.879 324.19C212.955 352.933 179.344 370.439 142.134 373.843C65.4249 380.861 -2.68153 324.171 -9.69932 247.462C-13.1035 210.252 -1.9866 174.023 21.9374 145.281C45.8613 116.539 79.4719 99.0325 116.682 95.6283C193.391 88.6105 261.497 145.3 268.515 222.009C271.919 259.219 260.803 295.448 236.879 324.19ZM22.5621 145.801C-1.10179 174.231 -12.2186 210.46 -8.86681 247.097C-1.9014 323.234 65.8926 379.663 142.03 372.698C178.979 369.606 212.277 351.84 235.941 323.41C259.605 294.981 270.722 258.751 267.37 222.114C260.405 145.977 192.611 89.5478 116.474 96.5132C79.8367 99.865 46.2261 117.371 22.5621 145.801Z" fill="white" fill-opacity="0.33"/>
</g>
</svg>
