<svg width="286" height="282" viewBox="0 0 286 282" fill="none" xmlns="http://www.w3.org/2000/svg">
<g opacity="0.9">
<path d="M143 160.626C72.706 160.626 0 153.51 0 141.31C0 129.111 72.706 121.995 143 121.995C213.294 121.995 286 129.111 286 141.31C286 153.51 213.294 160.626 143 160.626ZM143 122.672C57.8892 122.672 1.03375 132.161 1.03375 140.972C1.03375 149.782 58.2337 159.271 143 159.271C227.766 159.271 284.966 149.782 284.966 140.972C284.966 132.161 227.766 122.672 143 122.672Z" fill="white" fill-opacity="0.22"/>
<path d="M44.7952 168.42C27.5663 168.42 8.95905 167.065 8.26989 161.304C6.547 149.782 74.0844 132.839 140.243 123.011C176.08 117.589 210.193 114.539 236.036 114.201C254.643 113.862 276.696 114.878 277.73 121.317C279.453 132.839 211.916 149.782 145.757 159.61C109.921 165.032 75.8073 168.082 49.9639 168.42C48.241 168.082 46.5181 168.42 44.7952 168.42ZM241.205 114.878C239.482 114.878 237.759 114.878 236.036 114.878C210.193 115.217 176.08 118.267 140.243 123.689C60.3012 135.55 7.92535 152.493 8.95909 160.626C9.30367 162.659 13.7831 167.404 49.6193 167.065C75.4627 166.726 109.576 163.676 145.412 158.254C225.354 146.394 277.73 129.45 276.696 121.317C276.352 119.284 272.217 114.878 241.205 114.878Z" fill="white" fill-opacity="0.22"/>
<path d="M28.9447 184.687C22.3977 184.687 17.229 183.67 16.5399 180.959C13.0941 170.115 75.1182 143.344 137.487 124.028C171.256 113.523 203.301 105.051 228.111 100.985C246.029 97.9348 267.393 95.5627 269.46 101.662C272.906 112.506 210.882 139.277 148.513 158.593C114.745 169.098 82.6989 177.57 57.8893 181.637C47.8965 183.331 37.2145 184.687 28.9447 184.687ZM137.487 124.706C62.3688 148.427 14.817 172.487 17.229 180.62C18.6073 184.687 33.4242 184.687 57.5447 180.62C82.3543 176.215 114.4 168.082 148.169 157.577C223.287 133.855 270.839 109.795 268.427 101.662C267.048 97.596 252.231 97.596 228.111 101.662C203.301 106.068 171.256 114.201 137.487 124.706Z" fill="white" fill-opacity="0.22"/>
<path d="M31.3567 202.986C28.2555 202.986 25.8434 202.308 24.8097 200.614C19.641 190.447 76.4964 154.188 134.386 124.706C165.742 108.779 196.065 95.5627 219.841 87.0909C236.725 80.9911 257.745 75.2302 260.846 80.9911C266.014 91.1573 209.159 127.417 151.27 156.899C119.913 172.826 89.5904 186.042 65.8145 194.514C53.4097 198.919 39.282 202.986 31.3567 202.986ZM254.643 79.9745C248.096 79.9745 236.036 83.0243 220.53 88.4463C196.754 96.5793 166.431 110.134 135.075 126.061C65.1253 161.643 22.053 193.158 25.8434 200.614C27.9109 204.341 42.7277 201.969 65.4699 193.836C89.2458 185.703 119.569 172.148 150.925 156.221C220.875 120.639 263.947 89.1241 260.157 81.6688C259.467 80.6522 257.4 79.9745 254.643 79.9745Z" fill="white" fill-opacity="0.22"/>
<path d="M37.5588 222.301C35.4914 222.301 34.1131 221.962 33.4239 220.946C26.5324 211.457 77.8745 165.37 131.973 126.4C161.262 105.051 189.862 86.7515 212.605 74.552C228.8 65.7413 249.13 56.5918 252.92 61.6749C259.812 71.1633 208.47 117.25 154.371 156.221C125.082 177.57 96.4817 195.869 73.7396 208.068C60.6456 214.846 45.1396 222.301 37.5588 222.301ZM248.441 60.9971C243.961 60.9971 234.313 63.7081 212.949 75.2298C190.207 87.4293 161.607 105.728 132.662 127.078C67.5372 174.52 29.289 213.49 34.4577 220.268C35.836 221.962 42.0384 223.996 73.395 207.052C96.1372 194.852 124.737 176.553 153.682 155.204C218.807 107.762 257.055 68.7911 251.887 62.0137C251.197 61.3359 250.508 60.9971 248.441 60.9971Z" fill="white" fill-opacity="0.22"/>
<path d="M44.795 241.617C43.4167 241.617 42.383 241.278 41.6938 240.601C33.0794 232.129 79.2528 176.215 128.872 127.078C155.749 100.646 182.626 76.9244 204.335 60.6585C219.841 49.1368 239.137 36.2596 244.306 41.0038C252.92 49.4757 206.747 105.39 157.128 154.527C130.25 180.959 103.373 204.68 81.6649 220.946C68.2263 231.112 52.3758 241.617 44.795 241.617ZM129.561 128.094C69.6047 187.397 35.836 233.823 42.383 239.923C45.8288 243.312 59.9565 236.195 80.9758 220.268C102.684 204.002 129.217 180.62 156.094 154.188C216.05 94.8848 249.819 48.459 243.272 42.3593C239.826 38.9706 225.699 46.0869 204.679 62.014C182.971 78.2799 156.438 101.662 129.561 128.094Z" fill="white" fill-opacity="0.22"/>
<path d="M64.0915 249.75C63.4023 249.75 62.3686 249.412 62.024 249.073C52.3758 242.295 88.212 183.331 127.838 130.128C149.547 101.324 171.255 75.5691 189.173 57.2699C201.923 44.0538 218.463 29.4822 223.976 33.2099C233.624 39.9873 197.788 98.9515 158.161 152.155C136.453 180.959 114.745 206.713 96.8264 225.013C85.1108 236.534 70.9831 249.75 64.0915 249.75ZM128.528 130.806C80.2867 194.853 55.477 243.312 62.3686 248.395C64.0915 249.75 70.6385 249.75 95.7927 224.674C113.711 206.375 135.419 180.62 157.128 151.816C205.369 87.7686 230.178 39.3097 223.287 34.2265C219.841 31.5155 207.092 40.6651 189.863 57.9477C171.945 76.2469 150.236 102.001 128.528 130.806Z" fill="white" fill-opacity="0.22"/>
<path d="M83.7326 257.545C83.0434 257.545 82.6988 257.545 82.3543 257.206C72.0169 252.123 96.8266 189.77 126.805 132.839C143 102.001 159.884 73.536 174.357 53.2035C184.694 38.632 198.133 22.027 203.99 24.738C214.328 29.8211 189.518 92.174 159.54 149.105C143.345 179.942 126.46 208.408 111.988 228.74C102.34 242.295 89.935 257.545 83.7326 257.545ZM127.494 133.517C91.3133 202.308 75.1181 252.8 82.6988 256.528C86.4892 258.561 97.1711 248.056 110.954 228.401C125.427 208.069 142.311 179.942 158.506 149.105C194.687 80.3134 210.882 29.8212 203.301 26.0936C199.511 24.0604 188.829 34.5654 175.046 54.2201C160.574 74.5526 143.689 102.679 127.494 133.517Z" fill="white" fill-opacity="0.22"/>
<path d="M103.373 265.677C103.029 265.677 102.684 265.677 102.34 265.677C91.3132 262.289 105.441 196.886 125.426 135.889C136.108 102.679 148.169 72.1803 158.851 49.8146C166.431 33.8876 177.113 15.2494 183.316 16.9438C194.342 20.3325 180.214 85.7352 160.229 146.733C149.547 179.942 137.487 210.441 126.805 232.807C119.569 248.056 109.576 265.677 103.373 265.677ZM126.116 135.55C101.995 209.424 94.4144 261.611 102.34 264.322C106.475 265.677 115.089 253.478 125.426 232.129C136.108 209.763 148.169 179.264 158.851 146.055C182.971 72.1803 190.552 19.9937 182.627 17.2827C178.492 15.9272 169.877 28.1267 159.54 49.4757C148.858 71.8414 136.798 102.34 126.116 135.55Z" fill="white" fill-opacity="0.22"/>
<path d="M123.014 273.81H122.67C110.954 272.116 114.4 203.664 124.393 138.261C129.906 103.018 136.798 70.1472 144.034 45.4094C149.202 27.7879 156.783 7.11661 163.33 8.13323C175.046 9.8276 171.6 78.2802 161.607 143.683C156.094 178.926 149.202 211.797 141.966 236.534C136.798 253.478 129.561 273.81 123.014 273.81ZM125.082 138.261C113.022 216.88 114.055 271.1 122.67 272.455C127.149 273.133 134.041 259.578 140.933 235.857C148.169 211.458 155.06 178.587 160.574 143.344C172.634 64.7252 171.6 10.5054 162.986 9.14992C158.506 8.47217 151.614 22.0271 144.723 45.7483C137.487 70.1472 130.595 103.018 125.082 138.261Z" fill="white" fill-opacity="0.22"/>
<path d="M143 281.943C130.595 281.943 123.359 210.441 123.359 140.972C123.359 71.8413 130.595 0 143 0C155.405 0 162.641 71.5024 162.641 140.972C162.641 210.441 155.405 281.943 143 281.943ZM143 1.35548C134.041 1.35548 124.393 57.6086 124.393 141.311C124.393 225.012 134.041 281.265 143 281.265C151.959 281.265 161.607 225.012 161.607 141.311C161.607 57.2698 151.959 1.35548 143 1.35548Z" fill="white" fill-opacity="0.22"/>
<path d="M162.641 273.81C156.094 273.81 148.858 253.817 143.689 236.534C136.453 212.135 129.561 179.265 124.048 143.683C114.055 78.619 110.61 10.1665 122.325 8.13323C128.872 7.11661 136.453 27.7879 141.622 45.4094C148.858 69.8083 155.749 102.679 161.263 138.261C171.255 203.325 174.701 271.777 162.985 273.81C162.985 273.81 162.985 273.81 162.641 273.81ZM125.426 143.683C130.94 178.926 137.831 211.797 145.067 236.196C151.959 259.578 158.85 273.133 163.33 272.794C171.944 271.438 172.978 217.219 160.918 138.6C155.405 103.357 148.513 70.4861 141.277 46.0872C134.385 22.7049 127.494 9.14984 123.014 9.48871C114.4 10.5053 113.366 65.0641 125.426 143.683Z" fill="white" fill-opacity="0.22"/>
<path d="M182.282 265.677C176.08 265.677 166.087 248.056 158.851 232.806C148.169 210.441 136.108 179.942 125.426 146.732C105.441 85.735 91.3132 20.3324 102.34 16.9436C108.542 14.9104 118.88 33.5485 126.805 49.8145C137.487 72.1801 149.547 102.679 160.229 135.888C180.214 196.886 194.342 262.288 183.316 265.677C182.971 265.677 182.626 265.677 182.282 265.677ZM126.46 146.394C137.142 179.603 149.202 210.102 159.884 232.468C170.222 253.817 178.836 266.016 182.971 264.661C190.896 262.288 183.316 209.763 159.195 135.888C148.513 102.679 136.453 72.1801 125.771 49.8145C115.434 28.4654 106.819 16.2659 102.684 17.6214C94.759 19.9935 102.34 72.519 126.46 146.394Z" fill="white" fill-opacity="0.22"/>
<path d="M202.267 257.544C196.065 257.544 183.66 242.295 174.012 228.74C159.54 208.408 142.655 180.281 126.46 149.105C96.4819 92.1737 71.6723 29.8208 82.0096 24.7377C87.8675 21.6878 101.306 38.6316 111.643 53.2032C126.116 73.5357 143 101.662 159.195 132.839C189.173 189.769 213.983 252.122 203.646 257.205C203.301 257.544 202.612 257.544 202.267 257.544ZM127.494 148.766C143.689 179.603 160.574 207.73 175.046 228.062C188.829 247.717 199.511 258.222 203.301 256.189C210.882 252.461 194.342 201.969 158.506 133.177C142.311 102.34 125.426 74.2134 110.954 53.8809C97.1711 34.2262 86.4892 23.7212 82.6988 25.7544C75.1181 29.482 91.3133 79.9742 127.494 148.766Z" fill="white" fill-opacity="0.22"/>
<path d="M221.564 249.75C214.672 249.75 200.545 236.873 189.174 225.013C171.255 206.713 149.202 180.959 127.839 152.155C87.8675 99.2903 52.376 39.9873 62.0241 33.2099C67.5374 29.4822 83.7326 44.0538 96.8266 57.2699C114.745 75.5691 136.798 101.324 158.161 130.128C198.133 182.992 233.624 242.295 223.976 249.073C223.287 249.412 222.598 249.75 221.564 249.75ZM128.528 151.477C150.236 180.281 171.945 206.036 189.863 224.335C214.672 249.75 221.564 249.412 223.287 248.056C230.178 242.973 205.369 194.514 157.128 130.467C135.419 101.662 113.711 75.908 95.7928 57.6088C70.9832 32.1933 64.0916 32.5322 62.3687 33.8876C55.4772 38.9708 80.6314 87.4298 128.528 151.477Z" fill="white" fill-opacity="0.22"/>
<path d="M240.86 241.618C233.279 241.618 217.429 230.774 203.99 220.946C182.282 204.68 155.749 181.298 128.528 154.527C78.9084 105.39 32.3903 49.8148 41.3494 41.0041C46.1735 36.2599 65.8144 48.7982 81.3205 60.6588C103.029 76.9247 129.561 100.307 156.783 127.078C206.402 176.215 252.92 231.79 243.961 240.601C243.272 241.279 242.239 241.618 240.86 241.618ZM129.561 154.188C156.439 180.62 183.316 204.341 204.679 220.268C225.699 236.196 239.827 243.312 243.272 239.923C249.819 233.485 216.051 187.059 156.094 128.095C129.217 101.663 102.34 77.9413 80.9759 62.0142C59.9566 46.0872 45.8289 38.9709 42.3831 42.3596C35.8361 48.4593 69.6048 94.8851 129.561 154.188Z" fill="white" fill-opacity="0.22"/>
<path d="M248.441 222.301C240.86 222.301 225.354 214.846 212.26 208.069C189.518 195.869 160.918 177.231 131.629 156.221C77.8747 116.911 26.188 70.8246 33.0796 61.675C36.8699 56.253 57.2 65.7415 73.3952 74.5522C96.1374 86.7516 124.737 105.39 154.027 126.4C207.781 165.709 259.467 211.796 252.576 220.946C251.542 221.962 250.164 222.301 248.441 222.301ZM132.318 155.204C161.607 176.553 189.863 194.853 212.605 207.052C243.961 223.996 250.508 221.962 251.542 220.268C256.711 213.491 218.463 174.52 153.337 127.078C124.048 105.729 95.7928 87.4294 73.0506 75.23C41.694 58.2863 35.147 60.3194 34.1133 62.0138C28.9446 68.7913 67.1928 107.762 132.318 155.204Z" fill="white" fill-opacity="0.22"/>
<path d="M254.299 202.986C246.029 202.986 231.901 198.919 219.841 194.514C196.065 186.042 165.742 172.826 134.386 156.899C76.4964 127.417 19.641 91.1571 24.8097 80.9909C27.9109 75.23 48.5856 81.3298 65.8145 87.0907C89.5904 95.5625 119.913 108.779 151.27 124.706C209.159 154.188 266.014 190.447 260.846 200.614C260.157 202.308 257.745 202.986 254.299 202.986ZM135.075 156.221C166.431 172.148 196.754 185.364 220.53 193.836C243.272 201.969 258.089 204.341 260.157 200.614C263.947 193.158 220.875 161.643 150.925 126.061C119.569 110.134 89.2458 96.918 65.4699 88.4462C42.7277 80.3132 27.9109 77.9411 25.8434 81.6687C22.053 89.1239 64.7807 120.639 135.075 156.221Z" fill="white" fill-opacity="0.22"/>
<path d="M256.711 184.687C248.441 184.687 237.759 183.331 227.766 181.637C202.957 177.231 170.566 169.098 137.142 158.593C75.1182 138.939 12.7495 112.168 16.1953 101.662C18.2628 95.5627 39.6266 97.9348 57.5447 100.985C82.3543 105.39 114.745 113.523 148.169 124.028C210.193 143.683 272.562 170.454 269.116 180.959C268.427 183.67 263.603 184.687 256.711 184.687ZM137.487 157.238C171.256 167.743 203.301 176.215 228.111 180.281C251.887 184.348 267.048 184.348 268.427 180.281C270.839 172.487 223.287 148.088 148.169 124.367C114.4 113.862 82.3543 105.39 57.5447 101.324C33.7688 97.2571 18.6074 97.2571 17.229 101.324C14.817 109.457 62.7134 133.517 137.487 157.238Z" fill="white" fill-opacity="0.22"/>
<path d="M241.205 168.42C239.482 168.42 237.759 168.42 236.036 168.42C210.193 168.082 176.08 165.032 140.243 159.61C74.0844 149.782 6.547 132.839 8.26989 121.317C9.30363 114.878 31.7012 113.862 49.9639 114.201C75.8073 114.539 109.921 117.589 145.757 123.011C211.916 132.839 279.453 149.782 277.73 161.304C276.696 166.726 258.434 168.42 241.205 168.42ZM44.4506 114.878C13.4386 114.878 9.30367 119.284 8.95909 121.317C7.58078 129.789 59.9567 146.732 140.243 158.254C176.08 163.676 210.193 166.726 236.036 167.065C271.872 167.743 276.352 162.659 276.696 160.626C278.075 152.154 225.699 135.211 145.412 123.689C109.576 118.267 75.4627 115.217 49.6193 114.878C47.8964 114.878 46.1735 114.878 44.4506 114.878Z" fill="white" fill-opacity="0.22"/>
<path d="M143 160.626C72.706 160.626 0 153.51 0 141.31C0 129.111 72.706 121.995 143 121.995C213.294 121.995 286 129.111 286 141.31C286 153.51 213.294 160.626 143 160.626ZM143 122.672C57.8892 122.672 1.03375 132.161 1.03375 140.972C1.03375 149.782 58.2337 159.271 143 159.271C227.766 159.271 284.966 149.782 284.966 140.972C284.966 132.161 227.766 122.672 143 122.672Z" fill="white" fill-opacity="0.22"/>
</g>
</svg>
