<svg width="246" height="235" viewBox="0 0 246 235" fill="none" xmlns="http://www.w3.org/2000/svg">
<g opacity="0.9">
<path d="M7.06748 14.1354C7.95094 11.485 7.06738 7.0675 5.30046 6.18404C3.53355 5.30059 1.76664 6.1841 0.883179 7.06755V16.7856C2.65009 18.5525 5.30057 16.7857 7.06748 14.1354Z" fill="white" fill-opacity="0.54"/>
<path d="M26.5037 3.53377C29.154 5.30069 30.921 4.41734 31.8044 0.883511V0H23.8534C24.7369 1.76691 25.6202 2.65032 26.5037 3.53377Z" fill="white" fill-opacity="0.54"/>
<path d="M23.8536 24.7365C24.7371 22.0862 23.8535 18.5524 22.0866 16.7855C19.4362 15.0186 16.786 16.7854 15.9026 19.4357C15.0191 22.0861 15.019 25.6202 17.6693 27.3871C19.4362 29.154 22.9702 27.3869 23.8536 24.7365Z" fill="white" fill-opacity="0.54"/>
<path d="M6.18394 49.4733C8.83431 50.3567 11.4846 49.4731 13.2515 46.8227C15.0184 44.1724 14.1351 40.6386 11.4847 39.7552C8.83436 38.8717 6.18383 39.7551 4.41692 43.2889C2.65 46.8228 4.41702 47.7063 6.18394 49.4733Z" fill="white" fill-opacity="0.54"/>
<path d="M0 60.9585V68.9096C0 68.0261 0.88351 68.0263 0.88351 67.1428C2.65042 64.4924 2.65037 61.842 0 60.9585Z" fill="white" fill-opacity="0.54"/>
<path d="M43.2892 17.6686C45.9396 19.4356 47.7063 18.552 48.5897 15.9016C49.4732 13.2513 47.7063 9.71743 45.0559 7.06706C42.4056 5.30015 40.6387 5.30025 40.6387 8.83408C39.7552 12.3679 41.5223 15.9017 43.2892 17.6686Z" fill="white" fill-opacity="0.54"/>
<path d="M38.8722 29.1536C36.2218 27.3867 33.5713 28.2702 32.6879 30.9206C31.8044 33.571 31.8045 37.1047 34.4549 37.9882C37.1053 39.7551 39.7555 38.8718 40.6389 36.2214C42.4059 34.4545 41.5226 30.9205 38.8722 29.1536Z" fill="white" fill-opacity="0.54"/>
<path d="M23.8538 57.4254C26.5042 58.3088 29.1545 57.4252 30.9214 54.7748C32.6883 52.1245 31.805 49.4742 29.1546 47.7073C26.5043 46.8238 23.8537 47.7072 22.0868 50.3576C20.3199 53.0079 21.2035 56.5419 23.8538 57.4254Z" fill="white" fill-opacity="0.54"/>
<path d="M10.6015 70.6766C8.83456 73.327 9.71812 75.9772 12.3685 76.8607C15.0189 77.7441 17.6691 75.9773 19.436 74.2104C21.203 71.56 20.3194 68.9096 17.669 68.0261C15.0186 67.1426 12.3684 68.0263 10.6015 70.6766Z" fill="white" fill-opacity="0.54"/>
<path d="M7.95133 92.7633C8.83478 90.113 8.83467 87.4625 6.1843 87.4625C4.41739 86.5791 1.76691 88.3459 0 90.1128V95.4136C0 95.4136 0.883564 96.2971 1.76702 96.2971C4.41739 96.2971 7.06787 94.5302 7.95133 92.7633Z" fill="white" fill-opacity="0.54"/>
<path d="M0 107.781V111.315V110.432C0.883457 110.432 0.883457 108.665 0 107.781Z" fill="white" fill-opacity="0.54"/>
<path d="M63.6088 13.2518C66.2591 15.0187 68.026 15.0187 67.1425 12.3683C66.2591 9.71791 64.4921 6.18414 61.8418 4.41723C59.1914 2.65031 58.308 2.65031 58.308 4.41723C58.308 7.0676 60.9584 11.4849 63.6088 13.2518Z" fill="white" fill-opacity="0.54"/>
<path d="M60.9587 31.8039C63.6091 33.5708 65.3758 32.6873 66.2592 30.9204C67.1427 28.27 65.3758 24.7362 62.7255 22.9693C60.0751 21.2024 58.3081 21.2022 57.4247 23.8526C57.4247 26.5029 59.1918 30.037 60.9587 31.8039Z" fill="white" fill-opacity="0.54"/>
<path d="M58.308 48.59C59.1915 46.8231 58.3082 43.2891 56.5413 41.5222C53.8909 39.7553 51.2404 40.6388 50.357 42.4057C49.4735 45.0561 49.4736 47.7066 52.124 49.4735C53.8909 51.2404 57.4246 51.2404 58.308 48.59Z" fill="white" fill-opacity="0.54"/>
<path d="M47.7069 64.4918C49.4738 62.7248 48.5902 60.0746 45.9398 58.3077C43.2895 57.4243 40.6392 57.4241 38.8723 60.0745C37.1054 61.8414 37.9887 65.3753 40.6391 66.2588C43.2894 67.1422 45.94 66.2587 47.7069 64.4918Z" fill="white" fill-opacity="0.54"/>
<path d="M29.1544 83.0451C31.8047 83.9285 34.455 83.0452 36.2219 80.3948C37.9888 78.6279 37.1055 75.9775 34.4552 75.094C31.8048 74.2106 29.1542 75.0939 27.3873 77.7443C26.5039 79.5112 27.3874 82.1616 29.1544 83.0451Z" fill="white" fill-opacity="0.54"/>
<path d="M25.6208 96.2968C26.5042 94.5299 25.6207 91.8795 23.8537 91.8795C21.2034 90.9961 18.5529 92.7629 17.6694 94.5298C16.786 97.1802 17.6695 98.9471 19.4365 98.9471C21.2034 99.8305 24.7373 98.0637 25.6208 96.2968Z" fill="white" fill-opacity="0.54"/>
<path d="M18.5525 112.199C19.436 110.432 17.6692 107.781 15.9022 107.781C13.2519 107.781 11.4849 109.548 10.6015 111.315C9.718 113.966 11.4848 115.733 13.2517 115.733C15.0186 116.616 17.6691 114.849 18.5525 112.199Z" fill="white" fill-opacity="0.54"/>
<path d="M15.9026 129.868C15.9026 128.101 14.1356 125.451 11.4853 125.451C8.83491 125.451 7.06799 127.218 7.06799 129.868C7.06799 131.635 8.83491 133.402 11.4853 133.402C14.1356 133.402 15.9026 131.635 15.9026 129.868Z" fill="white" fill-opacity="0.54"/>
<path d="M6.18433 145.77C6.18433 147.537 7.06773 149.304 9.7181 149.304C12.3685 149.304 14.1354 147.537 14.1354 145.77C14.1354 144.003 13.252 142.236 10.6016 142.236C8.8347 142.236 6.18433 144.003 6.18433 145.77Z" fill="white" fill-opacity="0.54"/>
<path d="M5.30079 164.324C7.0677 164.324 9.71813 162.557 10.6016 159.907C11.485 158.14 9.71823 156.373 7.95132 157.256C6.18441 157.256 3.53398 159.023 2.65053 161.673C1.76707 163.44 2.65042 164.324 5.30079 164.324Z" fill="white" fill-opacity="0.54"/>
<path d="M4.41728 174.041C5.30074 172.274 4.41739 171.391 1.76702 171.391C0.883564 171.391 0.883457 172.274 0 172.274V177.575C2.65037 177.575 4.41728 175.808 4.41728 174.041Z" fill="white" fill-opacity="0.54"/>
<path d="M4.41728 228.815C3.53383 227.048 1.76691 227.048 0 227.048V234.999H4.41728C6.1842 233.232 6.1842 230.582 4.41728 228.815Z" fill="white" fill-opacity="0.54"/>
<path d="M78.6276 10.6011C81.278 12.368 83.0449 11.4847 82.1614 8.83436C81.2779 6.18399 77.744 2.65021 75.0936 0.883301H71.5598C71.5598 0.883301 71.5598 1.7666 71.5598 2.65005C72.4433 4.41697 75.9773 8.83419 78.6276 10.6011Z" fill="white" fill-opacity="0.54"/>
<path d="M82.162 29.1544C84.8124 30.9213 86.5793 30.9212 86.5793 28.2708C86.5793 25.6205 83.9289 22.0867 81.2785 20.3198C78.6281 18.5529 76.8613 18.5529 77.7447 21.2033C77.7447 23.8537 79.5116 27.3874 82.162 29.1544Z" fill="white" fill-opacity="0.54"/>
<path d="M79.5107 45.9398C82.1611 47.7067 84.8116 47.7069 85.6951 45.0565C86.5785 43.2896 84.8117 39.7556 82.1613 37.9887C79.5109 36.2218 77.7439 36.2219 76.8605 38.8722C75.977 40.6392 76.8604 44.1729 79.5107 45.9398Z" fill="white" fill-opacity="0.54"/>
<path d="M76.8607 60.9584C78.6276 59.1915 76.8606 56.541 75.0937 54.7741C72.4433 53.0072 69.7931 53.8907 68.0261 55.6576C67.1427 57.4246 67.1428 60.075 69.7932 61.8419C72.4435 62.7254 75.0938 62.7254 76.8607 60.9584Z" fill="white" fill-opacity="0.54"/>
<path d="M64.4929 68.0256C61.8425 67.1421 59.192 67.1422 57.4251 68.9091C55.6582 70.676 56.5417 73.3264 59.1921 74.2099C61.8425 75.0934 64.4927 75.0933 66.2596 73.3264C67.1431 71.5595 66.2598 69.7925 64.4929 68.0256Z" fill="white" fill-opacity="0.54"/>
<path d="M46.8234 88.3453C49.4738 89.2288 52.1241 88.3452 53.891 86.5783C55.6579 84.8114 54.7746 83.0445 52.1242 82.161C49.4738 81.2776 46.8233 82.1611 45.0564 83.928C44.1729 85.695 45.0565 87.4619 46.8234 88.3453Z" fill="white" fill-opacity="0.54"/>
<path d="M37.1057 102.481C39.756 102.481 42.4065 101.598 43.29 99.831C44.1734 98.0641 43.2899 96.2971 41.523 95.4137C38.8726 94.5302 36.2221 96.2973 35.3387 98.0642C33.5717 99.8311 34.4553 101.598 37.1057 102.481Z" fill="white" fill-opacity="0.54"/>
<path d="M36.2217 113.966C37.1052 112.199 35.3383 110.432 33.5714 110.432C30.9211 110.432 28.2706 111.316 28.2706 113.966C27.3872 115.733 29.154 117.5 30.9209 117.5C32.6878 117.5 35.3382 115.733 36.2217 113.966Z" fill="white" fill-opacity="0.54"/>
<path d="M33.5717 129.869C33.5717 128.102 31.8048 126.335 29.1545 126.335C26.5041 126.335 24.7372 128.102 24.7372 129.869C24.7372 131.636 26.5041 133.403 29.1545 133.403C31.8048 133.403 33.5717 131.636 33.5717 129.869Z" fill="white" fill-opacity="0.54"/>
<path d="M26.5033 148.421C29.1537 148.421 30.9206 146.654 31.8041 144.887C32.6876 143.12 30.9207 141.353 28.2703 141.353C25.62 141.353 23.853 143.12 23.853 144.887C22.9696 146.654 23.8529 148.421 26.5033 148.421Z" fill="white" fill-opacity="0.54"/>
<path d="M26.5036 158.139C27.3871 156.372 25.6203 155.488 23.8534 155.488C22.0865 155.488 19.436 157.255 18.5526 159.022C17.6691 160.789 18.5527 161.672 21.2031 161.672C23.8535 160.789 25.6202 159.905 26.5036 158.139Z" fill="white" fill-opacity="0.54"/>
<path d="M20.3198 169.623C21.2033 167.856 20.3197 166.973 17.6693 167.856C15.9024 168.74 13.2522 170.507 12.3688 171.39C11.4853 173.157 12.3687 174.041 15.0191 173.157C17.6694 173.157 19.4364 171.39 20.3198 169.623Z" fill="white" fill-opacity="0.54"/>
<path d="M9.71798 184.643C11.4849 183.76 13.2518 181.993 14.1353 180.226C15.0187 178.459 14.1354 178.459 12.3685 179.342C10.6016 180.226 7.95123 181.993 7.95123 183.76C7.06777 185.527 7.95107 185.527 9.71798 184.643Z" fill="white" fill-opacity="0.54"/>
<path d="M7.95134 190.826C6.18443 191.71 4.41751 193.477 3.53406 195.243C3.53406 197.01 4.41741 197.01 6.18432 196.127C7.95123 195.243 9.71809 192.593 9.71809 190.826C10.6015 189.059 9.71825 189.059 7.95134 190.826Z" fill="white" fill-opacity="0.54"/>
<path d="M7.06816 208.496C8.83508 206.729 9.71837 204.078 8.83491 202.312C8.83491 200.545 7.06805 200.545 5.30114 202.312C3.53423 204.078 2.65088 206.729 2.65088 207.612C3.53434 210.263 5.30125 210.263 7.06816 208.496Z" fill="white" fill-opacity="0.54"/>
<path d="M16.7859 222.631C18.5528 220.864 18.5528 218.214 16.7859 216.447C15.019 214.68 12.3686 214.68 11.4851 215.564C9.71818 217.331 9.71818 219.981 11.4851 221.748C12.3686 223.515 15.9024 224.398 16.7859 222.631Z" fill="white" fill-opacity="0.54"/>
<path d="M22.9699 231.466C22.0864 232.349 22.0866 233.233 21.2031 235H28.2707C28.2707 234.116 28.2707 234.116 28.2707 233.233C27.3872 230.582 24.7368 229.699 22.9699 231.466Z" fill="white" fill-opacity="0.54"/>
<path d="M102.481 21.2024C101.598 18.552 98.064 15.0182 95.4136 13.2513C92.7632 11.4844 90.9964 13.2512 91.8798 15.9016C92.7633 18.5519 95.4135 22.0857 98.0639 23.8526C102.481 25.6195 103.365 23.8527 102.481 21.2024Z" fill="white" fill-opacity="0.54"/>
<path d="M101.597 34.4548C98.9471 32.6879 97.1802 33.5714 97.1802 35.3383C97.1802 37.1052 99.8306 40.6389 102.481 42.4059C105.131 44.1728 106.898 43.2893 106.898 41.5223C106.898 39.7554 104.248 36.2217 101.597 34.4548Z" fill="white" fill-opacity="0.54"/>
<path d="M100.714 51.24C98.0639 49.473 95.4135 50.3566 95.4135 52.1235C94.53 53.8904 95.4134 56.5409 98.0637 58.3078C100.714 60.0747 103.365 59.1912 104.248 57.4243C105.131 54.7739 103.365 52.1234 100.714 51.24Z" fill="white" fill-opacity="0.54"/>
<path d="M86.5786 66.2597C84.8117 68.0266 85.695 69.7936 88.3454 71.5605C90.9957 72.4439 93.6463 72.4439 95.4132 70.677C97.1801 68.9101 96.2965 67.1431 93.6461 65.3762C90.9958 64.4927 88.3455 64.4928 86.5786 66.2597Z" fill="white" fill-opacity="0.54"/>
<path d="M76.8607 82.1609C79.511 83.0443 82.1613 82.1608 83.9282 81.2774C85.6951 80.3939 84.8118 77.7435 82.1615 76.8601C79.5111 75.9766 76.8606 75.9767 75.0936 77.7436C74.2102 79.5105 74.2103 81.2774 76.8607 82.1609Z" fill="white" fill-opacity="0.54"/>
<path d="M65.3758 92.7636C68.0262 93.647 70.6765 92.7635 72.4434 90.9965C74.2103 89.2296 73.3267 88.3462 70.6763 87.4628C68.026 86.5793 65.3757 87.4629 63.6088 89.2298C61.8419 90.9967 62.7254 92.7636 65.3758 92.7636Z" fill="white" fill-opacity="0.54"/>
<path d="M60.959 102.481C61.8425 100.714 61.8424 99.8302 59.192 98.9468C56.5416 98.9468 53.8912 99.8303 53.0077 100.714C52.1242 102.481 53.0078 104.248 54.7747 104.248C57.4251 105.131 60.0756 104.248 60.959 102.481Z" fill="white" fill-opacity="0.54"/>
<path d="M53.8908 114.849C54.7742 113.082 53.8909 111.315 51.2405 111.315C48.5901 111.315 45.9397 112.199 45.9397 113.966C45.0563 115.733 46.8231 117.499 48.59 117.499C50.3569 118.383 53.0073 116.616 53.8908 114.849Z" fill="white" fill-opacity="0.54"/>
<path d="M51.2409 129.869C51.2409 128.102 49.474 126.335 46.8237 126.335C44.1733 126.335 42.4064 128.102 42.4064 129.869C42.4064 131.636 44.1733 133.403 46.8237 133.403C48.5906 133.403 51.2409 131.636 51.2409 129.869Z" fill="white" fill-opacity="0.54"/>
<path d="M48.59 144.003C49.4735 142.236 47.7066 141.353 45.0563 141.353C42.4059 141.353 40.6389 143.12 39.7555 144.887C38.872 146.654 40.6391 147.537 42.406 147.537C45.9398 147.537 47.7066 145.77 48.59 144.003Z" fill="white" fill-opacity="0.54"/>
<path d="M37.9889 159.022C39.7558 159.022 42.4062 157.255 43.2897 156.371C44.1731 154.604 43.2895 153.721 40.6391 154.604C38.8722 154.604 36.2218 156.371 35.3384 158.138C34.4549 158.138 35.3385 159.022 37.9889 159.022Z" fill="white" fill-opacity="0.54"/>
<path d="M36.2214 165.206C37.1049 164.323 36.2216 163.44 34.4547 164.323C32.6877 165.206 30.0373 166.09 29.1539 167.857C28.2704 168.74 29.1537 169.624 30.9206 168.74C32.6875 167.857 35.338 166.973 36.2214 165.206Z" fill="white" fill-opacity="0.54"/>
<path d="M23.8538 177.575C25.6207 176.692 28.2712 174.924 29.1546 174.041C30.0381 173.158 29.1545 173.158 27.3876 174.041C25.6207 174.924 22.9703 176.692 22.0868 177.575C21.2033 178.459 22.0869 178.459 23.8538 177.575Z" fill="white" fill-opacity="0.54"/>
<path d="M21.2032 181.992C19.4363 182.875 17.6693 184.642 16.7859 186.409C16.7859 187.292 17.6692 187.292 19.4362 186.409C21.2031 185.526 22.97 182.875 23.8534 181.992C24.7369 180.225 22.9701 180.225 21.2032 181.992Z" fill="white" fill-opacity="0.54"/>
<path d="M22.0866 191.71C22.0866 189.944 20.3198 189.944 18.5528 191.71C16.7859 193.477 15.9026 195.244 15.9026 197.011C15.9026 198.778 17.6694 198.778 19.4364 197.011C21.2033 195.244 22.0866 192.594 22.0866 191.71Z" fill="white" fill-opacity="0.54"/>
<path d="M29.1545 210.262C30.9215 208.495 30.9215 205.845 29.1545 204.078C27.3876 202.311 24.7372 202.311 23.8537 204.078C22.0868 205.845 22.0868 208.495 23.8537 210.262C24.7372 212.029 28.2711 212.029 29.1545 210.262Z" fill="white" fill-opacity="0.54"/>
<path d="M35.3385 219.981C33.5716 221.748 33.5718 225.282 34.4553 227.932C35.3387 230.583 37.9889 232.35 39.7558 230.583C41.5227 228.816 41.5228 225.282 40.6393 222.631C39.7558 219.098 37.1054 218.214 35.3385 219.981Z" fill="white" fill-opacity="0.54"/>
<path d="M105.131 0.883301C106.898 4.41713 109.549 7.9509 112.199 8.83436C114.849 9.71781 115.733 7.06739 114.849 3.53356C114.849 2.65011 113.966 1.76676 113.083 0.883301H105.131C104.248 0.883301 104.248 0.883301 105.131 0.883301Z" fill="white" fill-opacity="0.54"/>
<path d="M113.966 25.6204C114.85 28.2708 117.5 31.8045 120.15 32.688C122.801 33.5714 124.567 31.8045 123.684 28.2707C122.8 25.6203 120.15 22.0866 117.5 21.2031C113.966 21.2031 113.083 22.97 113.966 25.6204Z" fill="white" fill-opacity="0.54"/>
<path d="M121.917 44.1731C119.267 43.2897 117.5 44.173 117.5 46.8234C117.5 48.5903 119.267 51.2407 121.917 52.1242C124.568 53.0076 126.335 52.1243 126.335 49.4739C126.335 47.707 124.568 45.0566 121.917 44.1731Z" fill="white" fill-opacity="0.54"/>
<path d="M122.801 64.4919C123.684 62.725 121.917 60.958 120.15 60.0746C117.5 59.1911 114.85 60.0747 113.966 61.8416C113.083 63.6085 113.966 65.3754 116.617 66.2589C119.267 67.1424 121.917 66.2588 122.801 64.4919Z" fill="white" fill-opacity="0.54"/>
<path d="M105.132 74.2109C103.365 75.9778 104.248 76.8612 106.898 77.7446C109.549 78.6281 112.199 77.7446 113.966 76.8611C115.733 75.0942 114.849 74.2108 112.199 73.3274C109.549 72.4439 106.898 72.4439 105.132 74.2109Z" fill="white" fill-opacity="0.54"/>
<path d="M100.714 83.0456C98.064 82.1622 95.4134 83.0457 93.6465 83.9291C91.8796 84.8126 92.7632 86.5794 95.4135 87.4629C98.0639 88.3464 100.714 87.4628 102.481 85.6959C103.365 84.8124 103.365 83.0456 100.714 83.0456Z" fill="white" fill-opacity="0.54"/>
<path d="M83.045 96.2972C85.6954 96.2972 88.3456 95.4136 90.1125 94.5301C91.8795 93.6467 90.9959 91.8799 88.3455 91.8799C85.6952 91.8799 83.0449 91.88 81.278 93.6469C80.3945 94.5304 80.3946 96.2972 83.045 96.2972Z" fill="white" fill-opacity="0.54"/>
<path d="M79.5112 104.248C80.3947 102.481 80.3949 101.598 77.7445 101.598C75.0941 101.598 72.4436 102.481 71.5602 103.364C70.6767 105.131 71.5603 106.015 73.3272 106.015C75.0941 106.015 77.7443 105.131 79.5112 104.248Z" fill="white" fill-opacity="0.54"/>
<path d="M66.2592 118.383C68.9096 118.383 70.6766 116.616 71.56 114.849C72.4435 113.082 71.5601 112.199 68.9098 112.199C66.2594 112.199 63.609 113.082 63.609 114.849C61.842 116.616 63.6089 118.383 66.2592 118.383Z" fill="white" fill-opacity="0.54"/>
<path d="M64.4928 126.335C61.8425 126.335 60.0756 128.102 60.0756 129.869C60.0756 131.636 61.8424 133.403 63.6093 133.403C66.2597 133.403 68.0266 131.636 68.0266 129.869C68.0266 127.218 66.2598 126.335 64.4928 126.335Z" fill="white" fill-opacity="0.54"/>
<path d="M60.9587 146.654C63.6091 146.654 65.3758 144.887 66.2592 144.003C67.1427 142.236 65.3758 141.353 62.7255 141.353C60.0751 141.353 58.3081 143.12 57.4247 144.003C57.4247 145.77 58.3084 146.654 60.9587 146.654Z" fill="white" fill-opacity="0.54"/>
<path d="M53.8912 156.371C55.6581 156.371 58.3086 154.605 59.192 153.721C60.0755 152.838 59.1921 151.954 56.5418 151.954C54.7748 151.954 52.1244 153.721 51.241 154.605C51.241 155.488 52.1243 156.371 53.8912 156.371Z" fill="white" fill-opacity="0.54"/>
<path d="M45.9402 163.439C47.7072 162.556 50.3576 161.672 51.241 160.789C52.1245 159.905 51.2409 159.905 49.474 159.905C47.7071 160.789 45.0567 161.672 44.1732 162.556C43.2898 164.322 44.1733 164.323 45.9402 163.439Z" fill="white" fill-opacity="0.54"/>
<path d="M44.1727 166.973C45.0561 166.09 44.1728 166.09 42.4059 166.973C40.639 167.857 37.9886 168.74 37.1051 169.623C36.2217 170.507 37.1052 170.507 38.8721 169.623C40.639 168.74 43.2892 167.857 44.1727 166.973Z" fill="white" fill-opacity="0.54"/>
<path d="M33.5716 175.808C35.3385 174.925 37.1054 173.158 37.9889 172.275C38.8723 171.391 37.9888 172.275 36.2219 173.158C34.4549 174.042 32.688 175.808 31.8046 176.692C30.9211 177.575 31.8047 177.575 33.5716 175.808Z" fill="white" fill-opacity="0.54"/>
<path d="M34.4551 180.225C34.4551 179.342 32.688 179.342 31.8046 181.109C30.0377 182.876 28.2709 184.643 29.1543 186.41C30.0378 188.177 30.9212 187.293 32.6881 186.41C33.5715 183.759 34.4551 181.109 34.4551 180.225Z" fill="white" fill-opacity="0.54"/>
<path d="M41.5226 191.71C39.7557 189.944 37.1052 189.944 36.2218 191.71C34.4549 193.477 34.4549 196.128 36.2218 197.895C37.9887 199.662 40.6392 199.662 42.4061 198.778C43.2896 196.128 43.2895 193.477 41.5226 191.71Z" fill="white" fill-opacity="0.54"/>
<path d="M48.5903 207.613C46.8234 209.38 46.8236 212.914 47.7071 215.564C48.5905 218.215 51.2407 219.981 53.0076 218.214C54.7745 216.448 54.7746 212.914 53.8911 209.38C52.1242 206.73 49.4738 205.846 48.5903 207.613Z" fill="white" fill-opacity="0.54"/>
<path d="M56.5414 233.232C55.658 233.232 55.6579 234.116 54.7744 234.999H60.0752C59.1918 232.349 58.3083 231.465 56.5414 233.232Z" fill="white" fill-opacity="0.54"/>
<path d="M124.567 5.30058C126.334 8.83441 128.985 11.4846 131.635 11.4846C134.286 11.4846 134.286 8.83441 133.402 5.30058C132.519 3.53367 131.635 2.65021 130.752 0.883301H124.567C123.684 1.76676 123.684 3.53367 124.567 5.30058Z" fill="white" fill-opacity="0.54"/>
<path d="M136.052 24.7373C133.402 24.7373 132.518 27.3877 133.402 30.0381C134.285 32.6885 136.936 35.3389 138.703 35.3389C141.353 35.3389 142.236 32.6884 141.353 29.1546C140.47 27.3877 137.819 24.7373 136.052 24.7373Z" fill="white" fill-opacity="0.54"/>
<path d="M140.47 46.8232C137.819 46.8232 136.052 48.5902 136.052 51.2405C136.052 53.8909 137.819 55.6578 139.586 55.6578C141.353 55.6578 144.004 53.8909 144.004 51.2405C144.887 48.5902 143.12 46.8232 140.47 46.8232Z" fill="white" fill-opacity="0.54"/>
<path d="M134.286 69.7927C136.053 69.7927 138.703 68.0258 139.587 66.2589C140.47 64.492 139.587 63.6084 137.82 63.6084C136.053 63.6084 133.402 65.3755 132.519 67.1424C131.635 68.0259 132.519 69.7927 134.286 69.7927Z" fill="white" fill-opacity="0.54"/>
<path d="M128.985 75.0938C127.218 75.0938 123.684 75.9771 122.801 77.744C121.034 78.6275 121.917 80.3945 124.567 80.3945C126.334 80.3945 129.868 79.5109 130.752 77.744C131.635 75.9771 131.635 75.0938 128.985 75.0938Z" fill="white" fill-opacity="0.54"/>
<path d="M112.199 88.3453C114.849 88.3453 117.5 87.4617 119.266 86.5783C121.033 85.6948 120.15 84.8115 118.383 84.8115C116.616 84.8115 113.082 85.6948 111.315 86.5783C109.548 87.4617 110.432 88.3453 112.199 88.3453Z" fill="white" fill-opacity="0.54"/>
<path d="M106.015 92.7632C103.364 92.7632 100.714 93.6465 98.9471 94.5299C97.1801 95.4134 98.0637 96.297 100.714 96.297C103.364 96.297 106.015 95.4134 107.782 94.5299C109.549 93.6465 108.665 92.7632 106.015 92.7632Z" fill="white" fill-opacity="0.54"/>
<path d="M97.1803 104.248C98.0638 103.364 97.1805 101.598 95.4136 101.598C92.7632 101.598 90.1127 102.481 89.2293 104.248C88.3458 105.131 89.2294 106.898 90.9963 106.898C92.7632 106.015 95.4134 105.131 97.1803 104.248Z" fill="white" fill-opacity="0.54"/>
<path d="M83.9284 118.384C86.5788 118.384 88.3457 116.617 89.2292 115.734C90.1127 113.967 89.2293 113.083 86.5789 113.083C83.9286 113.083 81.2782 113.967 81.2782 115.734C79.5112 116.617 81.278 118.384 83.9284 118.384Z" fill="white" fill-opacity="0.54"/>
<path d="M85.6957 129.869C85.6957 128.102 83.9288 126.335 82.1619 126.335C80.395 126.335 77.7446 128.102 77.7446 129.869C77.7446 131.636 79.5115 133.403 81.2784 133.403C83.9288 133.403 85.6957 131.636 85.6957 129.869Z" fill="white" fill-opacity="0.54"/>
<path d="M77.7443 144.887C79.5112 144.887 82.1616 143.12 83.0451 141.353C83.9285 139.586 82.1614 138.702 80.3945 139.586C78.6276 139.586 75.9772 141.353 75.0937 142.236C74.2103 144.887 75.9774 145.77 77.7443 144.887Z" fill="white" fill-opacity="0.54"/>
<path d="M70.6761 152.838C72.443 151.955 75.0934 151.072 75.9769 150.188C76.8604 149.305 75.9771 149.305 74.2102 149.305C72.4432 150.188 69.7928 151.071 68.9094 151.955C68.0259 153.722 68.9092 153.722 70.6761 152.838Z" fill="white" fill-opacity="0.54"/>
<path d="M66.2591 156.372C64.4922 157.255 61.842 158.139 60.9586 159.022C60.0751 159.906 60.9584 159.906 62.7253 159.022C64.4922 158.139 67.1426 157.255 68.0261 156.372C68.9096 155.488 68.026 155.488 66.2591 156.372Z" fill="white" fill-opacity="0.54"/>
<path d="M59.1917 159.905C58.3082 160.789 55.6578 161.672 53.8909 162.556C53.0074 162.556 53.0076 163.439 52.1241 163.439C53.0076 162.556 55.6578 161.672 57.4247 160.789C58.3081 159.905 58.3082 159.905 59.1917 159.905Z" fill="white" fill-opacity="0.54"/>
<path d="M49.474 164.323C47.7071 165.206 45.0567 166.973 44.1732 167.857C43.2898 168.74 44.1733 167.856 45.9402 166.973C47.7072 166.09 50.3576 164.323 51.241 164.323C51.241 163.439 50.3575 163.439 49.474 164.323Z" fill="white" fill-opacity="0.54"/>
<path d="M48.59 168.74C48.59 167.857 46.8231 167.856 45.0562 169.623C43.2893 171.39 41.5225 173.157 41.5225 174.041C41.5225 174.924 43.2893 174.924 45.0562 173.157C46.8231 172.274 48.59 169.624 48.59 168.74Z" fill="white" fill-opacity="0.54"/>
<path d="M54.7745 179.342C53.0076 177.575 50.3571 177.575 48.5902 179.342C46.8233 181.109 45.94 183.76 47.707 185.527C49.4739 187.293 52.1241 187.294 53.891 186.41C56.5414 183.76 56.5414 181.109 54.7745 179.342Z" fill="white" fill-opacity="0.54"/>
<path d="M65.376 207.612C67.1429 205.845 68.0262 202.312 66.2593 199.661C65.3758 196.127 61.8422 195.244 60.0752 196.127C58.3083 197.894 58.3083 201.428 59.1917 204.079C61.8421 206.729 63.6091 208.496 65.376 207.612Z" fill="white" fill-opacity="0.54"/>
<path d="M75.0936 227.932C74.2101 223.515 71.5599 220.864 69.793 222.631C68.0261 224.398 67.1426 227.932 68.026 232.349C68.026 233.233 68.9095 234.116 68.9095 235H75.0936C75.977 233.233 75.977 230.582 75.0936 227.932Z" fill="white" fill-opacity="0.54"/>
<path d="M146.654 8.83436C148.421 7.9509 149.305 5.30037 147.538 1.76654C147.538 1.76654 147.538 1.76676 147.538 0.883301H139.587C139.587 1.76676 139.587 2.65011 140.47 3.53356C142.237 7.06739 144.887 8.83436 146.654 8.83436Z" fill="white" fill-opacity="0.54"/>
<path d="M153.722 32.6874C155.488 31.804 156.372 29.1537 155.488 25.6199C154.605 22.9695 152.838 20.3191 151.071 21.2026C149.304 22.086 148.421 24.7363 149.304 28.2701C150.188 31.804 151.955 33.5709 153.722 32.6874Z" fill="white" fill-opacity="0.54"/>
<path d="M155.488 44.1731C153.722 45.0566 152.838 47.707 151.955 49.4739C151.955 51.2408 152.838 53.0076 154.605 52.1242C156.372 51.2407 158.139 48.5903 158.139 46.8234C159.022 44.173 157.255 43.2897 155.488 44.1731Z" fill="white" fill-opacity="0.54"/>
<path d="M148.421 66.2589C150.188 65.3754 151.955 63.6085 152.838 61.8416C153.722 60.0747 152.838 59.1911 151.955 60.0746C150.188 60.958 148.421 62.725 147.537 64.4919C146.654 66.2588 146.654 67.1424 148.421 66.2589Z" fill="white" fill-opacity="0.54"/>
<path d="M144.004 72.4432C142.237 73.3267 139.586 75.0938 138.703 75.9773C136.936 77.7442 137.819 77.744 139.586 77.744C141.353 76.8606 144.004 75.9772 144.887 74.2103C145.771 72.4434 145.771 71.5598 144.004 72.4432Z" fill="white" fill-opacity="0.54"/>
<path d="M128.985 86.5786C130.751 85.6952 133.402 84.8118 135.169 83.0448C136.936 82.1614 136.052 81.2779 134.285 82.1613C132.518 83.0448 129.868 83.9284 128.101 84.8119C126.334 86.5788 126.334 86.5786 128.985 86.5786Z" fill="white" fill-opacity="0.54"/>
<path d="M117.5 95.4139C119.267 95.4139 122.801 93.6471 123.684 92.7636C125.451 91.8801 124.568 90.9966 122.801 90.9966C121.034 90.9966 117.5 92.7637 116.616 93.6471C114.85 95.414 115.733 96.2973 117.5 95.4139Z" fill="white" fill-opacity="0.54"/>
<path d="M108.665 105.132C111.316 105.132 113.966 103.365 114.85 102.481C115.733 100.714 114.85 100.714 113.083 100.714C111.316 100.714 107.782 102.481 106.898 103.365C105.132 105.132 106.015 106.015 108.665 105.132Z" fill="white" fill-opacity="0.54"/>
<path d="M101.597 117.499C104.248 117.499 106.015 115.733 106.898 113.966C107.781 112.199 106.898 111.315 104.248 111.315C101.597 111.315 98.9469 113.082 98.9469 114.849C98.0635 116.616 98.9468 117.499 101.597 117.499Z" fill="white" fill-opacity="0.54"/>
<path d="M102.481 128.101C102.481 126.334 101.598 124.567 98.9473 124.567C97.1804 124.567 94.53 126.334 94.53 128.984C94.53 130.751 95.4134 131.634 98.0638 131.634C99.8307 131.634 101.598 129.868 102.481 128.101Z" fill="white" fill-opacity="0.54"/>
<path d="M98.0634 138.702C98.9468 137.819 98.0635 136.936 95.4131 136.936C93.6462 136.936 90.9958 138.702 90.1123 139.586C89.2289 140.469 90.1122 141.353 92.7626 141.353C95.413 141.353 97.1799 140.469 98.0634 138.702Z" fill="white" fill-opacity="0.54"/>
<path d="M85.6957 148.42C87.4627 147.537 90.1131 146.654 90.9965 146.654C91.88 145.77 90.9964 145.77 89.2295 145.77C87.4626 146.653 84.8122 147.537 83.9287 148.42C83.0453 149.304 83.9288 149.304 85.6957 148.42Z" fill="white" fill-opacity="0.54"/>
<path d="M77.744 152.838C79.5109 151.955 82.1611 151.955 83.928 151.071C84.8115 150.188 83.9282 150.188 82.1613 151.071C80.3943 151.955 77.7439 152.838 75.977 152.838C75.0935 153.721 75.0936 153.721 77.744 152.838Z" fill="white" fill-opacity="0.54"/>
<path d="M73.3271 155.488C71.5602 156.372 68.9097 156.372 67.1428 157.255C66.2593 157.255 67.143 157.255 69.7933 157.255C72.4437 156.372 74.2104 156.372 75.9774 155.488C76.8608 154.605 75.9775 154.605 73.3271 155.488Z" fill="white" fill-opacity="0.54"/>
<path d="M63.6089 159.905C66.2593 159.905 68.0262 159.022 68.9097 158.138C69.7931 157.255 68.0261 157.255 66.2592 158.138C63.6088 159.022 61.8421 159.022 60.9586 159.905C60.0752 160.789 61.842 160.789 63.6089 159.905Z" fill="white" fill-opacity="0.54"/>
<path d="M61.8419 166.09C64.4923 165.207 66.2594 164.323 65.3759 163.44C65.3759 162.556 63.609 161.673 60.9587 162.556C58.3083 162.556 56.5414 164.323 56.5414 165.207C57.4248 166.09 60.075 166.974 61.8419 166.09Z" fill="white" fill-opacity="0.54"/>
<path d="M69.7934 177.575C72.4438 176.692 72.4436 174.925 70.6767 173.158C68.9098 171.391 66.2596 170.508 64.4926 171.391C61.8423 172.274 60.9587 174.041 62.7256 174.925C64.4925 176.692 68.0265 177.575 69.7934 177.575Z" fill="white" fill-opacity="0.54"/>
<path d="M81.2784 200.545C83.0453 200.545 83.9289 197.011 83.0454 193.477C82.162 189.944 78.6281 187.293 76.8611 188.177C75.0942 188.177 74.2107 191.711 75.0941 195.244C75.9776 198.778 78.6281 201.428 81.2784 200.545Z" fill="white" fill-opacity="0.54"/>
<path d="M89.2295 232.349C90.9964 232.349 92.7635 227.932 91.88 223.515C90.9966 219.098 88.3461 215.564 85.6957 216.447C83.9288 216.447 83.0453 220.865 83.9287 225.282C84.8122 229.699 86.5791 233.233 89.2295 232.349Z" fill="white" fill-opacity="0.54"/>
<path d="M160.789 2.65005C161.673 2.65005 161.673 1.76676 161.673 0.883301H156.372C158.139 2.65021 159.906 2.65005 160.789 2.65005Z" fill="white" fill-opacity="0.54"/>
<path d="M164.323 15.0188C162.556 15.9023 162.556 19.4363 162.556 22.0866C163.44 24.737 164.323 26.5039 166.09 25.6204C167.857 24.7369 168.74 21.2032 167.857 18.5529C166.973 15.019 166.09 14.1354 164.323 15.0188Z" fill="white" fill-opacity="0.54"/>
<path d="M166.974 36.2221C166.09 37.1056 164.323 40.6392 164.323 42.4061C163.44 44.173 164.323 45.0566 166.09 44.1732C166.973 43.2897 168.74 40.6392 169.624 37.9889C169.624 36.2219 168.74 35.3386 166.974 36.2221Z" fill="white" fill-opacity="0.54"/>
<path d="M159.906 59.1916C160.789 58.3081 162.556 55.658 163.44 53.891C164.323 52.1241 164.323 51.2406 162.556 53.0075C161.673 53.891 159.906 56.5414 159.022 58.3083C158.139 59.1918 158.139 60.075 159.906 59.1916Z" fill="white" fill-opacity="0.54"/>
<path d="M155.488 65.3762C153.721 66.2596 151.954 68.91 151.071 69.7935C150.187 71.5604 150.187 71.5604 151.954 70.677C153.721 69.7935 155.488 68.0266 156.372 66.2597C157.255 65.3762 157.255 64.4927 155.488 65.3762Z" fill="white" fill-opacity="0.54"/>
<path d="M142.237 81.2778C144.004 80.3944 145.771 78.6275 147.538 77.7441C149.305 76.8606 148.421 75.9771 146.654 76.8606C144.887 77.744 143.12 79.5111 141.353 80.3946C140.47 82.1615 141.354 82.1613 142.237 81.2778Z" fill="white" fill-opacity="0.54"/>
<path d="M137.819 86.5791C136.053 87.4626 133.402 89.2294 132.519 90.1129C131.635 90.9963 131.635 91.8798 133.402 90.9964C135.169 90.1129 137.819 88.3461 138.703 87.4626C140.47 86.5792 139.586 86.5791 137.819 86.5791Z" fill="white" fill-opacity="0.54"/>
<path d="M124.568 102.481C126.335 101.598 128.985 100.714 129.869 98.9469C130.752 97.18 129.868 97.1802 128.102 97.1802C126.335 97.1802 123.684 98.947 121.917 100.714C121.917 102.481 122.801 103.364 124.568 102.481Z" fill="white" fill-opacity="0.54"/>
<path d="M123.684 111.316C124.567 109.549 123.684 108.666 121.034 109.549C118.383 110.433 116.616 111.316 115.733 113.083C114.849 114.85 115.733 115.734 118.383 115.734C120.15 113.967 122.8 112.2 123.684 111.316Z" fill="white" fill-opacity="0.54"/>
<path d="M118.383 124.568C119.267 122.801 117.5 121.034 115.733 121.918C113.966 121.918 111.315 124.568 111.315 126.335C111.315 128.102 112.199 128.985 113.966 128.102C115.733 128.102 118.383 126.335 118.383 124.568Z" fill="white" fill-opacity="0.54"/>
<path d="M113.966 136.052C114.85 135.169 113.966 134.285 111.316 134.285C109.549 134.285 106.898 136.052 106.015 136.936C105.132 137.819 106.015 138.703 108.666 137.819C110.432 137.819 113.083 136.936 113.966 136.052Z" fill="white" fill-opacity="0.54"/>
<path d="M101.597 145.77C103.364 145.77 106.014 144.887 106.898 144.003C107.781 143.12 106.898 142.236 105.131 143.12C103.364 143.12 100.714 144.887 99.8304 145.77C98.9469 145.77 99.8302 145.77 101.597 145.77Z" fill="white" fill-opacity="0.54"/>
<path d="M99.8311 149.305C100.715 148.421 99.831 148.421 98.0641 148.421C96.2972 148.421 93.6468 149.305 92.7633 150.188C91.8799 151.072 92.7634 151.072 94.5303 151.072C96.2972 151.072 98.9477 150.188 99.8311 149.305Z" fill="white" fill-opacity="0.54"/>
<path d="M90.9962 152.838C88.3458 152.838 85.6953 153.722 84.8119 153.722C83.9284 154.605 84.812 154.605 87.4624 154.605C90.1128 154.605 92.7629 154.605 92.7629 153.722C93.6464 153.722 92.7631 152.838 90.9962 152.838Z" fill="white" fill-opacity="0.54"/>
<path d="M78.628 158.139C77.7446 159.022 79.5114 159.022 82.1618 159.022C84.8122 159.022 87.4626 159.022 87.4626 158.139C88.346 157.255 86.5789 157.255 83.9285 156.372C82.1616 157.255 79.5115 157.255 78.628 158.139Z" fill="white" fill-opacity="0.54"/>
<path d="M81.2781 166.09C83.9285 166.09 85.6954 166.09 85.6954 165.206C85.6954 164.323 83.9285 163.44 81.2781 162.556C78.6278 162.556 76.8608 162.556 76.8608 163.44C76.8608 164.323 78.6278 166.09 81.2781 166.09Z" fill="white" fill-opacity="0.54"/>
<path d="M88.3456 177.575C90.9959 177.575 91.8795 176.691 90.1126 174.924C89.2291 173.157 85.6954 171.391 83.045 171.391C80.3947 171.391 79.511 172.274 80.3945 173.158C82.1614 174.925 85.6952 176.691 88.3456 177.575Z" fill="white" fill-opacity="0.54"/>
<path d="M98.9472 200.545C101.598 200.545 102.481 198.778 100.714 195.245C99.8307 191.711 96.2967 189.06 93.6464 188.177C90.996 188.177 90.1127 189.944 91.8796 193.478C93.6465 197.011 96.2968 200.545 98.9472 200.545Z" fill="white" fill-opacity="0.54"/>
<path d="M106.899 232.349C109.549 232.349 110.433 229.698 109.549 225.281C108.666 220.864 106.015 217.33 103.365 217.33C100.715 217.33 99.8312 219.98 100.715 224.398C101.598 227.931 104.248 231.465 106.899 232.349Z" fill="white" fill-opacity="0.54"/>
<path d="M175.808 15.9021C176.691 14.1352 177.575 11.485 177.575 8.83459C177.575 6.18422 175.808 5.3006 174.924 6.18405C174.041 7.06751 173.157 10.6015 173.157 13.2519C174.041 15.9022 174.924 16.7856 175.808 15.9021Z" fill="white" fill-opacity="0.54"/>
<path d="M174.041 34.4539C174.924 32.687 176.691 30.0365 176.691 28.2696C177.575 26.5027 176.691 25.6194 175.808 26.5029C174.924 28.2698 174.041 30.92 173.157 33.5704C173.157 35.3373 173.157 35.3374 174.041 34.4539Z" fill="white" fill-opacity="0.54"/>
<path d="M171.391 42.4055C170.507 44.1724 168.74 46.8229 167.857 48.5898C166.973 50.3567 166.973 51.2402 168.74 49.4733C169.624 47.7064 171.391 45.0559 172.274 43.289C172.274 41.5221 172.274 40.6386 171.391 42.4055Z" fill="white" fill-opacity="0.54"/>
<path d="M165.207 56.5412C164.323 57.4247 162.557 60.0751 161.673 61.842C160.79 63.6089 160.79 63.609 162.557 62.7255C164.323 61.8421 165.207 59.1916 166.09 57.4247C166.974 55.6578 166.09 55.6578 165.207 56.5412Z" fill="white" fill-opacity="0.54"/>
<path d="M158.139 68.9099C156.372 69.7933 154.605 72.4437 153.722 73.3272C152.838 75.0941 152.838 75.0941 154.605 74.2107C156.372 73.3272 158.139 71.5603 159.022 69.7934C159.906 68.0265 159.906 68.0264 158.139 68.9099Z" fill="white" fill-opacity="0.54"/>
<path d="M146.654 84.8121C145.77 86.579 146.654 86.5788 148.421 85.6954C150.188 84.8119 151.955 83.045 152.838 81.2781C153.722 79.5112 152.838 79.5114 151.071 80.3948C149.304 81.2783 147.537 83.0452 146.654 84.8121Z" fill="white" fill-opacity="0.54"/>
<path d="M144.003 92.7621C142.237 93.6456 139.586 95.4125 138.703 97.1794C137.819 98.9463 138.703 99.8296 140.47 98.9462C142.237 98.0627 144.887 96.2958 145.77 94.5289C146.654 92.762 145.77 91.8787 144.003 92.7621Z" fill="white" fill-opacity="0.54"/>
<path d="M139.587 106.899C140.47 105.132 139.586 104.249 136.936 105.132C135.169 106.016 132.519 107.783 131.636 109.549C130.752 111.316 131.635 112.2 134.286 112.2C136.053 110.433 138.703 108.666 139.587 106.899Z" fill="white" fill-opacity="0.54"/>
<path d="M129.868 124.568C131.635 123.684 134.286 122.8 134.286 121.034C135.169 119.267 133.402 118.383 131.635 118.383C129.869 119.267 127.218 121.034 127.218 122.801C126.335 124.567 127.218 125.451 129.868 124.568Z" fill="white" fill-opacity="0.54"/>
<path d="M124.567 136.053C126.334 136.053 128.985 134.286 129.868 133.402C130.752 131.635 129.868 131.635 127.218 131.635C125.451 131.635 122.801 133.402 121.917 135.169C121.034 136.936 121.917 136.053 124.567 136.053Z" fill="white" fill-opacity="0.54"/>
<path d="M122.801 142.237C123.684 141.353 122.8 140.47 121.034 140.47C119.267 140.47 116.616 141.353 115.733 143.12C114.849 144.003 115.733 144.887 118.383 144.887C120.15 144.004 121.917 143.12 122.801 142.237Z" fill="white" fill-opacity="0.54"/>
<path d="M116.616 149.304C117.5 148.421 116.616 147.537 113.966 147.537C112.199 147.537 109.549 148.421 108.665 149.304C107.782 150.188 108.665 151.071 111.316 151.071C113.966 151.071 115.733 150.188 116.616 149.304Z" fill="white" fill-opacity="0.54"/>
<path d="M111.316 156.372C112.199 155.488 110.432 154.605 108.665 154.605C106.015 154.605 103.365 154.605 103.365 155.488C102.481 156.372 104.248 157.255 106.898 157.255C109.549 157.255 110.432 157.255 111.316 156.372Z" fill="white" fill-opacity="0.54"/>
<path d="M106.898 162.556C106.898 161.672 106.015 160.789 103.364 159.905C100.714 159.022 98.0636 159.905 98.0636 159.905C97.1801 160.789 98.947 161.672 101.597 162.556C104.248 163.439 106.898 163.439 106.898 162.556Z" fill="white" fill-opacity="0.54"/>
<path d="M101.597 171.391C104.248 172.274 106.014 172.274 106.014 170.507C106.014 169.624 104.248 167.857 101.597 166.973C98.9468 166.09 96.2964 166.09 97.1799 167.857C96.2964 168.74 98.9468 170.507 101.597 171.391Z" fill="white" fill-opacity="0.54"/>
<path d="M110.432 181.992C109.549 180.225 106.898 178.458 104.248 176.691C101.598 175.808 99.8305 175.808 101.597 177.575C102.481 179.342 106.015 181.992 108.665 182.875C111.316 183.759 111.315 183.759 110.432 181.992Z" fill="white" fill-opacity="0.54"/>
<path d="M117.5 205.845C120.15 206.728 121.034 204.962 119.267 201.428C118.383 197.894 115.733 195.244 113.083 194.36C110.432 193.477 109.549 195.244 110.432 197.894C112.199 201.428 114.85 204.962 117.5 205.845Z" fill="white" fill-opacity="0.54"/>
<path d="M128.101 229.699C127.218 225.281 124.568 221.748 121.917 220.864C119.267 219.981 118.383 222.631 119.267 227.048C120.15 230.582 121.917 233.233 123.684 234.999H128.101C128.101 234.116 128.101 232.349 128.101 229.699Z" fill="white" fill-opacity="0.54"/>
<path d="M181.992 2.65026C181.992 5.30063 182.875 6.1842 183.759 4.41728C184.642 3.53383 184.642 1.76691 185.526 0H182.875C182.875 1.76691 181.992 1.76681 181.992 2.65026Z" fill="white" fill-opacity="0.54"/>
<path d="M182.875 15.0188C181.992 16.7857 181.109 19.4363 180.225 22.0866C179.342 23.8536 179.342 24.7371 180.225 22.9702C181.109 21.2032 181.992 18.5528 182.875 16.7859C184.642 14.1355 183.759 13.2519 182.875 15.0188Z" fill="white" fill-opacity="0.54"/>
<path d="M177.574 30.9211C176.691 32.688 175.808 35.3382 174.924 37.1051C174.041 38.8721 174.041 39.7556 174.924 37.9887C175.808 36.2217 176.691 33.5715 177.574 31.8046C178.458 30.0377 178.458 29.1542 177.574 30.9211Z" fill="white" fill-opacity="0.54"/>
<path d="M171.391 53.8911C172.275 53.0076 174.041 50.3572 174.041 48.5903C174.925 46.8233 174.041 45.9398 173.158 47.7068C172.274 49.4737 170.508 52.1241 170.508 53.8911C169.624 54.7745 169.624 54.7745 171.391 53.8911Z" fill="white" fill-opacity="0.54"/>
<path d="M168.74 60.9587C167.857 61.8422 166.09 64.4926 165.206 66.2595C164.323 68.0264 165.206 68.0265 166.09 67.143C167.857 66.2596 168.74 63.6091 169.624 61.8422C170.507 60.0753 169.623 59.1918 168.74 60.9587Z" fill="white" fill-opacity="0.54"/>
<path d="M160.79 79.5108C162.557 78.6274 164.323 76.8605 165.207 75.0936C166.09 73.3267 165.207 72.4431 163.44 73.3265C161.673 74.21 159.906 75.9769 159.023 77.7438C158.139 80.3942 159.023 80.3943 160.79 79.5108Z" fill="white" fill-opacity="0.54"/>
<path d="M155.488 92.7628C157.255 91.8793 159.906 90.1124 159.906 88.3455C160.789 86.5786 159.906 85.695 158.139 86.5785C156.372 87.462 153.721 89.2289 153.721 90.9958C152.838 92.7627 153.721 93.6463 155.488 92.7628Z" fill="white" fill-opacity="0.54"/>
<path d="M155.488 102.482C156.372 100.715 155.488 99.8313 152.838 100.715C151.071 101.598 148.421 103.365 147.537 105.132C146.654 106.899 147.537 107.782 150.187 107.782C151.954 106.015 154.605 104.249 155.488 102.482Z" fill="white" fill-opacity="0.54"/>
<path d="M147.537 114.849C145.77 115.732 143.12 117.499 142.236 119.266C141.353 121.033 143.12 121.916 144.887 121.033C146.654 120.149 149.304 118.382 150.187 116.615C150.187 114.848 149.304 113.965 147.537 114.849Z" fill="white" fill-opacity="0.54"/>
<path d="M139.586 132.519C141.353 132.519 144.004 130.753 144.887 128.986C145.771 127.219 144.887 126.335 143.12 127.219C141.353 128.102 138.703 128.985 137.819 130.752C136.052 132.519 136.936 133.403 139.586 132.519Z" fill="white" fill-opacity="0.54"/>
<path d="M137.819 140.469C138.702 139.586 137.819 137.819 136.052 138.702C134.285 139.586 131.635 140.469 130.751 141.353C129.868 142.236 130.751 143.119 132.518 143.119C135.169 142.236 137.819 141.353 137.819 140.469Z" fill="white" fill-opacity="0.54"/>
<path d="M127.218 151.954C128.985 151.954 131.635 151.071 132.518 150.188C133.402 149.304 132.518 147.537 129.868 147.537C128.101 147.537 125.451 148.421 124.567 149.304C124.567 150.188 125.451 151.071 127.218 151.954Z" fill="white" fill-opacity="0.54"/>
<path d="M124.567 156.372C122.8 156.372 120.15 156.372 119.266 157.255C118.383 158.139 120.15 159.022 121.917 159.906C123.684 160.789 126.334 159.906 127.218 159.022C128.101 157.255 127.218 156.372 124.567 156.372Z" fill="white" fill-opacity="0.54"/>
<path d="M124.567 167.857C124.567 166.973 123.684 165.206 121.034 164.323C118.383 163.44 116.616 164.323 116.616 165.206C116.616 166.09 117.5 167.857 120.15 168.74C121.917 168.74 124.567 168.74 124.567 167.857Z" fill="white" fill-opacity="0.54"/>
<path d="M119.267 178.458C121.917 179.342 123.684 179.342 122.801 177.575C122.801 175.808 121.034 174.041 118.383 173.158C115.733 172.274 113.966 172.274 113.966 174.041C114.85 175.808 116.616 177.575 119.267 178.458Z" fill="white" fill-opacity="0.54"/>
<path d="M125.451 191.71C128.102 192.594 128.102 192.594 127.218 189.944C126.335 188.177 123.684 185.526 121.034 184.643C118.384 183.759 117.5 183.759 118.384 185.526C120.151 188.177 122.801 190.827 125.451 191.71Z" fill="white" fill-opacity="0.54"/>
<path d="M134.285 213.795C136.052 214.679 136.936 212.912 136.052 210.262C135.169 207.611 132.518 204.078 129.868 203.194C127.218 202.311 127.218 203.194 128.101 206.728C129.868 209.378 132.518 212.912 134.285 213.795Z" fill="white" fill-opacity="0.54"/>
<path d="M138.702 227.932C136.935 227.048 135.168 228.815 136.935 233.233C136.935 234.116 136.935 235 137.819 235H144.887C143.12 231.466 140.469 228.815 138.702 227.932Z" fill="white" fill-opacity="0.54"/>
<path d="M189.06 3.53415C188.177 5.30106 187.293 7.95154 186.41 9.71845C185.526 11.4854 185.526 12.3686 186.41 10.6017C187.293 8.83478 188.177 6.18457 189.06 4.41766C189.944 2.65074 189.944 1.76723 189.06 3.53415Z" fill="white" fill-opacity="0.54"/>
<path d="M183.76 19.4358C182.876 21.2027 181.992 23.8532 181.109 25.6201C180.226 27.387 181.109 28.2706 181.992 27.3871C182.876 25.6202 183.76 22.9698 183.76 21.2028C184.643 18.5525 184.643 17.6689 183.76 19.4358Z" fill="white" fill-opacity="0.54"/>
<path d="M180.225 36.2219C179.342 37.1054 178.458 40.6391 177.575 42.406C177.575 44.1729 177.575 45.0564 178.458 43.2895C179.342 42.406 180.225 39.7556 181.108 37.1052C181.992 36.2217 181.109 35.3385 180.225 36.2219Z" fill="white" fill-opacity="0.54"/>
<path d="M178.458 52.1238C177.575 53.0073 175.808 55.6577 175.808 57.4246C175.808 59.1915 175.808 60.0748 177.575 59.1914C179.342 58.3079 180.225 55.6577 180.225 53.8908C180.225 51.2405 179.342 50.3569 178.458 52.1238Z" fill="white" fill-opacity="0.54"/>
<path d="M171.391 71.5595C170.508 73.3264 172.274 74.2097 173.158 73.3263C174.041 72.4428 176.692 70.6758 176.692 68.0255C176.692 66.2586 175.808 65.3753 174.925 66.2587C174.041 67.1422 172.275 69.7926 171.391 71.5595Z" fill="white" fill-opacity="0.54"/>
<path d="M167.857 85.6946C166.973 87.4615 168.74 88.3452 170.507 88.3452C172.274 87.4617 174.041 85.6948 174.924 83.9279C175.808 82.161 174.041 81.2773 172.274 81.2773C170.507 82.1608 168.74 83.9277 167.857 85.6946Z" fill="white" fill-opacity="0.54"/>
<path d="M170.507 98.0641C171.391 96.2972 169.624 95.4136 167.857 95.4136C166.09 96.297 163.439 98.0639 163.439 99.8309C162.556 101.598 164.323 102.481 166.09 102.481C167.857 102.481 169.624 99.831 170.507 98.0641Z" fill="white" fill-opacity="0.54"/>
<path d="M159.906 117.5C161.673 116.616 164.323 114.849 165.207 113.082C166.09 111.315 165.207 110.432 162.556 110.432C160.789 111.316 158.139 113.082 157.256 114.849C157.256 116.616 158.139 117.5 159.906 117.5Z" fill="white" fill-opacity="0.54"/>
<path d="M153.721 129.868C155.488 129.868 158.139 128.101 159.022 126.334C159.905 124.567 159.022 123.684 157.255 123.684C155.488 123.684 152.838 125.45 151.954 127.217C151.071 129.868 151.955 130.751 153.721 129.868Z" fill="white" fill-opacity="0.54"/>
<path d="M152.838 139.586C153.722 137.819 152.838 136.936 150.188 136.936C148.421 136.936 145.771 138.702 144.887 139.586C144.004 141.353 144.887 142.236 147.538 142.236C150.188 142.236 152.838 141.353 152.838 139.586Z" fill="white" fill-opacity="0.54"/>
<path d="M148.421 151.072C149.304 149.305 147.537 148.421 145.77 148.421C144.003 148.421 141.353 149.305 141.353 151.072C140.469 152.839 142.237 153.722 144.003 153.722C145.77 153.722 147.537 152.839 148.421 151.072Z" fill="white" fill-opacity="0.54"/>
<path d="M144.887 162.555C144.887 160.788 144.004 159.021 141.353 159.021C139.586 158.138 136.936 159.021 136.936 160.788C136.052 161.672 137.82 163.439 140.47 164.322C142.237 165.206 144.004 164.322 144.887 162.555Z" fill="white" fill-opacity="0.54"/>
<path d="M138.703 169.623C136.052 168.74 134.286 169.623 134.286 170.507C134.286 172.274 136.052 174.041 137.819 174.924C140.47 175.808 142.237 175.807 142.237 174.041C142.237 172.274 140.47 170.507 138.703 169.623Z" fill="white" fill-opacity="0.54"/>
<path d="M137.819 188.176C140.47 189.059 142.236 189.059 141.353 187.293C141.353 185.526 139.586 182.875 136.936 181.992C134.285 181.109 132.518 181.108 132.518 182.875C133.402 183.759 135.169 186.409 137.819 188.176Z" fill="white" fill-opacity="0.54"/>
<path d="M142.236 202.312C144.887 204.078 145.77 203.195 144.887 201.428C144.004 199.661 141.353 196.127 139.586 195.244C137.819 194.361 136.052 194.36 136.936 196.127C137.819 197.894 140.47 201.428 142.236 202.312Z" fill="white" fill-opacity="0.54"/>
<path d="M151.071 222.631C152.838 223.514 153.721 222.631 152.838 219.98C151.955 217.33 149.304 213.796 146.654 212.913C144.003 212.029 143.12 212.913 144.887 215.563C146.654 218.213 149.304 221.747 151.071 222.631Z" fill="white" fill-opacity="0.54"/>
<path d="M189.06 8.83416C188.176 9.71762 187.293 13.2513 187.293 15.0182C187.293 17.6686 187.293 18.5521 188.176 16.7852C189.06 15.9018 189.943 12.3678 189.943 10.6009C189.943 8.834 189.06 7.95071 189.06 8.83416Z" fill="white" fill-opacity="0.54"/>
<path d="M187.293 35.3387C188.176 34.4553 189.06 31.8048 189.06 29.1544C189.06 26.5041 188.176 25.6207 187.293 26.5042C186.409 27.3876 185.526 30.9213 185.526 32.6882C185.526 35.3386 186.409 36.2222 187.293 35.3387Z" fill="white" fill-opacity="0.54"/>
<path d="M187.293 51.2407C188.177 50.3573 189.944 47.7069 189.944 45.9399C189.944 44.173 189.06 42.4062 188.177 43.2897C187.293 44.1731 186.41 46.8236 185.526 48.5905C184.643 51.2408 185.526 52.1242 187.293 51.2407Z" fill="white" fill-opacity="0.54"/>
<path d="M186.41 68.0264C188.177 67.1429 189.06 65.3762 189.06 62.7258C189.06 60.9589 188.177 59.1918 186.41 60.0753C184.643 60.9588 183.759 62.7257 183.759 65.3761C183.759 67.143 184.643 68.9098 186.41 68.0264Z" fill="white" fill-opacity="0.54"/>
<path d="M185.526 75.9771C183.759 76.8605 181.992 78.6274 181.992 80.3943C181.992 82.1612 182.875 83.9281 184.642 83.0446C186.409 82.1611 188.176 80.3942 188.176 78.6273C188.176 76.8604 187.293 75.9771 185.526 75.9771Z" fill="white" fill-opacity="0.54"/>
<path d="M181.109 98.9471C182.875 98.9471 185.526 96.2967 185.526 94.5298C186.409 92.7629 184.642 90.9961 182.876 91.8795C181.109 91.8795 179.342 94.5299 178.458 96.2968C178.458 98.0637 179.342 99.8305 181.109 98.9471Z" fill="white" fill-opacity="0.54"/>
<path d="M180.225 109.548C181.109 107.781 180.225 106.015 178.458 106.898C176.691 106.898 174.041 109.548 173.158 111.315C172.274 113.082 173.158 114.849 174.925 113.966C177.575 113.966 179.342 112.199 180.225 109.548Z" fill="white" fill-opacity="0.54"/>
<path d="M174.041 124.567C174.924 122.8 174.041 121.033 172.274 121.033C170.507 121.033 167.857 122.8 166.973 124.567C166.09 126.334 166.973 128.101 168.74 127.218C170.507 128.101 173.158 127.218 174.041 124.567Z" fill="white" fill-opacity="0.54"/>
<path d="M167.857 139.587C168.74 137.82 167.857 136.053 165.206 136.053C163.439 136.053 160.789 137.82 160.789 139.587C159.905 141.353 160.789 143.12 163.439 143.12C165.206 142.237 167.857 141.353 167.857 139.587Z" fill="white" fill-opacity="0.54"/>
<path d="M164.323 153.721C165.207 151.954 163.44 150.188 161.673 150.188C159.906 150.188 157.256 151.071 157.256 152.838C156.372 154.605 158.139 156.372 159.906 156.372C161.673 156.372 163.44 155.488 164.323 153.721Z" fill="white" fill-opacity="0.54"/>
<path d="M160.789 167.856C160.789 166.089 159.906 164.322 157.256 163.439C155.489 162.555 152.838 163.439 152.838 165.206C152.838 166.973 153.722 168.739 156.372 169.623C159.023 170.506 160.789 169.623 160.789 167.856Z" fill="white" fill-opacity="0.54"/>
<path d="M155.489 182.876C158.139 183.759 159.906 182.876 159.906 181.109C159.906 179.342 158.139 176.692 156.372 175.808C153.722 174.925 151.955 175.809 151.955 177.576C151.071 179.342 152.838 181.993 155.489 182.876Z" fill="white" fill-opacity="0.54"/>
<path d="M159.905 197.011C159.905 195.244 158.138 192.593 155.488 190.826C152.838 189.943 151.071 189.943 151.071 191.71C151.071 193.477 153.721 196.127 155.488 197.894C158.138 199.661 159.905 198.777 159.905 197.011Z" fill="white" fill-opacity="0.54"/>
<path d="M159.906 214.68C162.556 216.447 163.44 215.564 162.556 213.797C161.673 211.146 159.906 208.496 157.256 206.729C154.605 204.962 153.722 205.846 154.605 207.613C155.489 210.263 158.139 212.913 159.906 214.68Z" fill="white" fill-opacity="0.54"/>
<path d="M167.856 233.232C170.507 234.999 171.39 233.232 169.623 230.582C168.74 227.931 166.089 225.281 163.439 223.514C160.789 221.747 159.905 222.631 161.672 225.281C163.439 227.931 166.089 231.465 167.856 233.232Z" fill="white" fill-opacity="0.54"/>
<path d="M193.477 8.83436C194.361 7.9509 194.36 5.30042 195.244 2.65005C195.244 1.7666 195.244 0.883301 195.244 0.883301H194.36C193.477 1.76676 193.477 4.41691 193.477 6.18382C191.71 8.83419 192.594 9.71781 193.477 8.83436Z" fill="white" fill-opacity="0.54"/>
<path d="M193.477 19.4363C192.594 20.3197 191.71 22.9702 192.594 25.6206C192.594 28.271 193.477 29.1543 194.36 28.2709C195.244 27.3874 196.127 25.6207 195.244 22.9703C195.244 19.4365 194.361 18.5528 193.477 19.4363Z" fill="white" fill-opacity="0.54"/>
<path d="M196.127 37.9889C195.244 38.8723 194.36 41.5228 194.36 43.2897C194.36 45.94 196.128 46.8234 197.011 45.9399C197.894 45.0565 198.778 43.2898 198.778 40.6394C197.894 38.8725 197.011 37.1054 196.127 37.9889Z" fill="white" fill-opacity="0.54"/>
<path d="M197.894 55.6578C196.127 56.5412 195.244 58.3082 195.244 60.9585C195.244 63.6089 197.011 64.4923 197.894 64.4923C199.661 64.4923 200.544 61.8419 200.544 60.075C200.544 56.5412 198.778 54.7743 197.894 55.6578Z" fill="white" fill-opacity="0.54"/>
<path d="M198.777 73.3265C197.011 73.3265 195.244 75.9769 195.244 77.7438C195.244 79.5107 196.127 81.2776 197.894 81.2776C199.661 81.2776 201.428 79.5106 201.428 76.8603C201.428 74.2099 200.544 72.443 198.777 73.3265Z" fill="white" fill-opacity="0.54"/>
<path d="M196.127 97.1801C197.894 97.1801 199.661 95.4133 200.545 93.6463C200.545 91.8794 199.661 90.1123 197.894 90.1123C196.127 90.1123 194.361 91.8792 193.477 94.5296C192.594 95.413 194.36 97.1801 196.127 97.1801Z" fill="white" fill-opacity="0.54"/>
<path d="M188.176 108.665C187.293 110.432 188.176 112.199 189.943 112.199C191.71 112.199 194.36 110.432 195.244 108.665C196.127 106.898 195.244 105.131 193.477 105.131C191.71 105.131 189.059 106.898 188.176 108.665Z" fill="white" fill-opacity="0.54"/>
<path d="M186.41 121.033C184.643 121.033 181.992 122.8 181.109 124.567C180.226 126.334 181.109 128.101 182.876 128.101C184.643 128.101 186.41 126.334 187.293 124.567C189.06 122.8 188.177 121.033 186.41 121.033Z" fill="white" fill-opacity="0.54"/>
<path d="M182.876 140.47C183.759 138.703 181.992 136.936 180.225 136.053C178.458 136.053 176.691 137.82 175.808 139.587C174.925 141.353 176.691 143.12 178.458 144.004C180.225 144.004 181.992 142.237 182.876 140.47Z" fill="white" fill-opacity="0.54"/>
<path d="M179.342 156.371C179.342 154.604 178.458 151.954 176.691 151.954C174.924 151.954 173.158 152.838 172.274 154.605C172.274 156.372 173.158 159.022 174.925 159.022C177.575 159.905 179.342 159.022 179.342 156.371Z" fill="white" fill-opacity="0.54"/>
<path d="M174.041 167.857C172.274 166.973 169.624 167.857 169.624 170.507C169.624 172.274 171.391 174.924 173.158 175.808C174.924 176.691 177.575 175.808 177.575 173.157C177.575 170.507 176.691 168.74 174.041 167.857Z" fill="white" fill-opacity="0.54"/>
<path d="M173.157 191.71C175.808 192.594 177.575 191.711 177.575 189.944C177.575 188.177 175.808 185.526 173.157 184.643C170.507 183.759 168.74 184.643 168.74 186.41C168.74 187.293 171.39 189.944 173.157 191.71Z" fill="white" fill-opacity="0.54"/>
<path d="M174.041 208.495C176.691 210.262 178.458 209.379 177.575 206.728C177.575 204.078 174.924 201.427 173.157 200.544C170.507 199.661 168.74 199.661 168.74 202.311C169.623 204.078 171.39 206.728 174.041 208.495Z" fill="white" fill-opacity="0.54"/>
<path d="M177.575 226.165C180.225 227.932 181.109 227.048 180.225 225.281C179.342 223.515 177.575 219.981 174.925 218.214C172.274 216.447 171.391 217.33 171.391 219.981C173.158 221.748 175.808 224.398 177.575 226.165Z" fill="white" fill-opacity="0.54"/>
<path d="M181.109 235C179.342 234.116 178.458 234.116 178.458 235H181.109C181.992 235 181.992 235 181.109 235Z" fill="white" fill-opacity="0.54"/>
<path d="M198.778 2.65026C199.661 2.65026 199.661 1.76691 199.661 0H197.011C197.895 2.65037 198.778 3.53372 198.778 2.65026Z" fill="white" fill-opacity="0.54"/>
<path d="M199.661 20.3188C200.544 22.9691 201.428 24.736 202.312 23.8525C203.195 23.8525 204.078 21.2024 203.195 18.552C202.311 15.9016 201.428 13.2513 200.545 14.1347C199.661 14.1347 199.661 16.7849 199.661 20.3188Z" fill="white" fill-opacity="0.54"/>
<path d="M204.962 33.5718C204.079 33.5718 203.195 36.2222 204.079 38.8726C204.962 41.5229 205.845 43.2899 207.612 43.2899C208.496 43.2899 209.379 40.6394 208.496 37.9891C207.612 35.3387 205.846 33.5718 204.962 33.5718Z" fill="white" fill-opacity="0.54"/>
<path d="M208.496 53.0073C206.729 53.0073 205.845 55.6577 206.729 57.4246C206.729 60.075 208.496 61.8419 210.263 61.8419C212.03 61.8419 212.913 60.075 212.029 57.4246C212.029 55.6577 210.263 53.0073 208.496 53.0073Z" fill="white" fill-opacity="0.54"/>
<path d="M208.495 75.9769C208.495 78.6273 210.262 80.3942 212.029 80.3942C213.796 80.3942 215.563 78.6271 214.68 76.8602C214.68 74.2098 212.913 72.4429 211.146 72.4429C210.263 72.4429 208.495 74.21 208.495 75.9769Z" fill="white" fill-opacity="0.54"/>
<path d="M210.263 97.1801C212.03 97.1801 213.797 96.2967 214.68 93.6463C214.68 91.8794 213.797 89.229 212.03 89.229C210.263 89.229 208.496 90.9959 208.496 92.7628C207.612 95.4131 208.496 97.1801 210.263 97.1801Z" fill="white" fill-opacity="0.54"/>
<path d="M204.078 112.199C205.845 112.199 208.496 111.315 209.379 108.665C210.263 106.898 209.379 105.131 207.612 105.131C205.845 105.131 203.195 106.015 202.312 108.665C201.428 110.432 202.312 112.199 204.078 112.199Z" fill="white" fill-opacity="0.54"/>
<path d="M197.011 128.985C198.778 128.985 200.544 128.101 201.428 125.45C202.311 123.684 201.428 121.033 199.661 121.033C197.894 121.033 195.244 122.8 195.244 124.567C195.244 126.334 195.244 128.985 197.011 128.985Z" fill="white" fill-opacity="0.54"/>
<path d="M189.943 141.353C189.06 143.12 190.827 145.77 192.594 145.77C194.36 145.77 196.127 144.887 197.011 142.236C197.894 139.586 196.127 137.819 194.36 137.819C192.593 137.819 190.826 139.586 189.943 141.353Z" fill="white" fill-opacity="0.54"/>
<path d="M187.293 159.022C187.293 161.672 188.176 163.439 190.827 164.323C192.594 165.206 194.36 163.439 194.36 160.789C194.36 158.138 193.477 156.372 190.827 155.488C189.06 155.488 187.293 156.372 187.293 159.022Z" fill="white" fill-opacity="0.54"/>
<path d="M189.943 181.991C191.71 182.875 193.477 181.108 193.477 179.341C193.477 176.691 191.71 174.04 189.943 174.04C188.176 173.157 186.409 174.924 186.409 176.691C186.409 178.458 188.176 181.108 189.943 181.991Z" fill="white" fill-opacity="0.54"/>
<path d="M190.826 199.661C193.477 200.544 195.244 199.661 194.36 197.01C194.36 194.36 192.593 191.71 189.943 190.826C187.292 189.943 186.409 190.826 186.409 193.477C186.409 196.127 189.059 198.778 190.826 199.661Z" fill="white" fill-opacity="0.54"/>
<path d="M192.594 218.213C195.244 219.097 197.011 218.213 196.128 215.563C196.128 212.913 193.478 210.262 191.711 209.379C189.06 208.495 187.293 209.379 188.177 212.029C188.177 213.796 189.944 217.33 192.594 218.213Z" fill="white" fill-opacity="0.54"/>
<path d="M193.477 227.932C190.827 227.048 189.943 227.932 189.943 229.699C189.943 231.465 191.71 233.232 192.594 234.116H197.894C197.894 232.349 196.128 229.698 193.477 227.932Z" fill="white" fill-opacity="0.54"/>
<path d="M211.146 22.9694C212.03 22.9694 212.913 21.2025 212.03 18.5522C211.146 15.9018 209.379 13.2513 208.496 12.3679C207.612 11.4844 207.612 15.0183 207.612 17.6686C208.496 21.2025 209.379 22.9694 211.146 22.9694Z" fill="white" fill-opacity="0.54"/>
<path d="M217.33 43.2899C219.097 43.2899 219.097 41.5229 218.214 38.8726C217.33 36.2222 215.563 33.5718 214.68 33.5718C213.796 33.5718 212.913 35.3387 213.796 37.9891C213.796 40.6394 215.563 43.2899 217.33 43.2899Z" fill="white" fill-opacity="0.54"/>
<path d="M219.981 53.8906C218.214 53.8906 218.214 55.6575 218.214 58.3079C219.097 60.9583 220.864 63.6084 221.748 63.6084C223.515 64.4919 224.398 62.725 223.515 60.0747C223.515 57.4243 221.748 54.7741 219.981 53.8906Z" fill="white" fill-opacity="0.54"/>
<path d="M221.747 77.7445C221.747 80.3949 223.514 82.1619 225.281 83.0453C227.048 83.9288 227.932 82.1619 227.932 79.5116C227.932 76.8612 226.165 74.2108 224.398 74.2108C222.631 73.3273 221.747 75.0942 221.747 77.7445Z" fill="white" fill-opacity="0.54"/>
<path d="M226.165 92.7628C224.398 91.8794 222.631 93.6462 222.631 95.4131C222.631 97.18 223.515 99.8304 225.281 99.8304C227.048 100.714 228.815 98.947 229.699 97.1801C228.815 95.4132 227.932 92.7628 226.165 92.7628Z" fill="white" fill-opacity="0.54"/>
<path d="M218.214 115.733C219.981 116.617 222.632 114.85 223.515 113.083C224.399 111.316 224.398 109.549 221.748 108.666C219.098 107.782 218.214 109.549 216.447 111.316C215.564 113.083 216.447 114.85 218.214 115.733Z" fill="white" fill-opacity="0.54"/>
<path d="M213.796 124.567C212.03 123.684 210.263 125.451 209.379 128.101C208.496 130.751 209.379 132.518 211.146 133.402C212.913 134.285 214.68 132.518 215.563 130.751C215.563 127.217 215.563 124.567 213.796 124.567Z" fill="white" fill-opacity="0.54"/>
<path d="M208.496 141.353C206.729 140.47 204.962 142.237 204.078 144.887C204.078 147.537 204.962 149.304 206.729 150.188C208.496 151.071 210.263 149.305 210.263 146.654C211.146 144.887 210.262 142.237 208.496 141.353Z" fill="white" fill-opacity="0.54"/>
<path d="M205.846 168.74C207.612 169.624 209.379 167.856 209.379 165.206C209.379 162.556 207.612 159.906 205.846 159.906C204.079 159.022 202.312 160.789 202.312 163.439C202.312 165.206 204.079 167.857 205.846 168.74Z" fill="white" fill-opacity="0.54"/>
<path d="M205.846 178.458C204.079 177.574 202.312 179.341 202.312 181.992C202.312 184.642 204.079 187.292 206.729 188.176C208.496 189.059 210.263 187.292 210.263 184.642C210.263 181.992 207.612 179.341 205.846 178.458Z" fill="white" fill-opacity="0.54"/>
<path d="M208.496 206.729C211.146 207.612 212.029 205.845 212.029 204.078C212.029 201.428 209.379 198.778 207.612 197.894C205.845 197.011 204.078 198.778 204.078 200.544C204.078 203.195 205.845 205.845 208.496 206.729Z" fill="white" fill-opacity="0.54"/>
<path d="M210.263 227.048C212.913 227.932 213.797 227.048 213.797 224.398C213.797 221.748 211.147 219.097 209.38 218.214C206.729 217.33 205.846 218.214 205.846 220.864C205.846 223.514 207.613 225.281 210.263 227.048Z" fill="white" fill-opacity="0.54"/>
<path d="M213.797 3.53356C214.68 4.41702 215.564 2.65021 215.564 0.883301H212.03C212.913 1.76676 212.913 3.53356 213.797 3.53356Z" fill="white" fill-opacity="0.54"/>
<path d="M216.447 15.9024C215.564 15.0189 214.681 16.7858 215.564 20.3197C216.447 23.8535 218.214 25.6205 219.098 26.504C219.981 27.3874 220.865 26.504 219.981 22.9702C219.981 19.4364 218.214 16.7858 216.447 15.9024Z" fill="white" fill-opacity="0.54"/>
<path d="M228.816 45.0559C227.932 42.4056 225.282 38.8716 224.398 37.9881C222.632 37.1047 222.632 38.8715 223.515 41.5219C224.398 44.1723 226.165 46.8227 227.932 47.7062C229.699 48.5897 229.699 47.7063 228.816 45.0559Z" fill="white" fill-opacity="0.54"/>
<path d="M232.349 59.1912C230.582 58.3078 230.582 60.0749 231.466 62.7253C232.349 65.3756 234.116 68.0259 235.883 69.7928C237.65 70.6763 238.534 69.7929 237.65 67.1425C235.883 63.6087 233.233 60.0747 232.349 59.1912Z" fill="white" fill-opacity="0.54"/>
<path d="M237.65 80.3948C235.883 79.5113 234.999 80.3947 234.999 83.0451C234.999 85.6954 236.766 88.3459 238.533 89.2294C240.3 90.1128 241.184 89.2292 241.184 86.5788C241.184 84.8119 239.417 81.2782 237.65 80.3948Z" fill="white" fill-opacity="0.54"/>
<path d="M242.951 105.131C242.951 103.365 242.067 99.8306 240.3 98.9472C238.534 98.0637 236.767 98.9473 236.767 100.714C236.767 102.481 237.65 105.132 239.417 106.898C240.3 107.782 242.067 107.782 242.951 105.131Z" fill="white" fill-opacity="0.54"/>
<path d="M236.766 120.151C238.533 118.384 237.65 115.733 235.883 114.85C234.116 113.966 232.349 114.85 230.582 115.733C228.815 117.5 229.699 120.15 231.466 121.034C232.349 122.801 234.999 121.918 236.766 120.151Z" fill="white" fill-opacity="0.54"/>
<path d="M227.932 135.169C228.815 133.402 227.932 130.751 226.165 129.868C224.398 128.984 222.631 129.868 221.748 132.518C220.864 134.285 221.748 136.936 223.515 137.819C225.282 138.703 227.049 137.819 227.932 135.169Z" fill="white" fill-opacity="0.54"/>
<path d="M220.864 146.653C219.097 145.77 217.33 147.537 217.33 149.304C217.33 151.954 218.214 154.605 219.981 154.605C221.748 155.488 223.514 153.721 223.514 151.954C224.398 150.187 222.631 147.537 220.864 146.653Z" fill="white" fill-opacity="0.54"/>
<path d="M219.981 174.041C221.748 174.924 223.515 173.157 222.631 170.507C222.631 167.857 220.864 165.207 219.097 164.323C217.33 163.44 215.564 165.206 215.564 167.857C216.447 170.507 218.214 173.157 219.981 174.041Z" fill="white" fill-opacity="0.54"/>
<path d="M222.631 193.477C224.398 194.36 226.165 192.593 225.281 189.943C225.281 187.293 223.514 184.642 220.864 183.759C219.097 182.875 217.33 184.642 218.214 187.292C218.214 189.943 219.981 192.593 222.631 193.477Z" fill="white" fill-opacity="0.54"/>
<path d="M225.281 212.913C227.048 213.797 228.815 212.03 228.815 209.379C228.815 206.729 226.165 204.079 224.398 203.195C222.631 202.312 220.864 204.079 220.864 206.729C220.864 210.263 223.515 212.913 225.281 212.913Z" fill="white" fill-opacity="0.54"/>
<path d="M227.932 233.232C230.583 234.116 231.466 232.349 231.466 229.698C231.466 227.048 228.816 224.397 227.049 223.514C224.398 222.631 223.515 224.397 223.515 227.048C223.515 229.698 225.282 232.349 227.932 233.232Z" fill="white" fill-opacity="0.54"/>
<path d="M223.515 1.76672C221.748 -0.000197768 220.864 0.883421 220.864 4.41725C220.864 7.95107 222.631 10.6014 224.398 12.3683C226.165 14.1352 227.048 13.2517 227.048 10.6013C226.165 7.06746 225.282 4.41709 223.515 1.76672Z" fill="white" fill-opacity="0.54"/>
<path d="M227.048 24.7371C225.281 22.9702 225.281 24.7371 226.165 28.2709C227.048 31.8047 228.815 34.4553 230.582 36.2222C232.349 37.9891 233.233 37.1056 232.349 34.4552C231.466 30.0379 228.815 26.504 227.048 24.7371Z" fill="white" fill-opacity="0.54"/>
<path d="M234.999 49.4735C235.883 52.1239 238.533 55.6576 240.3 57.4246C242.067 59.1915 242.95 58.3079 241.184 55.6575C240.3 53.0072 237.65 49.4733 235.883 46.823C234.116 45.9395 234.116 46.8231 234.999 49.4735Z" fill="white" fill-opacity="0.54"/>
<path d="M243.834 71.5594C243.834 72.4429 244.717 74.2098 245.601 75.0932V69.7924C245.601 69.7924 245.601 68.9089 244.717 68.9089C242.95 68.0255 242.067 68.9091 243.834 71.5594Z" fill="white" fill-opacity="0.54"/>
<path d="M245.601 124.567C244.718 124.567 243.834 125.45 243.834 125.45C242.067 127.217 242.067 129.868 243.834 131.634C244.718 132.518 244.718 132.518 245.601 132.518V124.567Z" fill="white" fill-opacity="0.54"/>
<path d="M240.301 144.887C241.184 143.12 240.301 140.469 238.534 138.702C236.767 136.935 235 137.819 234.116 139.586C233.233 141.353 234.116 144.003 235.883 145.77C237.65 146.654 240.301 146.654 240.301 144.887Z" fill="white" fill-opacity="0.54"/>
<path d="M233.233 161.673C235 162.557 236.767 161.673 236.767 159.906C236.767 158.139 235.883 155.489 233.233 153.722C231.466 152.839 229.699 153.722 229.699 155.489C230.582 158.139 231.466 160.79 233.233 161.673Z" fill="white" fill-opacity="0.54"/>
<path d="M234.116 180.225C235.883 181.109 237.65 180.226 237.65 177.575C237.65 174.925 235.883 172.274 233.233 171.391C231.466 170.507 230.582 171.391 230.582 174.041C230.582 176.692 232.349 179.342 234.116 180.225Z" fill="white" fill-opacity="0.54"/>
<path d="M237.65 198.778C239.417 199.661 241.184 197.895 240.3 195.244C239.417 192.594 237.65 189.943 235.883 189.06C234.116 188.176 232.349 189.943 233.233 192.594C234.116 195.244 235.883 197.895 237.65 198.778Z" fill="white" fill-opacity="0.54"/>
<path d="M242.068 218.213C243.834 219.097 245.601 217.33 244.718 214.68C243.834 212.029 242.067 209.379 239.417 209.379C237.65 208.495 235.883 210.262 236.767 212.913C237.65 214.68 239.417 217.33 242.068 218.213Z" fill="white" fill-opacity="0.54"/>
<path d="M245.601 228.816C244.718 228.816 244.718 227.932 243.834 227.932C242.067 227.932 240.3 228.816 240.3 231.466C240.3 232.349 241.184 234.116 242.067 235H245.601V228.816Z" fill="white" fill-opacity="0.54"/>
<path d="M240.3 4.41728C242.067 5.30074 243.834 5.30074 244.717 4.41728V0H237.65C238.533 2.65037 239.417 3.53383 240.3 4.41728Z" fill="white" fill-opacity="0.54"/>
<path d="M239.417 24.7369C241.184 26.5038 242.95 24.737 242.95 22.0866C242.95 19.4363 241.184 15.9023 239.417 15.0188C237.65 13.2519 235.883 14.1355 235.883 16.7859C235.883 19.4362 236.766 22.97 239.417 24.7369Z" fill="white" fill-opacity="0.54"/>
<path d="M242.067 37.1052C240.3 35.3383 239.417 37.1055 240.3 40.6393C241.184 43.2897 242.951 45.9399 245.601 47.7068V40.6393C243.834 38.8724 242.951 37.1052 242.067 37.1052Z" fill="white" fill-opacity="0.54"/>
</g>
</svg>
