<svg width="309" height="309" viewBox="0 0 309 309" fill="none" xmlns="http://www.w3.org/2000/svg">
<g opacity="0.9">
<path d="M242.253 232.614C215.068 239.7 169.605 228.869 125.696 203.118C65.7235 167.945 29.0216 117.635 44.7236 90.8609C52.2606 78.0096 71.5779 72.0672 97.8 75.2118C124.022 78.3564 154.158 89.5532 183.073 106.511C211.989 123.47 236.472 144.305 252.016 165.656C267.561 187.006 271.583 205.917 264.267 219.618C259.428 225.415 251.597 230.178 242.253 232.614ZM66.332 79.7851C57.8369 81.9994 51.7049 86.3196 47.9364 92.7452C33.4905 117.377 68.6786 165.36 127.581 199.905C185.412 233.821 245.538 241.737 259.984 217.106C266.893 205.325 262.243 187.485 247.99 167.612C232.667 147.111 209.255 126.904 180.339 109.946C151.424 92.9874 122.359 82.4186 96.9869 79.0526C84.6146 76.8341 74.8271 77.5708 66.332 79.7851Z" fill="white" fill-opacity="0.22"/>
<path d="M234.088 246.535C206.903 253.621 161.44 242.791 117.531 217.039C57.5585 181.867 20.8569 131.556 36.559 104.782C52.261 78.0087 113.865 84.6321 174.059 120.654C234.032 155.827 270.734 206.137 255.032 232.911C251.263 239.337 243.432 244.1 234.088 246.535ZM59.0166 93.4851C50.5215 95.6994 44.3897 100.019 40.6213 106.445C26.1754 131.077 61.3632 179.06 120.265 213.605C164.174 239.356 208.566 249.559 234.051 242.916C242.547 240.702 248.678 236.382 252.447 229.956C266.893 205.324 231.705 157.341 172.803 122.796C128.045 97.2661 84.502 86.8422 59.0166 93.4851Z" fill="white" fill-opacity="0.22"/>
<path d="M246.649 225.117C219.465 232.202 174.002 221.372 130.093 195.62C70.1202 160.448 33.4185 110.137 49.1206 83.3634C64.8227 56.5897 126.426 63.2131 186.621 99.2353C246.593 134.408 283.295 184.719 267.593 211.492C262.975 218.139 255.994 222.681 246.649 225.117ZM70.7287 72.2876C62.2336 74.5019 56.1018 78.822 52.3333 85.2477C45.4244 97.0281 50.0744 114.868 64.3268 134.741C79.65 155.242 103.062 175.449 131.978 192.407C175.886 218.159 220.278 228.361 245.763 221.718C254.259 219.504 260.39 215.184 264.159 208.758C278.605 184.127 243.417 136.143 184.515 101.599C140.828 76.6967 96.2141 65.6447 70.7287 72.2876Z" fill="white" fill-opacity="0.22"/>
<path d="M253.965 211.416C226.78 218.502 181.317 207.671 137.409 181.92C77.4357 146.747 40.7338 96.4368 56.4359 69.6632C72.1379 42.8896 133.742 49.5129 193.936 85.535C253.909 120.708 290.611 171.018 274.909 197.792C271.14 204.218 264.159 208.759 253.965 211.416ZM78.8938 58.3659C70.3987 60.5802 64.2667 64.9004 60.4982 71.326C46.0523 95.9578 81.2404 143.941 140.142 178.486C197.973 212.402 258.1 220.318 272.545 195.686C286.991 171.055 251.803 123.071 192.901 88.5265C148.992 62.7751 104.379 51.723 78.8938 58.3659Z" fill="white" fill-opacity="0.22"/>
<path d="M258.583 204.768C250.088 206.983 239.229 207.091 227.078 205.722C200.856 202.578 170.721 191.381 141.805 174.423C112.89 157.465 88.4071 136.629 72.8624 115.279C57.3176 93.928 53.2958 75.0172 60.6113 61.3163C76.3134 34.5427 137.917 41.1661 198.111 77.1882C258.084 112.361 294.786 162.672 279.084 189.445C274.909 197.791 267.927 202.333 258.583 204.768ZM82.6623 51.9397C74.1672 54.154 68.0354 58.474 64.2669 64.8996C57.358 76.68 62.008 94.5199 76.2604 114.393C91.5837 134.894 114.996 155.101 143.911 172.06C172.827 189.018 201.891 199.587 227.264 202.953C251.565 205.69 269.405 201.04 276.314 189.26C290.76 164.628 255.572 116.645 196.67 82.1001C152.54 55.4992 108.997 45.0754 82.6623 51.9397Z" fill="white" fill-opacity="0.22"/>
<path d="M250.418 218.691C223.233 225.777 177.77 214.946 133.862 189.195C73.8888 154.022 37.1869 103.712 52.889 76.9381C60.426 64.0867 79.7435 58.1443 105.966 61.2889C132.188 64.4334 162.323 75.6302 191.239 92.5885C251.212 127.761 287.913 178.072 272.211 204.846C267.593 211.493 259.763 216.255 250.418 218.691ZM74.4974 65.8624C66.0022 68.0767 59.8705 72.3966 56.102 78.8223C41.6561 103.454 76.8439 151.438 135.746 185.982C193.577 219.899 253.703 227.814 268.149 203.183C282.595 178.551 247.407 130.567 188.505 96.0227C159.59 79.0645 130.525 68.4958 105.152 65.1298C92.78 62.9113 82.9925 63.6481 74.4974 65.8624Z" fill="white" fill-opacity="0.22"/>
<path d="M238.484 239.039C211.3 246.125 165.837 235.294 121.928 209.543C61.955 174.37 25.2531 124.06 40.9551 97.2862C56.6572 70.5126 118.261 77.1359 178.455 113.158C238.428 148.331 275.13 198.641 259.428 225.415C254.81 232.062 247.829 236.603 238.484 239.039ZM62.5635 86.2104C54.0684 88.4247 47.9366 92.7447 44.1681 99.1703C29.7222 123.802 64.9101 171.786 123.812 206.33C181.643 240.247 241.769 248.162 256.215 223.531C270.661 198.899 235.473 150.916 176.571 116.371C132.662 90.6196 88.0489 79.5675 62.5635 86.2104Z" fill="white" fill-opacity="0.22"/>
<path d="M222.154 266.884C194.97 273.969 149.507 263.139 105.598 237.387C45.6251 202.215 8.92313 151.904 24.6252 125.13C40.3273 98.3568 101.931 104.98 162.125 141.002C222.098 176.175 258.8 226.486 243.098 253.259C238.48 259.906 231.499 264.448 222.154 266.884ZM46.2336 114.055C37.7385 116.269 31.6067 120.589 27.8382 127.015C13.3923 151.646 48.5802 199.63 107.482 234.175C165.313 268.091 225.439 276.007 239.885 251.375C254.331 226.743 219.143 178.76 160.241 144.215C116.333 118.464 71.719 107.412 46.2336 114.055Z" fill="white" fill-opacity="0.22"/>
<path d="M230.319 252.961C203.135 260.047 157.672 249.216 113.763 223.465C53.7903 188.292 17.0886 137.981 32.7907 111.208C40.3277 98.3563 59.645 92.4139 85.8671 95.5585C112.089 98.703 142.225 109.9 171.14 126.858C200.056 143.816 224.538 164.652 240.083 186.002C255.628 207.353 259.65 226.264 252.334 239.964C246.645 245.984 239.664 250.525 230.319 252.961ZM54.3988 100.132C45.9037 102.346 39.7719 106.666 36.0034 113.092C29.0945 124.872 33.7445 142.712 47.9969 162.585C63.3202 183.086 86.7321 203.294 115.648 220.252C144.563 237.21 173.628 247.779 199 251.145C223.302 253.883 241.142 249.233 248.051 237.452C254.96 225.672 250.309 207.832 236.057 187.959C220.734 167.458 197.322 147.251 168.406 130.292C139.491 113.334 110.427 102.765 85.054 99.3994C72.9031 98.0305 62.0445 98.1391 54.3988 100.132Z" fill="white" fill-opacity="0.22"/>
<path d="M225.922 260.458C217.427 262.673 206.569 262.781 194.418 261.412C168.196 258.268 138.06 247.071 109.145 230.113C80.2291 213.155 55.7464 192.319 40.2017 170.969C24.657 149.618 20.6349 130.707 27.9504 117.006C43.6525 90.2327 105.256 96.8561 165.451 132.878C225.424 168.051 262.125 218.362 246.423 245.135C243.098 253.26 235.267 258.023 225.922 260.458ZM50.8512 107.408C42.3561 109.622 36.2241 113.942 32.4556 120.368C25.5467 132.149 30.1969 149.988 44.4493 169.861C59.7726 190.362 83.1843 210.57 112.1 227.528C141.015 244.486 170.08 255.055 195.452 258.421C219.754 261.159 237.594 256.509 244.503 244.728C258.949 220.097 223.761 172.113 164.859 137.569C119.879 111.189 76.3367 100.765 50.8512 107.408Z" fill="white" fill-opacity="0.22"/>
<path d="M262.13 197.493C234.946 204.579 189.483 193.749 145.574 167.997C85.6009 132.825 48.8993 82.5139 64.6014 55.7403C72.1383 42.889 91.4556 36.9466 117.678 40.0912C143.9 43.2357 174.035 54.4325 202.951 71.3908C231.866 88.349 256.349 109.184 271.894 130.535C287.439 151.886 291.461 170.796 284.145 184.497C279.306 190.295 272.324 194.836 262.13 197.493ZM87.0591 44.4433C78.5639 46.6576 72.4322 50.9775 68.6637 57.4032C54.2178 82.0349 89.4056 130.019 148.308 164.563C206.139 198.48 266.265 206.395 280.711 181.764C287.62 169.983 282.97 152.143 268.717 132.27C253.394 111.769 229.982 91.5618 201.067 74.6036C172.151 57.6454 143.087 47.0766 117.714 43.7106C105.563 42.3417 94.7047 42.4504 87.0591 44.4433Z" fill="white" fill-opacity="0.22"/>
</g>
</svg>
